Gelasio Italic GFAfrica.glyphspackage
{
glyphname = percent;
layers = (
{
layerId = "D92FDD0B-F694-41DD-AE46-0E4F694F0F38";
shapes = (
{
closed = 1;
nodes = (
(667,711,o),
(823,903,o),
(823,1151,cs),
(823,1336,o),
(716,1449,o),
(533,1449,cs,{
name = hr02;
}),
(294,1449,o),
(142,1245,o),
(142,1001,cs),
(142,821,o),
(247,711,o),
(425,711,cs,{
name = hr01;
})
);
},
{
closed = 1;
nodes = (
(339,788,o),
(298,846,o),
(298,964,cs),
(298,1164,o),
(353,1372,o),
(517,1372,cs),
(615,1372,o),
(657,1312,o),
(657,1190,cs),
(657,990,o),
(603,788,o),
(438,788,cs)
);
},
{
closed = 1;
nodes = (
(516,0,l,{
name = hr00;
}),
(1344,1419,l),
(1197,1419,l),
(371,0,l)
);
},
{
closed = 1;
nodes = (
(1439,-29,o),
(1595,163,o),
(1595,411,cs),
(1595,596,o),
(1488,709,o),
(1305,709,cs),
(1064,709,o),
(914,505,o),
(914,261,cs),
(914,81,o),
(1019,-29,o),
(1197,-29,cs)
);
},
{
closed = 1;
nodes = (
(1111,48,o),
(1070,106,o),
(1070,224,cs),
(1070,424,o),
(1125,632,o),
(1289,632,cs),
(1387,632,o),
(1429,572,o),
(1429,450,cs),
(1429,250,o),
(1375,48,o),
(1210,48,cs)
);
}
);
width = 1674;
},
{
layerId = "BDB4B313-38B1-4B24-B843-560B185382BD";
shapes = (
{
closed = 1;
nodes = (
(753,711,o),
(928,892,o),
(928,1130,cs),
(928,1328,o),
(793,1449,o),
(566,1449,cs),
(274,1449,o),
(104,1257,o),
(104,1023,cs),
(104,830,o),
(236,711,o),
(458,711,cs)
);
},
{
closed = 1;
nodes = (
(372,798,o),
(331,852,o),
(331,984,cs),
(331,1175,o),
(396,1362,o),
(550,1362,cs),
(648,1362,o),
(690,1306,o),
(690,1170,cs),
(690,1031,o),
(657,798,o),
(471,798,cs)
);
},
{
closed = 1;
nodes = (
(531,0,l),
(1499,1419,l),
(1332,1419,l),
(366,0,l)
);
},
{
closed = 1;
nodes = (
(1596,-28,o),
(1761,153,o),
(1761,391,cs),
(1761,589,o),
(1626,710,o),
(1399,710,cs),
(1107,710,o),
(937,518,o),
(937,284,cs),
(937,91,o),
(1069,-28,o),
(1291,-28,cs)
);
},
{
closed = 1;
nodes = (
(1205,59,o),
(1164,113,o),
(1164,245,cs),
(1164,436,o),
(1229,623,o),
(1383,623,cs),
(1481,623,o),
(1523,567,o),
(1523,431,cs),
(1523,292,o),
(1490,59,o),
(1304,59,cs)
);
}
);
width = 1801;
}
);
unicode = 37;
}
{
glyphname = ampersand;
layers = (
{
layerId = "D92FDD0B-F694-41DD-AE46-0E4F694F0F38";
shapes = (
{
closed = 1;
nodes = (
(1064,896,ls),
(1041,896,o),
(1022,874,o),
(1022,842,cs),
(1022,829,o),
(1028,820,o),
(1046,818,cs),
(1088,814,o),
(1159,802,o),
(1152,748,cs),
(1150,733,o),
(1147,510,o),
(984,307,c),
(820,529,o),
(712,692,o),
(652,780,c),
(949,928,o),
(1049,1001,o),
(1049,1209,cs),
(1049,1350,o),
(949,1448,o),
(761,1448,cs),
(457,1448,o),
(324,1268,o),
(324,1070,cs),
(324,963,o),
(372,854,o),
(426,758,c),
(216,647,o),
(33,519,o),
(33,304,cs),
(33,108,o),
(198,-29,o),
(493,-29,cs),
(640,-29,o),
(791,28,o),
(891,102,c),
(915,68,o),
(940,34,o),
(964,0,c),
(1280,0,ls),
(1303,0,o),
(1322,24,o),
(1322,56,cs),
(1322,73,o),
(1314,76,o),
(1292,78,c),
(1231,86,o),
(1132,111,o),
(1093,162,cs),
(1074,187,o),
(1055,211,o),
(1037,235,c),
(1228,462,o),
(1235,645,o),
(1297,741,c),
(1338,792,o),
(1375,818,o),
(1443,818,cs),
(1470,818,o),
(1485,840,o),
(1485,864,cs),
(1485,881,o),
(1477,896,o),
(1457,896,cs)
);
},
{
closed = 1;
nodes = (
(834,1371,o),
(877,1270,o),
(877,1195,cs),
(877,1032,o),
(802,928,o),
(613,838,c,{
name = hr00;
}),
(559,915,o),
(522,1000,o),
(522,1094,cs),
(522,1219,o),
(591,1371,o),
(731,1371,cs)
);
},
{
closed = 1;
nodes = (
(321,91,o),
(234,226,o),
(234,350,cs),
(234,519,o),
(334,595,o),
(471,688,c),
(594,501,o),
(716,336,o),
(839,175,c),
(715,98,o),
(615,91,o),
(524,91,cs)
);
}
);
width = 1455;
},
{
layerId = "BDB4B313-38B1-4B24-B843-560B185382BD";
shapes = (
{
closed = 1;
nodes = (
(1155,896,ls),
(1131,896,o),
(1115,875,o),
(1115,843,cs),
(1115,829,o),
(1121,820,o),
(1141,818,c),
(1192,811,o),
(1281,797,o),
(1281,731,cs),
(1281,660,o),
(1218,512,o),
(1146,412,c),
(1040,541,o),
(910,701,o),
(821,811,c),
(985,902,o),
(1191,1049,o),
(1191,1232,cs),
(1191,1368,o),
(1056,1458,o),
(824,1458,cs),
(581,1458,o),
(328,1334,o),
(328,1073,cs),
(328,949,o),
(386,850,o),
(455,758,c),
(213,648,o),
(33,538,o),
(33,307,cs),
(33,146,o),
(190,-39,o),
(551,-39,cs),
(705,-39,o),
(850,20,o),
(965,107,c),
(1015,45,o),
(1050,3,o),
(1054,0,c),
(1521,0,ls),
(1549,0,o),
(1561,32,o),
(1561,54,cs),
(1561,73,o),
(1552,76,o),
(1529,78,cs),
(1438,86,o),
(1356,162,o),
(1313,212,cs),
(1296,231,o),
(1263,271,o),
(1221,322,c),
(1349,494,o),
(1380,613,o),
(1446,711,c),
(1478,779,o),
(1541,818,o),
(1598,818,cs),
(1620,818,o),
(1633,831,o),
(1637,855,c),
(1639,875,o),
(1631,896,o),
(1608,896,cs)
);
},
{
closed = 1;
nodes = (
(932,1369,o),
(971,1284,o),
(971,1218,cs),
(971,1093,o),
(882,952,o),
(757,893,c),
(688,981,o),
(644,1051,o),
(644,1152,cs),
(644,1298,o),
(705,1369,o),
(835,1369,cs)
);
},
{
closed = 1;
nodes = (
(478,131,o),
(385,240,o),
(385,351,cs),
(385,514,o),
(446,603,o),
(530,663,c),
(591,574,o),
(766,353,o),
(898,191,c),
(809,137,o),
(722,131,o),
(633,131,cs)
);
}
);
width = 1637;
}
);
unicode = 38;
userData = {
com.typemytype.robofont.mark = (
0.6,
0.609,
1,
1
);
};
}
{
glyphname = parenright;
layers = (
{
layerId = "D92FDD0B-F694-41DD-AE46-0E4F694F0F38";
shapes = (
{
closed = 1;
nodes = (
(676,1263,o),
(457,1511,o),
(252,1549,c),
(237,1466,l),
(337,1414,o),
(478,1307,o),
(478,834,cs),
(478,373,o),
(290,-256,o),
(-62,-256,cs),
(-72,-256,o),
(-83,-255,o),
(-93,-254,c),
(-129,-341,l,{
name = hr02;
}),
(-109,-343,o),
(-90,-344,o),
(-71,-344,cs),
(376,-344,o),
(676,247,o),
(676,787,cs)
);
}
);
width = 768;
},
{
layerId = "BDB4B313-38B1-4B24-B843-560B185382BD";
shapes = (
{
closed = 1;
nodes = (
(739,1224,o),
(487,1505,o),
(258,1550,c),
(243,1467,l),
(410,1308,o),
(440,991,o),
(440,764,cs),
(440,240,o),
(220,-160,o),
(-67,-249,cs),
(-75,-252,o),
(-94,-252,o),
(-101,-253,c),
(-123,-340,l),
(-113,-340,o),
(-104,-341,o),
(-95,-341,cs),
(348,-341,o),
(739,158,o),
(739,725,cs)
);
}
);
width = 915;
}
);
unicode = 41;
}
{
glyphname = plus;
layers = (
{
layerId = "D92FDD0B-F694-41DD-AE46-0E4F694F0F38";
shapes = (
{
closed = 1;
nodes = (
(700,40,l,{
name = hr00;
}),
(739,492,l),
(1128,492,l),
(1139,618,l),
(750,618,l),
(786,1027,l),
(640,1027,l),
(604,618,l),
(212,618,l),
(201,492,l),
(593,492,l),
(554,40,l)
);
}
);
width = 1317;
},
{
layerId = "BDB4B313-38B1-4B24-B843-560B185382BD";
shapes = (
{
closed = 1;
nodes = (
(771,75,l),
(808,501,l),
(1210,501,l),
(1223,647,l),
(821,647,l),
(857,1062,l),
(691,1062,l),
(655,647,l),
(253,647,l),
(240,501,l),
(642,501,l),
(605,75,l)
);
}
);
width = 1440;
}
);
unicode = 43;
}
{
glyphname = slash;
layers = (
{
layerId = "D92FDD0B-F694-41DD-AE46-0E4F694F0F38";
shapes = (
{
closed = 1;
nodes = (
(157,-415,l),
(938,1625,l),
(801,1625,l),
(22,-415,l)
);
}
);
width = 960;
},
{
layerId = "BDB4B313-38B1-4B24-B843-560B185382BD";
shapes = (
{
closed = 1;
nodes = (
(127,-415,l),
(1010,1625,l),
(844,1625,l),
(-37,-415,l,{
name = hr00;
})
);
}
);
width = 966;
}
);
unicode = 47;
}
{
glyphname = two;
layers = (
{
layerId = "D92FDD0B-F694-41DD-AE46-0E4F694F0F38";
shapes = (
{
closed = 1;
nodes = (
(976,0,l),
(1000,165,l),
(366,165,l),
(646,350,o),
(971,594,o),
(994,851,cs),
(1016,1092,o),
(846,1204,o),
(592,1204,cs),
(381,1204,o),
(131,1058,o),
(131,879,cs),
(131,793,o),
(221,774,o),
(257,774,cs),
(297,774,o),
(313,798,o),
(326,838,cs),
(389,1033,l),
(410,1055,o),
(432,1104,o),
(581,1104,cs),
(730,1104,o),
(799,1004,o),
(785,850,cs),
(761,587,o),
(407,285,o),
(75,75,c),
(69,0,l,{
name = hr00;
})
);
}
);
width = 1144;
},
{
layerId = "BDB4B313-38B1-4B24-B843-560B185382BD";
shapes = (
{
closed = 1;
nodes = (
(1099,0,l),
(1137,249,l),
(467,249,l),
(816,414,o),
(1131,625,o),
(1131,883,cs),
(1131,1066,o),
(1005,1205,o),
(646,1205,cs),
(391,1205,o),
(119,1056,o),
(119,874,cs),
(119,764,o),
(214,710,o),
(283,710,cs),
(323,710,o),
(364,735,o),
(377,776,cs),
(462,1043,l),
(483,1065,o),
(508,1103,o),
(607,1103,cs),
(734,1103,o),
(778,986,o),
(778,905,cs),
(778,576,o),
(383,302,o),
(38,75,c),
(27,0,l)
);
}
);
width = 1283;
}
);
unicode = 50;
}
{
glyphname = five;
layers = (
{
layerId = "D92FDD0B-F694-41DD-AE46-0E4F694F0F38";
shapes = (
{
closed = 1;
nodes = (
(707,-392,o),
(959,-71,o),
(948,273,cs),
(941,485,o),
(797,627,o),
(554,627,cs),
(475,627,o),
(350,602,o),
(276,554,c),
(388,1020,l),
(990,1020,l),
(1011,1189,l),
(283,1189,l),
(115,413,l),
(179,380,l),
(253,477,o),
(392,516,o),
(496,516,cs),
(643,516,o),
(728,393,o),
(728,230,cs),
(728,-49,o),
(603,-297,o),
(332,-297,cs),
(176,-297,o),
(168,-222,o),
(168,-222,c),
(157,-189,o),
(144,-92,o),
(139,-44,cs),
(134,4,o),
(124,31,o),
(72,31,cs,{
name = hr00;
}),
(27,31,o),
(-45,-15,o),
(-45,-117,cs),
(-45,-304,o),
(170,-392,o),
(332,-392,cs)
);
}
);
width = 1082;
},
{
layerId = "BDB4B313-38B1-4B24-B843-560B185382BD";
shapes = (
{
closed = 1;
nodes = (
(802,-451,o),
(1079,-145,o),
(1079,178,cs),
(1079,422,o),
(946,607,o),
(635,607,cs),
(518,607,o),
(394,573,o),
(312,523,c),
(423,910,l),
(1075,910,l),
(1111,1189,l),
(353,1189,l),
(156,391,l),
(217,358,l),
(298,455,o),
(441,494,o),
(545,494,cs),
(664,494,o),
(747,365,o),
(747,160,cs),
(747,-66,o),
(670,-357,o),
(394,-357,cs),
(315,-357,o),
(285,-330,o),
(285,-330,c),
(276,-297,o),
(222,-68,o),
(211,-20,cs),
(200,27,o),
(159,55,o),
(107,55,cs),
(48,55,o),
(-40,4,o),
(-40,-108,cs),
(-40,-284,o),
(153,-451,o),
(401,-451,cs)
);
}
);
width = 1227;
}
);
unicode = 53;
}
{
glyphname = seven;
layers = (
{
layerId = "D92FDD0B-F694-41DD-AE46-0E4F694F0F38";
shapes = (
{
closed = 1;
nodes = (
(347,-383,l),
(1070,1122,l),
(1028,1189,l),
(191,1190,l),
(99,786,l),
(95,763,o),
(119,752,o),
(134,752,cs),
(155,752,o),
(179,759,o),
(187,785,cs),
(199,823,o),
(283,1028,o),
(405,1028,c),
(901,1028,l),
(125,-382,l,{
name = hr00;
})
);
}
);
width = 1017;
},
{
layerId = "BDB4B313-38B1-4B24-B843-560B185382BD";
shapes = (
{
closed = 1;
nodes = (
(529,-383,l),
(1187,1122,l),
(1148,1189,l),
(211,1190,l),
(129,760,l),
(124,737,o),
(148,726,o),
(163,726,cs),
(192,726,o),
(223,733,o),
(237,759,cs),
(246,776,o),
(305,879,o),
(387,879,c),
(920,879,l),
(281,-382,l)
);
}
);
width = 1160;
}
);
unicode = 55;
}
{
glyphname = nine;
layers = (
{
layerId = "D92FDD0B-F694-41DD-AE46-0E4F694F0F38";
shapes = (
{
closed = 1;
nodes = (
(740,-242,o),
(1095,238,o),
(1095,709,cs),
(1095,1007,o),
(947,1205,o),
(670,1205,cs),
(345,1205,o),
(123,932,o),
(123,616,cs),
(123,380,o),
(254,243,o),
(499,243,cs),
(637,243,o),
(751,314,o),
(816,377,c),
(741,121,o),
(552,-164,o),
(138,-261,c),
(128,-353,l)
);
},
{
closed = 1;
nodes = (
(392,361,o),
(339,471,o),
(339,637,cs),
(339,885,o),
(441,1110,o),
(653,1110,cs),
(832,1110,o),
(894,1011,o),
(894,823,cs),
(894,715,o),
(875,606,o),
(851,506,c),
(783,433,o),
(668,361,o),
(540,361,cs)
);
}
);
width = 1159;
},
{
layerId = "BDB4B313-38B1-4B24-B843-560B185382BD";
shapes = (
{
closed = 1;
nodes = (
(956,-304,o),
(1252,253,o),
(1252,679,cs),
(1252,946,o),
(1106,1205,o),
(744,1205,cs),
(376,1205,o),
(94,947,o),
(94,594,cs),
(94,402,o),
(212,212,o),
(505,212,cs),
(671,212,o),
(807,283,o),
(871,346,c),
(801,90,o),
(651,-208,o),
(299,-272,c),
(281,-372,l)
);
},
{
closed = 1;
nodes = (
(466,340,o),
(411,445,o),
(411,578,cs),
(411,849,o),
(531,1110,o),
(739,1110,cs),
(901,1110,o),
(949,1005,o),
(949,859,cs),
(949,732,o),
(930,592,o),
(894,475,c),
(828,402,o),
(710,340,o),
(594,340,cs)
);
}
);
width = 1327;
}
);
unicode = 57;
}
{
glyphname = less;
layers = (
{
layerId = "D92FDD0B-F694-41DD-AE46-0E4F694F0F38";
shapes = (
{
closed = 1;
nodes = (
(1027,194,l),
(291,554,l),
(1095,915,l),
(1108,1049,l,{
name = hr00;
}),
(148,609,l),
(138,500,l),
(1014,62,l)
);
}
);
width = 1317;
},
{
layerId = "BDB4B313-38B1-4B24-B843-560B185382BD";
shapes = (
{
closed = 1;
nodes = (
(1135,195,l),
(371,570,l),
(1207,952,l),
(1222,1115,l),
(178,628,l),
(168,519,l),
(1120,34,l)
);
}
);
width = 1440;
}
);
unicode = 60;
}
{
glyphname = H;
layers = (
{
anchors = (
{
name = bottom;
pos = (765,0);
},
{
name = center;
pos = (865,710);
},
{
name = top;
pos = (972,1419);
},
{
name = topleft;
pos = (150,1419);
}
);
guides = (
{
angle = 261.4576;
pos = (1416,955);
}
);
layerId = "D92FDD0B-F694-41DD-AE46-0E4F694F0F38";
shapes = (
{
closed = 1;
nodes = (
(566,0,ls),
(589,0,o),
(600,36,o),
(602,51,cs),
(606,81,o),
(597,85,o),
(570,88,cs),
(513,94,o),
(430,98,o),
(430,171,c),
(505,687,l),
(1223,687,l),
(1145,152,ls,{
name = hr00;
}),
(1139,108,o),
(1056,92,o),
(991,88,cs),
(962,86,o),
(954,70,o),
(954,47,cs),
(954,31,o),
(965,0,o),
(986,0,cs),
(1491,0,ls),
(1514,0,o),
(1525,36,o),
(1527,51,cs),
(1531,81,o),
(1522,85,o),
(1495,88,cs),
(1438,94,o),
(1354,98,o),
(1354,171,c),
(1516,1267,l),
(1521,1311,o),
(1605,1326,o),
(1669,1331,c),
(1695,1334,o),
(1704,1347,o),
(1707,1368,c),
(1708,1383,o),
(1702,1419,o),
(1679,1419,cs),
(1174,1419,ls),
(1154,1419,o),
(1133,1388,o),
(1133,1355,cs),
(1133,1337,o),
(1142,1333,o),
(1165,1331,cs),
(1223,1326,o),
(1307,1321,o),
(1307,1248,c),
(1235,773,l),
(517,773,l),
(593,1267,ls),
(600,1311,o),
(680,1326,o),
(744,1331,c),
(770,1334,o),
(779,1347,o),
(782,1368,c),
(783,1383,o),
(777,1419,o),
(754,1419,cs),
(259,1419,ls),
(239,1419,o),
(218,1388,o),
(218,1355,cs),
(218,1337,o),
(227,1333,o),
(250,1331,cs),
(307,1326,o),
(382,1321,o),
(382,1249,c),
(219,152,l),
(214,108,o),
(141,92,o),
(76,88,cs),
(47,86,o),
(39,70,o),
(39,47,cs),
(39,31,o),
(50,0,o),
(71,0,cs)
);
}
);
width = 1669;
},
{
anchors = (
{
name = bottom;
pos = (865,0);
},
{
name = center;
pos = (965,710);
},
{
name = top;
pos = (1078,1419);
},
{
name = topleft;
pos = (150,1419);
}
);
guides = (
{
angle = 261.4576;
pos = (17,1083);
},
{
angle = 261.4576;
pos = (2076,935);
}
);
layerId = "BDB4B313-38B1-4B24-B843-560B185382BD";
shapes = (
{
closed = 1;
nodes = (
(687,0,ls),
(710,0,o),
(726,24,o),
(726,51,cs),
(726,71,o),
(724,85,o),
(697,88,cs),
(642,94,o),
(561,98,o),
(561,165,c),
(637,682,l),
(1293,682,l),
(1214,152,ls),
(1207,108,o),
(1123,93,o),
(1058,88,cs),
(1031,86,o),
(1023,72,o),
(1018,51,c),
(1016,36,o),
(1024,0,o),
(1047,0,cs),
(1692,0,ls),
(1715,0,o),
(1731,23,o),
(1731,51,cs),
(1731,71,o),
(1729,85,o),
(1702,88,cs),
(1639,95,o),
(1546,98,o),
(1546,166,c),
(1709,1267,l),
(1715,1311,o),
(1787,1325,o),
(1845,1331,cs),
(1875,1334,o),
(1884,1351,o),
(1884,1377,cs),
(1884,1394,o),
(1877,1419,o),
(1858,1419,cs),
(1253,1419,ls),
(1230,1419,o),
(1210,1392,o),
(1210,1374,cs),
(1210,1344,o),
(1213,1334,o),
(1241,1331,cs),
(1303,1324,o),
(1377,1320,o),
(1377,1253,c),
(1307,778,l),
(651,778,l),
(724,1267,ls),
(731,1311,o),
(814,1326,o),
(880,1331,c),
(904,1334,o),
(919,1347,o),
(919,1378,cs),
(919,1395,o),
(912,1419,o),
(893,1419,cs),
(268,1419,ls),
(245,1419,o),
(225,1394,o),
(225,1377,cs),
(225,1347,o),
(228,1334,o),
(256,1331,cs),
(315,1325,o),
(392,1321,o),
(392,1255,c),
(229,152,l),
(220,108,o),
(142,93,o),
(73,88,c),
(46,85,o),
(33,72,o),
(33,51,cs),
(33,36,o),
(39,0,o),
(62,0,cs)
);
}
);
width = 1870;
}
);
unicode = 72;
}
{
glyphname = I;
layers = (
{
anchors = (
{
name = bottom;
pos = (329,0);
},
{
name = ogonek;
pos = (382,10);
},
{
name = top;
pos = (534,1419);
},
{
name = topleft;
pos = (150,1419);
}
);
layerId = "D92FDD0B-F694-41DD-AE46-0E4F694F0F38";
shapes = (
{
closed = 1;
nodes = (
(52,26,o),
(57,0,o),
(77,0,cs),
(582,0,ls),
(605,0,o),
(620,36,o),
(623,51,cs),
(624,56,o),
(624,60,o),
(624,63,cs),
(624,82,o),
(615,85,o),
(592,88,cs),
(536,95,o),
(453,98,o),
(453,169,cs),
(453,174,o),
(453,179,o),
(454,185,cs),
(612,1267,ls),
(619,1312,o),
(703,1326,o),
(768,1331,cs),
(794,1333,o),
(805,1347,o),
(808,1368,cs),
(810,1383,o),
(806,1419,o),
(783,1419,cs),
(278,1419,ls),
(255,1419,o),
(235,1383,o),
(235,1368,cs),
(235,1362,o),
(233,1356,o),
(233,1352,cs),
(233,1336,o),
(242,1333,o),
(264,1331,cs),
(320,1326,o),
(403,1321,o),
(403,1249,cs),
(403,1244,o),
(403,1239,o),
(402,1234,cs),
(242,152,ls),
(236,108,o),
(153,92,o),
(88,88,cs),
(59,86,o),
(52,69,o),
(52,43,cs,{
name = hr00;
})
);
}
);
width = 798;
},
{
anchors = (
{
name = bottom;
pos = (392,0);
},
{
name = ogonek;
pos = (476,10);
},
{
name = top;
pos = (581,1419);
},
{
name = topleft;
pos = (150,1419);
}
);
layerId = "BDB4B313-38B1-4B24-B843-560B185382BD";
shapes = (
{
closed = 1;
nodes = (
(35,24,o),
(40,0,o),
(59,0,cs),
(714,0,ls),
(737,0,o),
(755,36,o),
(757,51,cs),
(758,57,o),
(759,62,o),
(759,66,cs),
(759,83,o),
(749,86,o),
(728,88,cs),
(673,93,o),
(579,98,o),
(579,167,cs),
(579,172,o),
(580,178,o),
(581,185,cs),
(742,1267,ls),
(749,1312,o),
(826,1326,o),
(894,1331,cs),
(924,1333,o),
(935,1351,o),
(935,1378,cs),
(935,1395,o),
(930,1419,o),
(911,1419,cs),
(266,1419,ls),
(243,1419,o),
(223,1383,o),
(221,1368,cs),
(220,1362,o),
(219,1356,o),
(219,1352,cs),
(219,1336,o),
(228,1333,o),
(250,1331,cs),
(306,1326,o),
(398,1321,o),
(398,1252,cs),
(398,1246,o),
(397,1240,o),
(396,1234,cs),
(233,152,ls),
(226,108,o),
(139,92,o),
(74,88,cs),
(44,86,o),
(35,68,o),
(35,41,cs)
);
}
);
width = 923;
}
);
unicode = 73;
}
{
glyphname = J;
layers = (
{
anchors = (
{
name = bottom;
pos = (460,0);
},
{
name = top;
pos = (842,1419);
}
);
layerId = "D92FDD0B-F694-41DD-AE46-0E4F694F0F38";
shapes = (
{
closed = 1;
nodes = (
(546,-30,o),
(761,49,o),
(817,439,cs),
(936,1267,ls),
(942,1311,o),
(1040,1324,o),
(1100,1331,cs),
(1126,1334,o),
(1140,1350,o),
(1140,1372,cs),
(1140,1389,o),
(1133,1419,o),
(1112,1419,cs),
(567,1419,ls),
(542,1419,o),
(525,1381,o),
(525,1352,cs),
(525,1337,o),
(534,1333,o),
(556,1331,cs),
(624,1325,o),
(739,1320,o),
(728,1248,cs),
(604,406,ls),
(568,161,o),
(488,59,o),
(347,59,cs),
(278,59,o),
(236,82,o),
(202,113,c),
(239,378,l),
(239,418,o),
(194,433,o),
(170,433,cs),
(109,433,o),
(2,397,o),
(2,260,cs),
(2,69,o),
(164,-30,o),
(346,-30,cs,{
name = hr01;
})
);
}
);
width = 1060;
},
{
anchors = (
{
name = bottom;
pos = (427,0);
},
{
name = top;
pos = (969,1419);
}
);
layerId = "BDB4B313-38B1-4B24-B843-560B185382BD";
shapes = (
{
closed = 1;
nodes = (
(673,-30,o),
(948,45,o),
(1007,439,cs),
(1130,1267,ls),
(1137,1311,o),
(1233,1326,o),
(1293,1331,cs),
(1318,1333,o),
(1333,1350,o),
(1333,1372,cs),
(1333,1389,o),
(1328,1419,o),
(1307,1419,cs),
(584,1419,ls),
(554,1419,o),
(550,1375,o),
(550,1352,cs),
(550,1337,o),
(559,1332,o),
(581,1331,cs),
(739,1324,o),
(789,1323,o),
(789,1259,c),
(661,406,l),
(624,134,o),
(566,59,o),
(430,59,cs),
(351,59,o),
(284,104,o),
(284,177,c),
(326,447,l),
(326,487,o),
(271,532,o),
(201,532,cs),
(46,532,o),
(-14,425,o),
(-14,318,cs),
(-14,53,o),
(245,-30,o),
(425,-30,cs)
);
}
);
width = 1219;
}
);
unicode = 74;
}
{
glyphname = L;
layers = (
{
anchors = (
{
name = bottom;
pos = (548,0);
},
{
name = center;
pos = (648,710);
},
{
name = top;
pos = (524,1419);
},
{
name = topright;
pos = (1090,1419);
}
);
layerId = "D92FDD0B-F694-41DD-AE46-0E4F694F0F38";
shapes = (
{
closed = 1;
nodes = (
(21,28,o),
(31,0,o),
(51,0,cs),
(1092,0,l),
(1193,439,ls),
(1198,462,o),
(1170,473,o),
(1145,473,cs),
(1124,473,o),
(1104,464,o),
(1095,440,cs),
(1025,296,o),
(977,101,o),
(794,101,cs),
(494,101,ls),
(453,101,o),
(410,115,o),
(418,163,cs),
(586,1237,ls),
(598,1311,o),
(698,1331,o),
(772,1331,cs),
(797,1331,o),
(814,1360,o),
(814,1390,cs),
(814,1406,o),
(807,1419,o),
(784,1419,cs),
(249,1419,ls),
(224,1419,o),
(207,1381,o),
(207,1353,cs),
(207,1336,o),
(216,1333,o),
(238,1331,cs),
(298,1326,o),
(392,1320,o),
(379,1234,cs),
(211,152,ls),
(204,108,o),
(123,94,o),
(58,88,cs),
(28,85,o),
(21,69,o),
(21,45,cs,{
name = hr00;
})
);
}
);
width = 1236;
},
{
anchors = (
{
name = bottom;
pos = (632,0);
},
{
name = center;
pos = (732,710);
},
{
name = top;
pos = (567,1419);
},
{
name = topright;
pos = (1219,1419);
}
);
layerId = "BDB4B313-38B1-4B24-B843-560B185382BD";
shapes = (
{
closed = 1;
nodes = (
(30,26,o),
(38,0,o),
(58,0,cs),
(1233,0,l),
(1348,497,ls),
(1353,520,o),
(1311,531,o),
(1282,531,cs),
(1261,531,o),
(1231,522,o),
(1220,498,cs),
(1146,354,o),
(1029,101,o),
(909,101,cs),
(644,101,ls),
(604,101,o),
(563,113,o),
(570,159,cs),
(729,1237,ls),
(740,1311,o),
(849,1331,o),
(917,1331,cs),
(943,1331,o),
(957,1364,o),
(957,1385,cs),
(957,1400,o),
(954,1419,o),
(931,1419,cs),
(266,1419,ls),
(242,1419,o),
(222,1381,o),
(222,1353,cs),
(222,1336,o),
(231,1333,o),
(253,1331,cs),
(309,1326,o),
(402,1320,o),
(391,1250,cs),
(224,152,ls),
(217,108,o),
(134,94,o),
(69,88,cs),
(39,85,o),
(30,69,o),
(30,43,cs)
);
}
);
width = 1404;
}
);
unicode = 76;
}
{
glyphname = M;
layers = (
{
anchors = (
{
name = bottom;
pos = (867,0);
},
{
name = top;
pos = (1078,1419);
}
);
layerId = "D92FDD0B-F694-41DD-AE46-0E4F694F0F38";
shapes = (
{
closed = 1;
nodes = (
(496,0,ls),
(519,0,o),
(533,36,o),
(535,51,cs),
(537,81,o),
(529,85,o),
(502,88,c),
(434,93,o),
(319,99,o),
(319,173,cs),
(319,177,o),
(319,181,o),
(320,185,cs),
(520,1281,l),
(551,1281,l),
(850,0,l),
(900,0,l),
(1501,1281,l),
(1530,1281,l),
(1453,152,ls),
(1450,108,o),
(1326,93,o),
(1261,88,c),
(1232,85,o),
(1225,70,o),
(1225,46,cs),
(1225,29,o),
(1233,0,o),
(1254,0,cs),
(1829,0,ls),
(1852,0,o),
(1866,36,o),
(1868,51,cs),
(1870,81,o),
(1862,85,o),
(1835,88,cs),
(1775,93,o),
(1658,99,o),
(1663,175,cs),
(1733,1267,ls),
(1738,1311,o),
(1842,1326,o),
(1907,1331,c),
(1933,1334,o),
(1942,1347,o),
(1945,1368,cs),
(1945,1383,o),
(1941,1419,o),
(1918,1419,cs),
(1458,1419,l),
(1443,1373,o),
(1418,1326,o),
(1385,1246,c),
(976,376,l),
(964,376,l),
(751,1419,l),
(237,1419,l),
(215,1418,o),
(195,1390,o),
(195,1355,cs),
(195,1337,o),
(204,1333,o),
(227,1331,c),
(296,1326,o),
(419,1320,o),
(419,1245,cs),
(419,1242,o),
(419,1238,o),
(418,1234,cs),
(214,184,ls),
(201,101,o),
(88,93,o),
(12,88,c),
(-18,85,o),
(-23,69,o),
(-23,43,cs),
(-23,26,o),
(-18,0,o),
(1,0,cs)
);
}
);
width = 1899;
},
{
anchors = (
{
name = bottom;
pos = (912,0);
},
{
name = top;
pos = (1195,1419);
}
);
layerId = "BDB4B313-38B1-4B24-B843-560B185382BD";
shapes = (
{
closed = 1;
nodes = (
(484,0,ls),
(506,0,o),
(526,36,o),
(526,63,cs),
(526,82,o),
(517,85,o),
(494,88,c),
(427,93,o),
(314,99,o),
(314,170,cs),
(314,175,o),
(315,180,o),
(316,185,cs),
(518,1281,l),
(554,1281,l),
(848,0,l),
(953,0,l),
(1549,1281,l),
(1588,1281,l),
(1500,152,ls),
(1497,108,o),
(1391,93,o),
(1326,88,c),
(1299,85,o),
(1291,72,o),
(1288,51,cs),
(1286,36,o),
(1293,0,o),
(1315,0,cs),
(1987,0,ls),
(2008,0,o),
(2029,37,o),
(2029,63,cs),
(2029,82,o),
(2020,85,o),
(1997,88,cs),
(1937,93,o),
(1833,99,o),
(1839,185,cs),
(1918,1267,ls),
(1921,1311,o),
(2019,1326,o),
(2084,1331,c),
(2113,1334,o),
(2122,1350,o),
(2122,1376,cs),
(2122,1393,o),
(2117,1419,o),
(2097,1419,cs),
(1499,1419,l),
(1482,1373,o),
(1467,1326,o),
(1430,1246,c),
(1062,468,l),
(1050,468,l),
(880,1419,l),
(239,1419,l),
(218,1418,o),
(195,1387,o),
(195,1355,cs),
(195,1337,o),
(204,1333,o),
(227,1331,c),
(295,1326,o),
(415,1320,o),
(415,1248,cs),
(415,1244,o),
(415,1239,o),
(414,1234,cs),
(218,184,ls),
(201,101,o),
(80,93,o),
(2,88,c),
(-25,85,o),
(-32,72,o),
(-35,51,cs),
(-37,36,o),
(-33,0,o),
(-11,0,cs)
);
}
);
width = 2116;
}
);
unicode = 77;
}
{
glyphname = O;
layers = (
{
anchors = (
{
name = bottom;
pos = (675,0);
},
{
name = center;
pos = (780,710);
},
{
name = ogonek;
pos = (880,10);
},
{
name = top;
pos = (879,1419);
},
{
name = topleft;
pos = (185,1419);
},
{
name = topright;
pos = (1641,1419);
}
);
layerId = "D92FDD0B-F694-41DD-AE46-0E4F694F0F38";
shapes = (
{
closed = 1;
nodes = (
(1147,-29,o),
(1434,373,o),
(1434,812,cs),
(1434,1189,o),
(1222,1449,o),
(849,1449,cs),
(422,1449,o),
(127,1061,o),
(127,621,cs),
(127,243,o),
(347,-29,o),
(721,-29,cs)
);
},
{
closed = 1;
nodes = (
(448,65,o),
(369,257,o),
(369,570,cs),
(369,956,o),
(480,1356,o),
(841,1356,cs),
(1116,1356,o),
(1188,1167,o),
(1188,851,cs),
(1188,467,o),
(1081,65,o),
(723,65,cs)
);
}
);
width = 1496;
},
{
anchors = (
{
name = bottom;
pos = (770,0);
},
{
name = center;
pos = (870,710);
},
{
name = ogonek;
pos = (939,10);
},
{
name = top;
pos = (978,1419);
},
{
name = topleft;
pos = (180,1419);
},
{
name = topright;
pos = (1819,1419);
}
);
layerId = "BDB4B313-38B1-4B24-B843-560B185382BD";
shapes = (
{
closed = 1;
nodes = (
(1310,-29,o),
(1634,392,o),
(1634,840,cs),
(1634,1184,o),
(1431,1449,o),
(965,1449,cs),
(431,1449,o),
(112,1041,o),
(112,592,cs),
(112,245,o),
(312,-29,o),
(764,-29,cs)
);
},
{
closed = 1;
nodes = (
(554,65,o),
(480,227,o),
(480,495,cs),
(480,901,o),
(584,1356,o),
(967,1356,cs),
(1196,1356,o),
(1266,1196,o),
(1266,927,cs),
(1266,522,o),
(1163,65,o),
(790,65,cs)
);
}
);
width = 1679;
}
);
unicode = 79;
}
{
glyphname = S;
layers = (
{
anchors = (
{
name = bottom;
pos = (535,0);
},
{
name = top;
pos = (729,1419);
}
);
layerId = "D92FDD0B-F694-41DD-AE46-0E4F694F0F38";
shapes = (
{
closed = 1;
nodes = (
(70,43,o),
(82,20,o),
(123,20,cs),
(132,20,o),
(146,21,o),
(186,61,cs),
(199,74,o),
(208,85,o),
(219,78,cs),
(288,34,o),
(385,-30,o),
(570,-30,cs),
(855,-30,o),
(1031,153,o),
(1031,369,cs),
(1031,610,o),
(864,717,o),
(711,816,cs),
(581,899,o),
(435,992,o),
(435,1149,cs),
(435,1302,o),
(562,1366,o),
(686,1366,cs),
(853,1366,o),
(964,1250,o),
(980,1050,c),
(980,1040,o),
(997,1028,o),
(1030,1028,cs),
(1051,1028,o),
(1074,1032,o),
(1076,1087,c),
(1073,1208,o),
(1095,1360,o),
(1092,1398,c),
(1092,1416,o),
(1069,1432,o),
(1044,1432,cs),
(1005,1432,o),
(1005,1394,o),
(955,1388,cs),
(937,1386,o),
(932,1390,o),
(930,1391,c),
(868,1420,o),
(792,1449,o),
(677,1449,cs),
(436,1449,o),
(242,1320,o),
(242,1075,cs),
(242,862,o),
(381,769,o),
(548,658,cs),
(697,560,o),
(829,466,o),
(829,294,cs),
(829,168,o),
(725,54,o),
(570,54,cs),
(436,54,o),
(309,113,o),
(257,257,c),
(215,371,o),
(218,444,o),
(214,478,c),
(214,503,o),
(190,520,o),
(158,520,cs),
(137,520,o),
(117,513,o),
(116,471,c),
(116,391,o),
(99,214,o),
(71,72,c,{
name = hr00;
})
);
}
);
width = 1149;
},
{
anchors = (
{
name = bottom;
pos = (609,0);
},
{
name = top;
pos = (830,1419);
}
);
layerId = "BDB4B313-38B1-4B24-B843-560B185382BD";
shapes = (
{
closed = 1;
nodes = (
(81,52,o),
(99,20,o),
(140,20,cs),
(157,20,o),
(175,26,o),
(210,61,cs),
(223,74,o),
(231,84,o),
(243,78,cs),
(385,7,o),
(460,-30,o),
(619,-30,cs),
(1031,-30,o),
(1205,203,o),
(1205,415,cs),
(1205,640,o),
(984,762,o),
(838,843,cs),
(687,928,o),
(540,1015,o),
(540,1168,cs),
(540,1306,o),
(646,1370,o),
(796,1370,cs),
(1087,1370,o),
(1102,1103,o),
(1117,1059,cs),
(1125,1036,o),
(1156,1028,o),
(1181,1028,cs),
(1217,1028,o),
(1229,1045,o),
(1231,1087,cs),
(1238,1244,o),
(1239,1202,o),
(1259,1404,cs),
(1261,1424,o),
(1225,1432,o),
(1206,1432,cs),
(1157,1432,o),
(1167,1377,o),
(1122,1377,cs),
(1116,1377,o),
(1105,1378,o),
(1087,1385,cs),
(1008,1416,o),
(934,1449,o),
(783,1449,cs),
(486,1449,o),
(241,1313,o),
(241,1055,cs),
(241,845,o),
(390,727,o),
(545,630,cs),
(718,521,o),
(892,447,o),
(892,287,cs),
(892,160,o),
(790,59,o),
(609,59,cs),
(463,59,o),
(346,124,o),
(296,277,cs),
(266,369,o),
(273,455,o),
(272,478,c),
(272,502,o),
(242,520,o),
(209,520,cs),
(186,520,o),
(154,511,o),
(154,471,c),
(150,391,o),
(114,215,o),
(85,72,cs)
);
}
);
width = 1337;
}
);
unicode = 83;
}
{
glyphname = bracketright;
layers = (
{
layerId = "D92FDD0B-F694-41DD-AE46-0E4F694F0F38";
shapes = (
{
closed = 1;
nodes = (
(305,1549,l,{
name = hr02;
}),
(291,1453,l),
(545,1453,l),
(290,-216,l),
(36,-216,l),
(23,-313,l),
(467,-313,l),
(748,1549,l,{
name = hr01;
})
);
}
);
width = 768;
},
{
layerId = "BDB4B313-38B1-4B24-B843-560B185382BD";
shapes = (
{
closed = 1;
nodes = (
(300,1549,l),
(286,1453,l),
(535,1453,l),
(285,-216,l),
(36,-216,l),
(23,-313,l),
(574,-313,l),
(853,1549,l)
);
}
);
width = 915;
}
);
unicode = 93;
}
{
glyphname = e;
layers = (
{
anchors = (
{
name = bottom;
pos = (413,0);
},
{
name = ogonek;
pos = (619,10);
},
{
name = top;
pos = (608,994);
}
);
layerId = "D92FDD0B-F694-41DD-AE46-0E4F694F0F38";
shapes = (
{
closed = 1;
nodes = (
(896,894,o),
(833,1014,o),
(613,1014,cs),
(344,1014,o),
(78,746,o),
(78,393,cs),
(78,139,o),
(211,-29,o),
(453,-29,cs),
(623,-29,o),
(742,50,o),
(831,164,c),
(833,170,o),
(841,176,o),
(841,183,cs),
(841,186,o),
(839,188,o),
(836,192,cs),
(826,205,o),
(814,217,o),
(799,225,c),
(790,231,o),
(784,223,o),
(777,215,c),
(683,124,o),
(600,75,o),
(482,75,cs),
(383,75,o),
(295,152,o),
(295,360,cs),
(295,376,o),
(295,392,o),
(295,407,c),
(606,465,o),
(896,589,o),
(896,800,cs,{
name = hr00;
})
);
},
{
closed = 1;
nodes = (
(659,933,o),
(708,901,o),
(709,838,cs),
(712,640,o),
(564,540,o),
(299,484,c),
(326,768,o),
(461,933,o),
(608,933,cs)
);
}
);
width = 966;
},
{
anchors = (
{
name = bottom;
pos = (501,0);
},
{
name = ogonek;
pos = (840,41);
},
{
name = top;
pos = (719,994);
}
);
layerId = "BDB4B313-38B1-4B24-B843-560B185382BD";
shapes = (
{
closed = 1;
nodes = (
(1085,883,o),
(994,1014,o),
(718,1014,cs),
(366,1014,o),
(65,740,o),
(65,381,cs),
(65,133,o),
(239,-29,o),
(537,-29,cs),
(720,-29,o),
(901,39,o),
(1029,164,cs),
(1031,166,o),
(1035,170,o),
(1035,175,cs),
(1035,176,o),
(1034,178,o),
(1034,179,cs),
(1034,195,o),
(1001,231,o),
(991,231,cs),
(986,231,o),
(981,228,o),
(976,225,cs),
(862,158,o),
(764,120,o),
(639,120,cs),
(521,120,o),
(390,173,o),
(390,360,cs),
(390,376,o),
(390,392,o),
(391,407,c),
(758,445,o),
(1085,566,o),
(1085,789,cs)
);
},
{
closed = 1;
nodes = (
(753,933,o),
(778,879,o),
(778,816,cs),
(778,638,o),
(629,534,o),
(396,484,c),
(422,768,o),
(545,933,o),
(668,933,cs)
);
}
);
width = 1141;
}
);
unicode = 101;
}
{
glyphname = h;
layers = (
{
anchors = (
{
name = bottom;
pos = (516,0);
},
{
name = center;
pos = (741,939);
},
{
name = top;
pos = (385,1500);
}
);
layerId = "D92FDD0B-F694-41DD-AE46-0E4F694F0F38";
shapes = (
{
closed = 1;
nodes = (
(253,0,l),
(357,656,l),
(434,753,o),
(586,874,o),
(713,874,cs),
(791,874,o),
(805,844,o),
(805,814,c),
(701,102,l),
(701,57,o),
(709,-13,o),
(825,-13,cs),
(874,-13,o),
(966,10,o),
(1058,41,cs),
(1076,47,o),
(1083,67,o),
(1083,83,cs,{
name = hr03;
}),
(1083,112,o),
(1070,113,o),
(1058,113,cs),
(1038,113,o),
(988,96,o),
(960,96,cs),
(913,96,o),
(899,119,o),
(899,149,c),
(995,766,l),
(1018,926,o),
(956,1014,o),
(791,1014,cs,{
name = hr04;
}),
(604,1014,o),
(437,839,o),
(369,761,c),
(411,1010,l),
(487,1506,l),
(489,1538,o),
(474,1546,o),
(463,1546,cs),
(412,1546,o),
(295,1547,o),
(173,1539,cs),
(157,1538,o),
(141,1511,o),
(141,1495,cs),
(141,1478,o),
(148,1462,o),
(159,1455,c),
(195,1428,o),
(274,1441,o),
(274,1369,cs),
(274,1364,o),
(274,1359,o),
(273,1354,c),
(66,0,l)
);
}
);
width = 1152;
},
{
anchors = (
{
name = bottom;
pos = (616,0);
},
{
name = center;
pos = (868,945);
},
{
name = top;
pos = (445,1478);
}
);
layerId = "BDB4B313-38B1-4B24-B843-560B185382BD";
shapes = (
{
closed = 1;
nodes = (
(378,0,l),
(482,669,l),
(529,716,o),
(639,838,o),
(788,838,cs),
(907,838,o),
(900,769,o),
(900,689,c),
(809,105,l),
(809,59,o),
(834,-13,o),
(994,-13,cs),
(1060,-13,o),
(1150,0,o),
(1271,34,c),
(1289,40,o),
(1296,61,o),
(1296,76,cs),
(1296,94,o),
(1289,114,o),
(1271,114,cs),
(1261,114,o),
(1221,103,o),
(1190,103,cs),
(1155,103,o),
(1129,117,o),
(1133,175,c),
(1226,763,l),
(1246,961,o),
(1126,1014,o),
(986,1014,cs),
(720,1014,o),
(540,832,o),
(489,785,c),
(545,1104,l),
(611,1508,l),
(613,1540,o),
(598,1548,o),
(587,1548,cs),
(506,1548,o),
(347,1550,o),
(157,1538,cs),
(141,1537,o),
(129,1510,o),
(126,1494,c),
(123,1469,o),
(132,1460,o),
(145,1454,c),
(193,1441,o),
(280,1451,o),
(280,1357,cs),
(280,1348,o),
(279,1339,o),
(278,1329,c),
(69,0,l)
);
}
);
width = 1383;
}
);
unicode = 104;
}
{
glyphname = r;
layers = (
{
anchors = (
{
name = bottom;
pos = (209,0);
},
{
name = top;
pos = (593,994);
}
);
background = {
shapes = (
{
closed = 1;
nodes = (
(1030,786,o),
(1032,804,o),
(1032,821,cs),
(1032,981,o),
(930,1014,o),
(824,1014,cs,{
name = hr02;
}),
(639,1014,o),
(478,842,o),
(425,785,c),
(451,957,ls,{
name = hr03;
}),
(456,989,o),
(438,997,o),
(427,997,cs),
(371,997,o),
(253,995,o),
(123,987,cs),
(107,986,o),
(95,959,o),
(93,943,cs),
(90,918,o),
(97,909,o),
(111,903,c),
(155,890,o),
(245,899,o),
(245,806,cs),
(245,797,o),
(245,788,o),
(243,778,cs),
(122,0,l),
(314,0,l),
(423,689,l),
(489,774,o),
(636,874,o),
(746,874,cs,{
name = hr04;
}),
(808,874,o),
(837,861,o),
(837,810,cs),
(837,802,o),
(837,794,o),
(835,784,cs),
(738,142,l,{
name = hr05;
}),
(738,142,o),
(736,124,o),
(736,102,cs),
(736,57,o),
(742,-13,o),
(858,-13,cs),
(907,-13,o),
(1002,-2,o),
(1093,41,cs),
(1110,49,o),
(1118,67,o),
(1118,83,cs,{
name = hr06;
}),
(1118,112,o),
(1105,113,o),
(1093,113,cs),
(1073,113,o),
(1021,96,o),
(993,96,cs),
(947,96,o),
(934,119,o),
(934,151,cs),
(934,159,o),
(935,167,o),
(936,175,c),
(1028,766,l,{
name = hr01;
})
);
}
);
};
layerId = "D92FDD0B-F694-41DD-AE46-0E4F694F0F38";
shapes = (
{
closed = 1;
nodes = (
(464,908,o),
(479,967,o),
(479,967,cs),
(479,991,o),
(464,997,o),
(454,997,cs),
(398,997,o),
(259,995,o),
(111,987,cs),
(95,986,o),
(80,959,o),
(80,933,cs),
(80,916,o),
(88,908,o),
(99,903,c),
(143,890,o),
(266,899,o),
(266,807,cs),
(266,798,o),
(265,789,o),
(263,778,cs),
(140,0,l),
(332,0,l),
(439,661,l),
(501,743,o),
(623,867,o),
(703,867,c,{
name = hr02;
}),
(779,671,l),
(901,671,o),
(940,779,o),
(940,855,cs),
(940,939,o),
(886,1014,o),
(775,1014,cs),
(602,1014,o),
(494,822,o),
(449,767,c)
);
}
);
width = 945;
},
{
anchors = (
{
name = bottom;
pos = (286,0);
},
{
name = top;
pos = (699,994);
}
);
layerId = "BDB4B313-38B1-4B24-B843-560B185382BD";
shapes = (
{
closed = 1;
nodes = (
(568,919,o),
(572,967,o),
(572,967,cs),
(572,991,o),
(557,997,o),
(547,997,cs),
(467,997,o),
(321,999,o),
(135,987,cs),
(119,986,o),
(104,959,o),
(104,933,cs),
(104,916,o),
(112,908,o),
(123,903,c),
(167,890,o),
(258,899,o),
(258,807,cs),
(258,798,o),
(257,789,o),
(255,778,cs),
(132,0,l),
(444,0,l),
(558,721,l),
(605,763,o),
(694,820,o),
(774,820,c),
(828,614,l),
(982,614,o),
(1087,689,o),
(1087,845,cs),
(1087,944,o),
(1033,1014,o),
(913,1014,cs),
(755,1014,o),
(619,885,o),
(558,811,c)
);
}
);
width = 1093;
}
);
unicode = 114;
}
{
glyphname = v;
layers = (
{
anchors = (
{
name = bottom;
pos = (460,0);
},
{
name = top;
pos = (616,994);
}
);
layerId = "D92FDD0B-F694-41DD-AE46-0E4F694F0F38";
shapes = (
{
closed = 1;
nodes = (
(487,-16,o),
(505,-15,o),
(510,-10,cs),
(860,340,o),
(1044,704,o),
(1044,863,cs),
(1044,938,o),
(1004,1014,o),
(918,1014,cs),
(864,1014,o),
(819,980,o),
(819,906,cs),
(819,864,o),
(846,818,o),
(846,750,cs),
(846,565,o),
(665,285,o),
(496,99,c),
(503,124,o),
(536,187,o),
(535,211,cs),
(521,541,o),
(463,760,o),
(405,905,cs),
(375,980,o),
(328,1015,o),
(260,1015,cs),
(182,1015,o),
(87,956,o),
(22,851,cs),
(17,843,o),
(15,835,o),
(15,826,cs),
(15,803,o),
(31,781,o),
(49,781,cs),
(58,781,o),
(65,789,o),
(74,801,cs),
(95,828,o),
(131,867,o),
(163,867,cs),
(178,867,o),
(191,860,o),
(203,840,c,{
name = hr00;
}),
(285,684,o),
(354,375,o),
(376,110,cs),
(381,49,o),
(378,83,o),
(375,26,c),
(373,19,o),
(368,-16,o),
(430,-16,cs)
);
}
);
width = 1102;
},
{
anchors = (
{
name = bottom;
pos = (531,0);
},
{
name = top;
pos = (691,994);
}
);
layerId = "BDB4B313-38B1-4B24-B843-560B185382BD";
shapes = (
{
closed = 1;
nodes = (
(509,-24,o),
(509,-24,o),
(515,-23,cs),
(716,11,o),
(1187,409,o),
(1187,761,cs),
(1187,880,o),
(1135,1014,o),
(1005,1014,cs),
(906,1014,o),
(845,952,o),
(845,874,cs),
(845,755,o),
(907,689,o),
(907,580,cs),
(907,353,o),
(683,145,o),
(545,95,c),
(583,141,o),
(615,237,o),
(615,278,cs),
(615,470,o),
(600,739,o),
(493,903,cs),
(443,980,o),
(383,1014,o),
(301,1014,cs),
(179,1014,o),
(65,969,o),
(-7,864,c),
(-11,856,o),
(-13,847,o),
(-13,839,cs),
(-13,805,o),
(9,793,o),
(23,793,cs),
(34,793,o),
(44,799,o),
(52,807,cs),
(78,833,o),
(94,832,o),
(115,832,cs),
(138,832,o),
(153,818,o),
(165,799,cs),
(266,639,o),
(335,341,o),
(335,91,cs),
(335,57,o),
(334,34,o),
(334,22,cs),
(334,-13,o),
(361,-24,o),
(452,-24,cs)
);
}
);
width = 1254;
}
);
unicode = 118;
userData = {
com.typemytype.robofont.mark = (
0.6,
0.609,
1,
1
);
};
}
{
glyphname = y;
layers = (
{
anchors = (
{
name = bottom;
pos = (845,0);
},
{
name = top;
pos = (657,994);
}
);
layerId = "D92FDD0B-F694-41DD-AE46-0E4F694F0F38";
shapes = (
{
closed = 1;
nodes = (
(293,-449,o),
(455,-251,o),
(560,-105,cs),
(845,291,o),
(1075,627,o),
(1075,863,cs),
(1075,940,o),
(1044,1014,o),
(955,1014,cs),
(904,1014,o),
(859,985,o),
(859,904,cs),
(859,845,o),
(871,814,o),
(871,750,cs),
(871,545,o),
(710,241,o),
(567,55,c),
(567,70,o),
(567,91,o),
(566,115,cs),
(556,365,o),
(510,730,o),
(433,905,cs),
(394,994,o),
(349,1015,o),
(284,1015,cs),
(220,1015,o),
(116,962,o),
(52,851,c),
(47,841,o),
(45,832,o),
(45,824,cs),
(45,802,o),
(62,780,o),
(78,780,cs),
(88,780,o),
(95,789,o),
(104,801,cs),
(122,825,o),
(162,867,o),
(196,867,cs),
(210,867,o),
(223,860,o),
(233,840,cs),
(318,671,o),
(396,338,o),
(396,33,cs),
(396,-9,o),
(438,-9,o),
(522,-9,c),
(449,-104,o),
(422,-146,o),
(320,-236,cs,{
name = hr00;
}),
(265,-285,o),
(207,-278,o),
(95,-278,cs),
(19,-278,o),
(-55,-303,o),
(-55,-373,cs),
(-55,-403,o),
(-30,-449,o),
(71,-449,cs)
);
}
);
width = 1146;
},
{
anchors = (
{
name = bottom;
pos = (1027,0);
},
{
name = top;
pos = (788,994);
}
);
layerId = "BDB4B313-38B1-4B24-B843-560B185382BD";
shapes = (
{
closed = 1;
nodes = (
(428,-449,o),
(659,-208,o),
(834,0,cs),
(999,197,o),
(1283,460,o),
(1283,761,cs),
(1283,880,o),
(1230,1014,o),
(1100,1014,cs),
(1001,1014,o),
(941,952,o),
(941,874,cs),
(941,755,o),
(1012,689,o),
(1012,580,cs),
(1012,359,o),
(752,52,o),
(699,-11,c),
(702,32,o),
(698,100,o),
(698,146,cs),
(698,378,o),
(622,761,o),
(538,903,cs),
(495,983,o),
(433,1014,o),
(349,1014,cs),
(283,1014,o),
(138,970,o),
(69,845,c),
(65,837,o),
(63,828,o),
(63,820,cs),
(63,786,o),
(83,768,o),
(96,768,cs),
(106,768,o),
(116,778,o),
(123,788,cs),
(141,813,o),
(158,832,o),
(177,832,cs),
(196,832,o),
(221,815,o),
(235,801,cs),
(307,728,o),
(424,378,o),
(424,64,cs),
(424,-4,o),
(473,-28,o),
(683,-28,c),
(636,-75,o),
(511,-230,o),
(395,-230,cs),
(342,-230,o),
(292,-212,o),
(216,-212,cs),
(141,-212,o),
(80,-255,o),
(80,-328,cs),
(80,-412,o),
(163,-449,o),
(246,-449,cs)
);
}
);
width = 1371;
}
);
unicode = 121;
userData = {
com.typemytype.robofont.mark = (
0.6,
0.609,
1,
1
);
};
}
{
glyphname = braceleft;
layers = (
{
layerId = "D92FDD0B-F694-41DD-AE46-0E4F694F0F38";
shapes = (
{
closed = 1;
nodes = (
(230,-33,o),
(229,-50,o),
(229,-65,cs),
(229,-250,o),
(397,-313,o),
(526,-313,cs),
(648,-313,l),
(662,-226,l),
(540,-226,ls),
(448,-226,o),
(422,-161,o),
(422,-94,cs),
(422,-82,o),
(423,-71,o),
(425,-59,cs),
(489,348,ls),
(491,362,o),
(492,375,o),
(492,387,cs),
(492,524,o),
(367,590,o),
(214,616,c),
(390,643,o),
(543,723,o),
(568,886,cs),
(631,1293,ls),
(643,1369,o),
(696,1462,o),
(804,1462,cs),
(917,1462,l),
(931,1549,l),
(818,1549,ls),
(678,1549,o),
(457,1472,o),
(424,1250,cs),
(366,863,ls),
(350,754,o),
(239,672,o),
(114,672,cs),
(84,672,l),
(68,562,l),
(98,562,ls),
(212,562,o),
(295,493,o),
(295,398,cs),
(295,389,o),
(294,380,o),
(293,371,cs),
(233,-16,ls,{
name = hr00;
})
);
}
);
width = 881;
},
{
layerId = "BDB4B313-38B1-4B24-B843-560B185382BD";
shapes = (
{
closed = 1;
nodes = (
(236,-35,o),
(235,-53,o),
(235,-70,cs),
(235,-251,o),
(385,-315,o),
(513,-315,cs),
(762,-315,l),
(776,-228,l),
(657,-228,ls),
(566,-228,o),
(546,-162,o),
(546,-95,cs),
(546,-83,o),
(547,-71,o),
(549,-59,cs),
(610,348,ls),
(612,363,o),
(613,378,o),
(613,392,cs),
(613,525,o),
(500,591,o),
(348,616,c),
(526,643,o),
(666,723,o),
(691,886,cs),
(753,1293,ls),
(765,1370,o),
(821,1462,o),
(927,1462,cs),
(1030,1462,l),
(1043,1549,l),
(810,1549,ls),
(670,1549,o),
(464,1472,o),
(431,1250,cs),
(373,863,ls),
(357,754,o),
(244,672,o),
(119,672,cs),
(89,672,l),
(72,562,l),
(102,562,ls),
(216,562,o),
(300,494,o),
(300,399,cs),
(300,390,o),
(300,381,o),
(298,371,cs),
(239,-16,ls)
);
}
);
width = 1024;
}
);
unicode = 123;
}
{
glyphname = braceright;
layers = (
{
layerId = "D92FDD0B-F694-41DD-AE46-0E4F694F0F38";
shapes = (
{
closed = 1;
nodes = (
(696,1268,o),
(697,1285,o),
(697,1301,cs),
(697,1484,o),
(522,1549,o),
(393,1549,cs),
(280,1549,l),
(266,1462,l),
(379,1462,ls),
(471,1462,o),
(501,1394,o),
(501,1327,cs),
(501,1316,o),
(501,1304,o),
(499,1293,c),
(435,886,l),
(433,872,o),
(432,859,o),
(432,847,cs),
(432,710,o),
(552,644,o),
(705,618,c),
(529,591,o),
(380,511,o),
(355,348,cs),
(293,-59,ls),
(281,-135,o),
(229,-228,o),
(121,-228,cs),
(9,-228,l),
(-5,-315,l),
(108,-315,ls),
(247,-315,o),
(468,-238,o),
(503,-16,c),
(561,371,ls),
(577,480,o),
(679,562,o),
(804,562,cs),
(834,562,l),
(851,672,l),
(821,672,ls),
(707,672,o),
(630,740,o),
(630,835,cs),
(630,844,o),
(630,853,o),
(632,863,c),
(693,1250,l,{
name = hr00;
})
);
}
);
width = 881;
},
{
layerId = "BDB4B313-38B1-4B24-B843-560B185382BD";
shapes = (
{
closed = 1;
nodes = (
(837,1272,o),
(839,1293,o),
(839,1312,cs),
(839,1487,o),
(682,1549,o),
(556,1549,cs),
(309,1549,l),
(296,1462,l),
(409,1462,ls),
(499,1462,o),
(528,1398,o),
(528,1332,cs),
(528,1319,o),
(527,1306,o),
(525,1293,c),
(462,886,l),
(459,869,o),
(457,852,o),
(457,837,cs),
(457,707,o),
(562,643,o),
(711,618,c),
(534,591,o),
(405,511,o),
(381,348,cs),
(320,-59,ls),
(309,-135,o),
(251,-228,o),
(144,-228,cs),
(44,-228,l),
(31,-315,l),
(257,-315,ls),
(397,-315,o),
(602,-238,o),
(644,-16,c),
(701,371,ls),
(717,480,o),
(813,562,o),
(938,562,cs),
(968,562,l),
(988,672,l),
(958,672,ls),
(846,672,o),
(771,738,o),
(771,831,cs),
(771,841,o),
(772,852,o),
(774,863,c),
(833,1250,l)
);
}
);
width = 1024;
}
);
unicode = 125;
}
{
glyphname = degree;
layers = (
{
layerId = "D92FDD0B-F694-41DD-AE46-0E4F694F0F38";
shapes = (
{
closed = 1;
nodes = (
(115,912,o),
(252,774,o),
(454,774,cs),
(656,774,o),
(795,912,o),
(795,1113,cs),
(795,1314,o),
(660,1450,o),
(458,1450,cs),
(256,1450,o),
(115,1314,o),
(115,1113,cs,{
name = hr00;
})
);
},
{
closed = 1;
nodes = (
(257,1266,o),
(334,1340,o),
(453,1340,cs),
(571,1340,o),
(653,1266,o),
(653,1113,cs),
(653,960,o),
(574,884,o),
(456,884,cs),
(337,884,o),
(257,960,o),
(257,1113,cs)
);
}
);
width = 859;
},
{
layerId = "BDB4B313-38B1-4B24-B843-560B185382BD";
shapes = (
{
closed = 1;
nodes = (
(105,908,o),
(245,767,o),
(451,767,cs),
(657,767,o),
(799,908,o),
(799,1113,cs),
(799,1318,o),
(661,1457,o),
(455,1457,cs),
(249,1457,o),
(105,1318,o),
(105,1113,cs)
);
},
{
closed = 1;
nodes = (
(264,1259,o),
(337,1329,o),
(450,1329,cs),
(562,1329,o),
(640,1259,o),
(640,1113,cs),
(640,967,o),
(565,895,o),
(453,895,cs),
(340,895,o),
(264,967,o),
(264,1113,cs)
);
}
);
width = 860;
}
);
unicode = 176;
}
{
glyphname = paragraph;
layers = (
{
layerId = "D92FDD0B-F694-41DD-AE46-0E4F694F0F38";
shapes = (
{
closed = 1;
nodes = (
(385,-287,l),
(672,1302,l),
(892,1302,l),
(605,-287,l),
(897,-287,ls),
(916,-287,o),
(942,-254,o),
(942,-224,cs),
(942,-210,o),
(936,-201,o),
(916,-199,c),
(852,-194,o),
(773,-179,o),
(782,-135,cs),
(1026,1234,ls),
(1043,1320,o),
(1105,1326,o),
(1167,1331,cs),
(1196,1334,o),
(1211,1341,o),
(1211,1378,cs),
(1211,1395,o),
(1205,1419,o),
(1186,1419,cs),
(663,1421,l),
(359,1421,o),
(132,1214,o),
(132,915,cs),
(132,745,o),
(238,622,o),
(399,575,c),
(269,-102,ls),
(253,-188,o),
(163,-194,o),
(99,-199,c,{
name = hr00;
}),
(63,-203,o),
(62,-208,o),
(54,-246,c),
(54,-263,o),
(60,-287,o),
(79,-287,cs)
);
}
);
width = 1024;
},
{
layerId = "BDB4B313-38B1-4B24-B843-560B185382BD";
shapes = (
{
closed = 1;
nodes = (
(497,-287,l),
(737,1302,l),
(917,1302,l),
(677,-287,l),
(1029,-287,ls),
(1055,-287,o),
(1074,-258,o),
(1074,-233,cs),
(1074,-216,o),
(1065,-201,o),
(1043,-199,cs),
(986,-194,o),
(916,-181,o),
(916,-140,cs),
(1119,1234,ls),
(1132,1320,o),
(1194,1325,o),
(1255,1331,cs),
(1283,1333,o),
(1297,1353,o),
(1297,1389,cs),
(1297,1406,o),
(1291,1419,o),
(1271,1419,cs),
(698,1421,ls),
(407,1431,o),
(139,1271,o),
(139,935,cs),
(139,769,o),
(237,646,o),
(396,589,c),
(294,-102,ls),
(281,-188,o),
(182,-194,o),
(109,-199,cs),
(81,-201,o),
(67,-207,o),
(67,-242,cs),
(67,-259,o),
(74,-287,o),
(94,-287,cs)
);
}
);
width = 1274;
}
);
unicode = 182;
userData = {
com.typemytype.robofont.mark = (
0.6,
0.609,
1,
1
);
};
}
{
glyphname = cedilla;
kernLeft = cedilla;
kernRight = cedilla;
layers = (
{
background = {
shapes = (
{
closed = 1;
nodes = (
(-452,18,l),
(-559,18,l),
(-599,-144,l),
(-598,-144,l),
(-599,-145,l),
(-599,-145,o),
(-453,-152,o),
(-453,-238,cs),
(-453,-292,o),
(-487,-305,o),
(-546,-305,cs),
(-590,-305,o),
(-628,-292,o),
(-666,-292,cs),
(-679,-292,o),
(-690,-293,o),
(-698,-297,cs),
(-713,-304,o),
(-747,-337,o),
(-747,-363,cs),
(-747,-378,o),
(-718,-396,o),
(-680,-409,cs),
(-623,-428,o),
(-589,-436,o),
(-539,-436,cs),
(-443,-436,o),
(-305,-385,o),
(-305,-258,cs),
(-305,-156,o),
(-404,-117,o),
(-487,-105,c)
);
},
{
closed = 1;
nodes = (
(-361,-485,o),
(-223,-417,o),
(-223,-283,cs),
(-223,-215,o),
(-258,-172,o),
(-377,-138,c,{
name = hr03;
}),
(-317,18,l),
(-474,18,l,{
name = hr01;
}),
(-550,-191,l),
(-431,-192,o),
(-359,-223,o),
(-359,-283,cs,{
name = hr02;
}),
(-359,-348,o),
(-426,-381,o),
(-526,-381,cs),
(-569,-381,o),
(-617,-376,o),
(-669,-363,cs),
(-698,-356,o),
(-715,-412,o),
(-715,-435,cs),
(-715,-445,o),
(-710,-451,o),
(-699,-455,cs),
(-664,-468,o),
(-605,-485,o),
(-496,-485,cs)
);
},
{
closed = 1;
nodes = (
(238,-476,o),
(367,-388,o),
(367,-269,cs),
(367,-190,o),
(300,-141,o),
(183,-129,c,{
name = hr03;
}),
(244,18,l),
(127,18,l,{
name = hr01;
}),
(61,-191,l),
(135,-191,o),
(201,-219,o),
(201,-272,cs,{
name = hr02;
}),
(201,-332,o),
(148,-363,o),
(55,-363,cs),
(16,-363,o),
(-18,-358,o),
(-65,-347,cs),
(-91,-340,o),
(-135,-403,o),
(-135,-426,cs),
(-135,-436,o),
(-130,-442,o),
(-119,-446,cs),
(-84,-459,o),
(-25,-476,o),
(84,-476,cs)
);
},
{
closed = 1;
nodes = (
(265,-488,o),
(366,-371,o),
(366,-271,cs),
(366,-194,o),
(301,-139,o),
(182,-130,c,{
name = hr03;
}),
(242,18,l),
(125,18,l,{
name = hr01;
}),
(59,-191,l),
(148,-189,o),
(200,-229,o),
(200,-271,cs),
(200,-331,o),
(140,-374,o),
(68,-374,cs),
(6,-374,o),
(-29,-357,o),
(-50,-349,cs),
(-61,-345,o),
(-65,-346,o),
(-73,-356,cs),
(-84,-370,o),
(-100,-397,o),
(-114,-417,cs),
(-119,-424,o),
(-120,-434,o),
(-113,-439,cs),
(-80,-463,o),
(-20,-488,o),
(74,-488,cs)
);
}
);
};
layerId = "D92FDD0B-F694-41DD-AE46-0E4F694F0F38";
shapes = (
{
pos = (20,0);
ref = cedillacomb;
}
);
width = 502;
},
{
background = {
shapes = (
{
closed = 1;
nodes = (
(-789,-438,o),
(-698,-368,o),
(-698,-279,cs),
(-698,-185,o),
(-767,-114,o),
(-915,-91,c,{
name = hr03;
}),
(-885,18,l),
(-1042,18,l,{
name = hr01;
}),
(-1082,-144,l),
(-1080,-144,l),
(-1082,-145,l),
(-961,-177,o),
(-943,-214,o),
(-943,-258,cs,{
name = hr02;
}),
(-943,-313,o),
(-1029,-332,o),
(-1173,-316,cs),
(-1200,-313,o),
(-1209,-354,o),
(-1209,-380,cs),
(-1209,-395,o),
(-1204,-403,o),
(-1189,-408,cs),
(-1153,-420,o),
(-1091,-438,o),
(-982,-438,cs)
);
},
{
closed = 1;
nodes = (
(-936,-466,o),
(-776,-404,o),
(-776,-276,cs),
(-776,-199,o),
(-826,-147,o),
(-953,-119,c,{
name = hr03;
}),
(-895,18,l),
(-1052,18,l,{
name = hr01;
}),
(-1131,-209,l),
(-1050,-209,o),
(-974,-222,o),
(-974,-281,cs,{
name = hr02;
}),
(-974,-334,o),
(-1028,-362,o),
(-1110,-362,cs),
(-1145,-362,o),
(-1193,-357,o),
(-1245,-344,cs),
(-1274,-337,o),
(-1291,-393,o),
(-1291,-416,cs),
(-1291,-426,o),
(-1286,-432,o),
(-1275,-436,cs),
(-1240,-449,o),
(-1181,-466,o),
(-1072,-466,cs)
);
},
{
closed = 1;
nodes = (
(-1525,-497,o),
(-1377,-409,o),
(-1377,-271,cs),
(-1377,-181,o),
(-1462,-127,o),
(-1587,-111,c,{
name = hr03;
}),
(-1521,19,l),
(-1678,19,l,{
name = hr01;
}),
(-1758,-201,l),
(-1629,-199,o),
(-1583,-244,o),
(-1583,-283,cs,{
name = hr02;
}),
(-1583,-344,o),
(-1644,-373,o),
(-1707,-373,cs),
(-1777,-373,o),
(-1819,-356,o),
(-1856,-341,cs),
(-1866,-337,o),
(-1870,-341,o),
(-1875,-349,cs),
(-1886,-367,o),
(-1910,-404,o),
(-1917,-416,cs),
(-1922,-425,o),
(-1921,-431,o),
(-1914,-436,cs),
(-1887,-455,o),
(-1808,-497,o),
(-1678,-497,cs)
);
},
{
closed = 1;
nodes = (
(296,-523,o),
(446,-435,o),
(446,-299,cs),
(446,-223,o),
(357,-143,o),
(227,-131,c,{
name = hr03;
}),
(290,18,l),
(133,18,l,{
name = hr01;
}),
(51,-211,l),
(123,-211,o),
(191,-232,o),
(191,-285,cs,{
name = hr02;
}),
(191,-341,o),
(143,-366,o),
(70,-366,cs),
(39,-366,o),
(-4,-361,o),
(-50,-350,cs),
(-75,-344,o),
(-111,-425,o),
(-111,-448,cs),
(-111,-458,o),
(-106,-464,o),
(-95,-468,cs),
(-60,-481,o),
(6,-523,o),
(147,-523,cs)
);
},
{
closed = 1;
nodes = (
(286,-497,o),
(434,-409,o),
(434,-271,cs),
(434,-181,o),
(351,-127,o),
(228,-111,c,{
name = hr03;
}),
(290,19,l),
(133,19,l,{
name = hr01;
}),
(53,-201,l),
(182,-199,o),
(228,-244,o),
(228,-283,cs,{
name = hr02;
}),
(228,-344,o),
(167,-373,o),
(104,-373,cs),
(34,-373,o),
(-8,-356,o),
(-45,-341,cs),
(-55,-337,o),
(-59,-341,o),
(-64,-349,cs),
(-75,-367,o),
(-99,-404,o),
(-106,-416,cs),
(-110,-425,o),
(-110,-431,o),
(-103,-436,cs),
(-75,-453,o),
(3,-497,o),
(133,-497,cs)
);
}
);
};
layerId = "BDB4B313-38B1-4B24-B843-560B185382BD";
shapes = (
{
pos = (29,0);
ref = cedillacomb;
}
);
width = 562;
}
);
unicode = 184;
}
{
glyphname = guillemetright;
layers = (
{
layerId = "D92FDD0B-F694-41DD-AE46-0E4F694F0F38";
shapes = (
{
closed = 1;
nodes = (
(1113,432,l),
(1130,551,l,{
name = hr00;
}),
(657,986,l),
(636,862,l),
(934,502,l),
(541,161,l),
(520,15,l)
);
},
{
closed = 1;
nodes = (
(621,432,l),
(638,551,l,{
name = hr00;
}),
(165,986,l),
(144,862,l),
(442,502,l),
(49,161,l),
(28,15,l)
);
}
);
width = 1190;
},
{
layerId = "BDB4B313-38B1-4B24-B843-560B185382BD";
shapes = (
{
closed = 1;
nodes = (
(1169,454,l),
(1186,573,l),
(713,998,l),
(682,854,l),
(910,524,l),
(607,203,l),
(576,27,l)
);
},
{
closed = 1;
nodes = (
(617,454,l),
(634,573,l),
(161,998,l),
(130,854,l),
(358,524,l),
(55,203,l),
(24,27,l)
);
}
);
width = 1250;
}
);
unicode = 187;
}
{
glyphname = AE;
layers = (
{
anchors = (
{
name = bottom;
pos = (884,0);
},
{
name = top;
pos = (1087,1419);
}
);
background = {
shapes = (
{
closed = 1;
nodes = (
(1427,687,ls),
(1483,687,o),
(1498,546,o),
(1499,503,c),
(1497,477,o),
(1528,470,o),
(1549,470,cs),
(1564,470,o),
(1592,481,o),
(1596,504,c),
(1646,947,l),
(1650,970,o),
(1622,981,o),
(1607,981,cs),
(1586,981,o),
(1557,974,o),
(1553,948,c),
(1544,908,o),
(1494,780,o),
(1441,773,c),
(1062,773,l),
(1062,687,l,{
name = hr00;
})
);
},
{
closed = 1;
nodes = (
(1645,1331,ls),
(1783,1331,o),
(1815,1136,o),
(1813,1095,c),
(1815,1069,o),
(1835,1062,o),
(1856,1062,cs),
(1871,1062,o),
(1898,1073,o),
(1899,1096,cs),
(1913,1419,l),
(874,1419,ls),
(849,1419,o),
(832,1382,o),
(832,1353,cs),
(832,1336,o),
(841,1333,o),
(863,1331,cs),
(923,1326,o),
(1033,1320,o),
(1024,1234,c),
(864,152,l),
(860,108,o),
(766,93,o),
(701,88,c),
(676,85,o),
(667,72,o),
(667,51,c),
(664,36,o),
(671,0,o),
(694,0,cs),
(1823,0,l),
(1918,372,l),
(1919,395,o),
(1902,406,o),
(1877,406,cs),
(1856,406,o),
(1837,398,o),
(1828,373,c),
(1815,332,o),
(1710,97,o),
(1546,97,cs),
(1155,97,l),
(1115,101,o),
(1075,117,o),
(1075,174,c),
(1242,1331,l)
);
}
);
};
layerId = "D92FDD0B-F694-41DD-AE46-0E4F694F0F38";
shapes = (
{
closed = 1;
nodes = (
(386,0,ls),
(409,0,o),
(423,36,o),
(424,51,cs),
(425,72,o),
(421,85,o),
(395,88,c),
(282,92,o),
(228,101,o),
(228,140,cs),
(228,145,o),
(231,152,o),
(236,159,c),
(420,495,l),
(918,495,l),
(872,152,ls),
(866,108,o),
(768,93,o),
(719,88,cs),
(691,85,o),
(682,70,o),
(682,46,cs),
(682,30,o),
(691,0,o),
(712,0,cs),
(1823,0,l),
(1918,372,l),
(1918,395,o),
(1904,406,o),
(1879,406,cs),
(1858,406,o),
(1828,398,o),
(1821,373,c),
(1807,332,o),
(1732,101,o),
(1558,101,cs),
(1177,101,ls),
(1128,101,o),
(1089,114,o),
(1089,175,c),
(1157,687,l),
(1431,687,ls),
(1487,687,o),
(1500,546,o),
(1498,503,cs),
(1497,477,o),
(1531,470,o),
(1552,470,cs),
(1567,470,o),
(1594,481,o),
(1596,504,cs),
(1644,947,l),
(1648,970,o),
(1622,981,o),
(1607,981,cs),
(1586,981,o),
(1553,974,o),
(1547,948,cs),
(1538,908,o),
(1498,773,o),
(1446,773,cs),
(1168,773,l),
(1242,1331,l),
(1635,1332,ls),
(1781,1332,o),
(1813,1150,o),
(1813,1096,cs),
(1813,1068,o),
(1834,1061,o),
(1856,1061,cs),
(1871,1061,o),
(1899,1072,o),
(1902,1095,c),
(1913,1419,l),
(499,1419,ls),
(476,1419,o),
(463,1393,o),
(463,1378,cs),
(463,1348,o),
(476,1331,o),
(504,1331,cs),
(772,1331,l),
(95,165,ls),
(69,120,o),
(14,93,o),
(-74,88,cs),
(-101,86,o),
(-107,81,o),
(-111,51,cs),
(-113,36,o),
(-109,0,o),
(-87,0,cs)
);
},
{
closed = 1;
nodes = (
(888,1331,l),
(1029,1331,l),
(929,581,l),
(470,581,l)
);
}
);
width = 1988;
},
{
anchors = (
{
name = bottom;
pos = (1031,0);
},
{
name = top;
pos = (1258,1419);
}
);
background = {
shapes = (
{
closed = 1;
nodes = (
(1653,682,ls),
(1710,682,o),
(1725,546,o),
(1724,503,c),
(1722,477,o),
(1759,470,o),
(1790,470,cs),
(1805,470,o),
(1833,481,o),
(1837,504,cs),
(1907,947,ls),
(1911,970,o),
(1885,981,o),
(1870,981,cs),
(1841,981,o),
(1802,974,o),
(1794,948,cs),
(1782,908,o),
(1724,785,o),
(1671,778,c),
(1227,778,l),
(1229,682,l)
);
},
{
closed = 1;
nodes = (
(1874,1331,ls),
(2021,1331,o),
(2034,1144,o),
(2034,1103,cs),
(2034,1077,o),
(2062,1070,o),
(2083,1070,cs),
(2101,1070,o),
(2134,1081,o),
(2138,1104,c),
(2163,1419,l),
(965,1419,ls),
(941,1419,o),
(921,1381,o),
(921,1353,cs),
(921,1336,o),
(930,1333,o),
(952,1331,cs),
(1009,1326,o),
(1114,1321,o),
(1114,1247,c),
(953,152,l),
(947,108,o),
(843,93,o),
(778,88,c),
(751,85,o),
(742,72,o),
(740,51,c),
(737,36,o),
(744,0,o),
(767,0,cs),
(2079,0,l),
(2148,372,l),
(2149,395,o),
(2126,406,o),
(2089,406,cs),
(2068,406,o),
(2039,398,o),
(2031,373,c),
(2016,332,o),
(1923,101,o),
(1759,101,cs),
(1386,101,l),
(1347,105,o),
(1309,120,o),
(1309,176,c),
(1471,1331,l)
);
}
);
};
layerId = "BDB4B313-38B1-4B24-B843-560B185382BD";
shapes = (
{
closed = 1;
nodes = (
(329,0,ls),
(352,0,o),
(372,29,o),
(372,51,cs),
(372,73,o),
(369,85,o),
(344,88,c),
(239,88,o),
(203,127,o),
(203,167,cs),
(203,180,o),
(205,192,o),
(213,204,cs),
(371,429,l),
(1001,429,l),
(963,152,l),
(953,108,o),
(905,93,o),
(840,88,cs),
(812,86,o),
(803,71,o),
(803,48,cs),
(803,32,o),
(811,0,o),
(833,0,cs),
(2085,1,l),
(2148,372,ls),
(2152,395,o),
(2126,406,o),
(2101,406,cs),
(2080,406,o),
(2040,398,o),
(2031,373,cs),
(1986,249,o),
(1893,101,o),
(1759,101,cs),
(1408,101,ls),
(1366,101,o),
(1313,114,o),
(1313,174,c),
(1392,682,l),
(1655,682,ls),
(1712,682,o),
(1727,546,o),
(1726,503,c),
(1724,477,o),
(1761,470,o),
(1792,470,cs),
(1807,470,o),
(1835,481,o),
(1839,504,cs),
(1909,947,ls),
(1913,970,o),
(1887,981,o),
(1872,981,cs),
(1843,981,o),
(1804,974,o),
(1796,948,cs),
(1784,908,o),
(1726,785,o),
(1673,778,c),
(1407,778,l),
(1495,1331,l),
(1897,1332,ls),
(2029,1332,o),
(2057,1181,o),
(2057,1118,cs),
(2057,1083,o),
(2059,1070,o),
(2103,1070,cs),
(2118,1070,o),
(2158,1081,o),
(2161,1104,c),
(2186,1418,l),
(595,1419,ls),
(572,1419,o),
(555,1389,o),
(555,1363,cs),
(555,1342,o),
(569,1331,o),
(592,1331,c),
(875,1321,l),
(58,199,ls),
(4,124,o),
(-74,92,o),
(-126,88,cs),
(-147,86,o),
(-163,77,o),
(-163,51,cs),
(-163,36,o),
(-161,0,o),
(-139,0,cs)
);
},
{
closed = 1;
nodes = (
(989,1320,l),
(1143,1320,l),
(1013,515,l),
(420,515,l)
);
}
);
width = 2201;
}
);
unicode = 198;
}
{
glyphname = Thorn;
layers = (
{
anchors = (
{
name = bottom;
pos = (555,0);
},
{
name = top;
pos = (633,1700);
}
);
layerId = "D92FDD0B-F694-41DD-AE46-0E4F694F0F38";
shapes = (
{
closed = 1;
nodes = (
(558,0,ls),
(581,0,o),
(596,36,o),
(597,51,c),
(600,81,o),
(592,85,o),
(565,88,cs),
(508,94,o),
(423,98,o),
(423,172,c),
(438,300,l),
(601,300,ls),
(922,300,o),
(1208,465,o),
(1208,781,cs),
(1208,1072,o),
(1031,1164,o),
(715,1164,cs),
(572,1164,l),
(584,1267,l),
(593,1311,o),
(674,1326,o),
(739,1331,c),
(764,1334,o),
(776,1347,o),
(777,1368,cs),
(778,1383,o),
(774,1419,o),
(751,1419,cs),
(246,1419,ls),
(224,1419,o),
(203,1388,o),
(203,1353,cs),
(203,1336,o),
(212,1333,o),
(235,1331,cs),
(302,1325,o),
(387,1312,o),
(375,1234,cs),
(213,152,l),
(210,108,o),
(126,93,o),
(61,88,c),
(34,85,o),
(26,70,o),
(26,47,cs,{
name = hr00;
}),
(26,31,o),
(32,0,o),
(53,0,cs)
);
},
{
closed = 1;
nodes = (
(904,1076,o),
(982,989,o),
(982,764,cs),
(982,506,o),
(813,386,o),
(585,386,cs),
(449,386,l),
(563,1076,l),
(698,1076,ls)
);
}
);
width = 1258;
},
{
anchors = (
{
name = bottom;
pos = (651,0);
},
{
name = top;
pos = (592,1700);
}
);
layerId = "BDB4B313-38B1-4B24-B843-560B185382BD";
shapes = (
{
closed = 1;
nodes = (
(753,0,ls),
(776,0,o),
(792,24,o),
(792,51,cs),
(792,71,o),
(790,85,o),
(763,88,cs),
(708,94,o),
(556,98,o),
(556,165,c),
(575,300,l),
(664,300,ls),
(1082,300,o),
(1413,472,o),
(1413,797,cs),
(1413,1035,o),
(1281,1164,o),
(803,1164,cs),
(704,1164,l),
(719,1267,l),
(727,1311,o),
(809,1326,o),
(875,1331,c),
(899,1334,o),
(914,1347,o),
(914,1378,cs),
(914,1395,o),
(907,1419,o),
(888,1419,cs),
(263,1419,ls),
(240,1419,o),
(220,1394,o),
(220,1377,cs),
(220,1347,o),
(223,1334,o),
(251,1331,cs),
(310,1325,o),
(402,1321,o),
(392,1255,c),
(225,152,l),
(216,108,o),
(147,93,o),
(78,88,c),
(51,85,o),
(38,72,o),
(38,51,cs),
(38,25,o),
(44,0,o),
(67,0,cs)
);
},
{
closed = 1;
nodes = (
(982,1076,o),
(1046,962,o),
(1046,786,cs),
(1046,507,o),
(913,386,o),
(719,386,cs),
(588,386,l),
(691,1076,l),
(779,1076,ls)
);
}
);
width = 1450;
}
);
unicode = 222;
}
{
color = 9;
glyphname = Oopen;
layers = (
{
anchors = (
{
name = bottom;
pos = (455,0);
},
{
name = top;
pos = (698,1419);
}
);
layerId = "D92FDD0B-F694-41DD-AE46-0E4F694F0F38";
shapes = (
{
closed = 1;
nodes = (
(983,-22,o),
(1247,451,o),
(1247,842,cs),
(1247,1235,o),
(930,1446,o),
(640,1446,cs),
(405,1446,o),
(309,1389,o),
(238,1358,c),
(178,1039,l),
(174,1015,o),
(215,1007,o),
(229,1007,cs),
(247,1007,o),
(270,1014,o),
(280,1036,c),
(338,1253,o),
(423,1350,o),
(623,1350,cs),
(797,1350,o),
(1018,1241,o),
(1018,917,cs),
(1018,605,o),
(842,73,o),
(491,73,cs),
(196,73,o),
(196,208,o),
(196,381,c),
(194,407,o),
(188,414,o),
(166,414,cs),
(151,414,o),
(93,404,o),
(89,383,cs),
(41,116,l),
(42,88,o),
(195,-22,o),
(454,-22,cs,{
name = hr00;
})
);
}
);
width = 1308;
},
{
anchors = (
{
name = bottom;
pos = (551,0);
},
{
name = top;
pos = (764,1419);
}
);
layerId = "BDB4B313-38B1-4B24-B843-560B185382BD";
shapes = (
{
closed = 1;
nodes = (
(1175,-27,o),
(1423,488,o),
(1423,850,cs),
(1423,1216,o),
(1147,1449,o),
(729,1449,cs),
(464,1449,o),
(301,1392,o),
(228,1361,c),
(186,1061,l),
(179,1030,o),
(242,1020,o),
(259,1020,cs),
(306,1020,o),
(325,1042,o),
(335,1080,cs),
(384,1263,o),
(516,1353,o),
(721,1353,cs),
(907,1353,o),
(1060,1211,o),
(1060,919,cs),
(1060,620,o),
(874,65,o),
(551,65,cs),
(325,65,o),
(273,155,o),
(230,372,cs),
(225,398,o),
(211,406,o),
(184,406,cs),
(167,406,o),
(100,396,o),
(94,375,c),
(62,98,l),
(64,70,o),
(281,-27,o),
(541,-27,cs)
);
}
);
width = 1466;
}
);
metricLeft = "=|C";
metricRight = "=|C";
unicode = 390;
}
{
color = 4;
glyphname = Eopen;
layers = (
{
anchors = (
{
name = bottom;
pos = (520,0);
},
{
name = top;
pos = (767,1419);
}
);
layerId = "D92FDD0B-F694-41DD-AE46-0E4F694F0F38";
shapes = (
{
closed = 1;
nodes = (
(867,-28,o),
(1124,111,o),
(1124,330,cs),
(1124,407,o),
(1083,456,o),
(1016,456,cs),
(980,456,o),
(925,429,o),
(912,383,c),
(931,200,l),
(896,140,o),
(822,67,o),
(589,67,cs),
(427,67,o),
(296,176,o),
(296,326,cs),
(296,505,o),
(381,696,o),
(686,696,cs),
(749,696,ls),
(777,696,o),
(787,753,o),
(787,776,cs),
(787,796,o),
(781,810,o),
(766,810,cs),
(703,810,ls),
(561,810,o),
(458,915,o),
(458,1050,cs),
(458,1175,o),
(543,1350,o),
(768,1350,cs),
(937,1350,o),
(946,1286,o),
(960,1243,c),
(963,1191,o),
(963,1130,o),
(964,1090,cs),
(965,1049,o),
(979,1015,o),
(1019,1015,cs),
(1114,1015,o),
(1169,1088,o),
(1169,1167,cs),
(1169,1324,o),
(968,1446,o),
(767,1446,cs),
(410,1446,o),
(242,1253,o),
(242,1055,cs),
(242,899,o),
(370,799,o),
(530,761,c),
(247,758,o),
(77,564,o),
(77,325,cs),
(77,106,o),
(306,-28,o),
(560,-28,cs)
);
}
);
width = 1214;
},
{
anchors = (
{
name = bottom;
pos = (668,0);
},
{
name = top;
pos = (867,1419);
}
);
layerId = "BDB4B313-38B1-4B24-B843-560B185382BD";
shapes = (
{
closed = 1;
nodes = (
(1009,-21,o),
(1313,118,o),
(1313,344,cs),
(1313,427,o),
(1265,498,o),
(1186,498,cs),
(1100,498,o),
(1058,460,o),
(1043,427,c),
(1062,194,l),
(1019,143,o),
(928,74,o),
(728,74,cs),
(528,74,o),
(451,191,o),
(451,352,cs),
(451,466,o),
(494,688,o),
(823,688,cs),
(906,688,ls),
(936,688,o),
(941,750,o),
(941,769,cs),
(941,787,o),
(936,800,o),
(922,800,cs),
(849,800,ls),
(689,800,o),
(628,904,o),
(628,1037,cs),
(628,1157,o),
(677,1349,o),
(877,1349,cs),
(988,1349,o),
(1029,1325,o),
(1058,1243,c),
(1068,1181,o),
(1074,1114,o),
(1083,1075,cs),
(1095,1019,o),
(1133,996,o),
(1177,996,cs),
(1278,996,o),
(1345,1088,o),
(1345,1173,cs),
(1345,1344,o),
(1094,1446,o),
(885,1446,cs),
(549,1446,o),
(286,1327,o),
(286,1043,cs),
(286,886,o),
(396,779,o),
(576,751,c),
(282,749,o),
(79,571,o),
(79,380,cs),
(79,89,o),
(362,-21,o),
(706,-21,cs)
);
}
);
width = 1402;
}
);
unicode = 400;
}
{
glyphname = Ohorn;
layers = (
{
layerId = "D92FDD0B-F694-41DD-AE46-0E4F694F0F38";
shapes = (
{
closed = 1;
nodes = (
(1302,1322,o),
(1534,1398,o),
(1534,1633,cs),
(1534,1648,o),
(1532,1663,o),
(1529,1680,c),
(1356,1680,l),
(1357,1671,o),
(1357,1659,o),
(1357,1644,cs),
(1357,1499,o),
(1243,1401,o),
(1082,1398,c),
(1193,1322,l)
);
},
{
ref = O;
}
);
width = 1496;
},
{
layerId = "BDB4B313-38B1-4B24-B843-560B185382BD";
shapes = (
{
closed = 1;
nodes = (
(1527,1312,o),
(1730,1421,o),
(1730,1627,cs),
(1730,1645,o),
(1727,1717,o),
(1724,1738,c),
(1508,1738,l),
(1510,1727,o),
(1510,1712,o),
(1510,1694,cs),
(1510,1596,o),
(1456,1403,o),
(1203,1403,c),
(1413,1312,l)
);
},
{
ref = O;
}
);
width = 1679;
}
);
unicode = 416;
}
{
glyphname = ohorn;
layers = (
{
anchors = (
{
name = bottom;
pos = (474,0);
},
{
name = center;
pos = (550,497);
},
{
name = ogonek;
pos = (940,10);
},
{
name = top;
pos = (621,994);
},
{
name = topright;
pos = (1168,994);
}
);
layerId = "D92FDD0B-F694-41DD-AE46-0E4F694F0F38";
shapes = (
{
closed = 1;
nodes = (
(878,890,l),
(1067,890,o),
(1233,1011,o),
(1247,1216,cs),
(1248,1231,o),
(1245,1246,o),
(1242,1263,c),
(1069,1263,l),
(1070,1254,o),
(1070,1242,o),
(1070,1227,cs),
(1070,1095,o),
(982,962,o),
(743,962,c)
);
},
{
closed = 1;
nodes = (
(93,164,o),
(217,-28,o),
(490,-28,cs),
(811,-28,o),
(1006,245,o),
(1006,568,cs),
(1006,821,o),
(892,1014,o),
(613,1014,cs),
(295,1014,o),
(93,714,o),
(93,424,cs,{
name = hr00;
})
);
},
{
closed = 1;
nodes = (
(340,59,o),
(306,190,o),
(306,376,cs),
(306,640,o),
(387,926,o),
(612,926,cs),
(758,926,o),
(790,800,o),
(790,617,cs),
(790,347,o),
(710,59,o),
(486,59,cs)
);
}
);
width = 1100;
},
{
anchors = (
{
name = bottom;
pos = (579,0);
},
{
name = center;
pos = (650,502);
},
{
name = ogonek;
pos = (1114,10);
},
{
name = top;
pos = (729,994);
},
{
name = topright;
pos = (1362,994);
}
);
layerId = "BDB4B313-38B1-4B24-B843-560B185382BD";
shapes = (
{
closed = 1;
nodes = (
(1055,895,l),
(1184,895,o),
(1436,972,o),
(1449,1208,cs),
(1451,1244,o),
(1446,1298,o),
(1443,1319,c),
(1227,1319,l),
(1229,1308,o),
(1229,1293,o),
(1229,1275,cs),
(1229,1147,o),
(1137,962,o),
(851,962,c)
);
},
{
closed = 1;
nodes = (
(91,151,o),
(237,-28,o),
(605,-28,cs),
(998,-28,o),
(1217,240,o),
(1217,546,cs),
(1217,826,o),
(1071,1014,o),
(688,1014,cs),
(286,1014,o),
(77,705,o),
(84,421,cs)
);
},
{
closed = 1;
nodes = (
(460,59,o),
(422,185,o),
(422,364,cs),
(422,634,o),
(498,926,o),
(692,926,cs),
(836,926,o),
(879,800,o),
(879,616,cs),
(879,346,o),
(801,59,o),
(601,59,cs)
);
}
);
width = 1302;
}
);
unicode = 417;
}
{
glyphname = Uhorn;
layers = (
{
layerId = "D92FDD0B-F694-41DD-AE46-0E4F694F0F38";
shapes = (
{
closed = 1;
nodes = (
(1482,1322,l),
(1654,1322,o),
(1763,1478,o),
(1773,1633,cs),
(1774,1648,o),
(1771,1663,o),
(1768,1680,c),
(1595,1680,l),
(1596,1671,o),
(1596,1659,o),
(1596,1644,cs),
(1596,1564,o),
(1572,1417,o),
(1413,1414,c)
);
},
{
ref = U;
}
);
width = 1549;
},
{
layerId = "BDB4B313-38B1-4B24-B843-560B185382BD";
shapes = (
{
closed = 1;
nodes = (
(1732,1329,l),
(1791,1329,o),
(1949,1421,o),
(1949,1627,cs),
(1949,1645,o),
(1946,1717,o),
(1943,1738,c),
(1727,1738,l),
(1729,1729,o),
(1729,1702,o),
(1729,1655,cs),
(1729,1554,o),
(1718,1419,o),
(1528,1419,c)
);
},
{
ref = U;
}
);
width = 1707;
}
);
unicode = 431;
}
{
color = 4;
glyphname = Ezhreversed;
layers = (
{
anchors = (
{
name = bottom;
pos = (631,0);
},
{
name = top;
pos = (815,1419);
}
);
layerId = "D92FDD0B-F694-41DD-AE46-0E4F694F0F38";
shapes = (
{
closed = 1;
nodes = (
(840,-28,o),
(1177,51,o),
(1237,265,cs),
(1268,378,o),
(1210,456,o),
(1107,456,cs),
(1081,456,o),
(986,429,o),
(972,383,c),
(1006,200,l),
(966,136,o),
(879,67,o),
(708,67,cs),
(411,67,o),
(287,215,o),
(348,435,cs),
(414,670,o),
(713,696,o),
(810,696,cs),
(883,696,ls),
(909,696,o),
(917,714,o),
(923,734,cs),
(933,770,o),
(923,792,o),
(899,810,c),
(634,1221,l),
(545,1331,l),
(1052,1331,ls),
(1150,1331,o),
(1209,1067,o),
(1210,1019,cs),
(1211,993,o),
(1224,986,o),
(1245,986,cs),
(1260,986,o),
(1306,997,o),
(1308,1020,cs),
(1334,1378,ls),
(1336,1409,o),
(1310,1419,o),
(1290,1419,cs),
(366,1419,ls),
(320,1419,o),
(300,1404,o),
(294,1382,cs),
(286,1353,o),
(301,1334,o),
(322,1306,cs),
(706,761,l),
(524,759,o),
(217,679,o),
(146,423,cs),
(72,158,o),
(233,-28,o),
(674,-28,cs)
);
}
);
width = 1403;
},
{
anchors = (
{
name = bottom;
pos = (565,0);
},
{
name = top;
pos = (857,1419);
}
);
layerId = "BDB4B313-38B1-4B24-B843-560B185382BD";
shapes = (
{
closed = 1;
nodes = (
(900,-21,o),
(1142,100,o),
(1201,277,cs),
(1237,386,o),
(1191,498,o),
(1091,498,cs),
(1005,498,o),
(962,460,o),
(946,427,c),
(957,194,l),
(912,143,o),
(820,74,o),
(660,74,cs),
(428,74,o),
(367,235,o),
(456,470,cs),
(538,686,o),
(649,697,o),
(807,697,cs),
(890,697,ls),
(901,697,o),
(909,701,o),
(916,721,cs),
(927,755,o),
(929,780,o),
(907,800,c),
(727,1205,l),
(645,1331,l),
(1000,1331,ls),
(1102,1331,o),
(1178,1066,o),
(1184,1019,cs),
(1187,993,o),
(1206,986,o),
(1237,986,cs),
(1252,986,o),
(1291,997,o),
(1292,1020,cs),
(1313,1378,ls),
(1315,1408,o),
(1292,1419,o),
(1272,1419,cs),
(371,1420,ls),
(332,1420,o),
(306,1406,o),
(300,1387,cs),
(289,1355,o),
(294,1341,o),
(306,1315,cs),
(576,771,l),
(340,769,o),
(137,651,o),
(73,459,cs),
(-37,126,o),
(248,-21,o),
(634,-21,cs)
);
}
);
width = 1280;
}
);
unicode = 440;
}
{
glyphname = ezhreversed;
layers = (
{
anchors = (
{
name = bottom;
pos = (365,-419);
},
{
name = top;
pos = (587,986);
}
);
layerId = "D92FDD0B-F694-41DD-AE46-0E4F694F0F38";
shapes = (
{
closed = 1;
nodes = (
(524,-461,o),
(774,-382,o),
(841,-180,cs),
(881,-61,o),
(840,23,o),
(753,23,cs),
(717,23,o),
(661,-4,o),
(645,-50,c),
(659,-233,l),
(622,-293,o),
(546,-366,o),
(393,-366,cs),
(161,-366,o),
(73,-214,o),
(148,11,cs),
(222,236,o),
(455,263,o),
(550,263,cs),
(613,263,ls),
(629,263,o),
(638,278,o),
(643,294,cs),
(656,333,o),
(650,347,o),
(634,377,c),
(458,788,l),
(390,903,l),
(739,903,ls),
(827,903,o),
(860,766,o),
(855,717,cs),
(852,691,o),
(854,684,o),
(875,684,cs),
(890,684,o),
(949,695,o),
(952,718,cs),
(982,945,ls),
(985,969,o),
(963,985,o),
(943,986,cs),
(220,986,ls),
(184,986,o),
(165,971,o),
(159,952,cs),
(148,921,o),
(161,901,o),
(170,873,c),
(436,328,l),
(271,326,o),
(26,248,o),
(-45,34,cs),
(-145,-268,o),
(43,-461,o),
(360,-461,cs)
);
}
);
width = 967;
},
{
anchors = (
{
name = bottom;
pos = (471,-384);
},
{
name = top;
pos = (744,994);
}
);
layerId = "BDB4B313-38B1-4B24-B843-560B185382BD";
shapes = (
{
closed = 1;
nodes = (
(723,-447,o),
(972,-326,o),
(1040,-149,cs),
(1082,-40,o),
(1042,72,o),
(942,72,cs),
(856,72,o),
(810,34,o),
(792,1,c),
(792,-232,l),
(744,-283,o),
(648,-352,o),
(518,-352,cs),
(336,-352,o),
(286,-191,o),
(365,44,cs),
(438,260,o),
(550,271,o),
(708,271,cs),
(791,271,ls),
(802,271,o),
(811,275,o),
(818,295,cs),
(831,329,o),
(834,354,o),
(814,374,c),
(654,779,l),
(576,911,l),
(941,911,ls),
(1039,911,o),
(1056,703,o),
(1048,654,cs),
(1044,628,o),
(1065,621,o),
(1086,621,cs),
(1101,621,o),
(1142,632,o),
(1146,655,cs),
(1192,953,l),
(1197,977,o),
(1175,994,o),
(1155,994,cs),
(310,994,ls),
(271,994,o),
(244,980,o),
(237,961,cs),
(225,929,o),
(230,916,o),
(239,889,c),
(480,345,l),
(245,343,o),
(35,225,o),
(-18,33,cs),
(-111,-299,o),
(151,-447,o),
(487,-447,cs)
);
}
);
width = 1200;
}
);
unicode = 441;
}
{
glyphname = aringacute;
layers = (
{
layerId = "D92FDD0B-F694-41DD-AE46-0E4F694F0F38";
shapes = (
{
closed = 1;
nodes = (
(1072,1585,o),
(1178,1624,o),
(1214,1656,cs),
(1241,1680,o),
(1265,1714,o),
(1265,1751,cs),
(1265,1769,o),
(1260,1786,o),
(1246,1804,cs),
(1228,1827,o),
(1203,1837,o),
(1179,1837,cs),
(1146,1837,o),
(1113,1821,o),
(1089,1801,cs),
(1053,1771,o),
(977,1663,o),
(863,1551,c),
(910,1493,l)
);
},
{
ref = a;
},
{
pos = (596,0);
ref = ringcomb;
}
);
width = 1173;
},
{
layerId = "BDB4B313-38B1-4B24-B843-560B185382BD";
shapes = (
{
closed = 1;
nodes = (
(1225,1575,o),
(1344,1601,o),
(1379,1632,cs),
(1405,1655,o),
(1427,1697,o),
(1427,1739,cs),
(1427,1762,o),
(1420,1784,o),
(1405,1803,cs),
(1387,1826,o),
(1359,1836,o),
(1329,1836,cs),
(1291,1836,o),
(1251,1820,o),
(1227,1800,cs),
(1191,1770,o),
(1132,1671,o),
(1009,1540,c),
(1056,1482,l,{
name = hr00;
})
);
},
{
ref = a;
},
{
pos = (641,0);
ref = ringcomb;
}
);
width = 1352;
}
);
unicode = 507;
}
{
color = 0;
glyphname = aturned;
layers = (
{
layerId = "D92FDD0B-F694-41DD-AE46-0E4F694F0F38";
shapes = (
{
closed = 1;
nodes = (
(1013,936,o),
(866,1007,o),
(745,1007,cs),
(605,1007,o),
(503,958,o),
(400,867,c),
(403,887,ls),
(421,986,o),
(389,1005,o),
(320,1005,cs),
(237,1005,o),
(157,969,o),
(117,943,cs),
(113,940,o),
(110,934,o),
(108,927,cs),
(105,907,o),
(117,877,o),
(141,884,cs),
(166,891,o),
(176,892,o),
(195,892,cs),
(217,892,o),
(224,837,o),
(215,785,cs),
(129,297,ls),
(102,138,o),
(123,-28,o),
(424,-28,cs),
(674,-28,o),
(853,86,o),
(873,205,cs),
(889,292,o),
(822,321,o),
(747,321,c),
(584,79,l),
(566,71,o),
(540,62,o),
(483,62,cs),
(324,62,o),
(294,159,o),
(307,233,c),
(334,387,l),
(607,415,o),
(933,478,o),
(979,743,cs,{
name = hr00;
})
);
},
{
closed = 1;
nodes = (
(733,530,o),
(569,491,o),
(348,458,c),
(409,810,l),
(456,850,o),
(544,896,o),
(654,896,cs),
(742,896,o),
(784,822,o),
(769,738,cs)
);
}
);
width = 1039;
},
{
layerId = "BDB4B313-38B1-4B24-B843-560B185382BD";
shapes = (
{
closed = 1;
nodes = (
(1232,944,o),
(1066,1018,o),
(945,1018,cs),
(805,1018,o),
(673,973,o),
(570,870,c),
(573,885,ls),
(590,994,o),
(566,1019,o),
(442,1019,cs),
(279,1019,o),
(155,965,o),
(131,950,cs),
(126,947,o),
(123,940,o),
(122,932,cs),
(118,908,o),
(120,875,o),
(143,875,cs),
(151,875,o),
(207,888,o),
(226,888,cs),
(248,888,o),
(258,848,o),
(250,796,cs),
(165,258,ls),
(140,99,o),
(250,-20,o),
(555,-20,cs),
(741,-20,o),
(1044,46,o),
(1071,218,cs),
(1084,301,o),
(1026,359,o),
(923,359,c),
(722,92,l),
(708,84,o),
(680,75,o),
(613,75,cs),
(524,75,o),
(467,104,o),
(487,231,cs),
(513,396,l),
(786,424,o),
(1160,486,o),
(1202,752,cs,{
name = hr00;
})
);
},
{
closed = 1;
nodes = (
(828,534,o),
(663,496,o),
(525,476,c),
(576,798,l),
(607,830,o),
(666,874,o),
(751,874,cs),
(839,874,o),
(872,809,o),
(861,742,cs)
);
}
);
width = 1249;
}
);
metricLeft = i;
metricRight = o;
unicode = 592;
}
{
glyphname = schwa;
layers = (
{
anchors = (
{
name = bottom;
pos = (358,-8);
},
{
name = top;
pos = (553,986);
}
);
layerId = "D92FDD0B-F694-41DD-AE46-0E4F694F0F38";
shapes = (
{
closed = 1;
nodes = (
(70,92,o),
(133,-28,o),
(353,-28,cs),
(622,-28,o),
(888,240,o),
(888,593,cs),
(888,847,o),
(755,1015,o),
(513,1015,cs),
(343,1015,o),
(224,936,o),
(135,822,c),
(133,816,o),
(125,810,o),
(125,803,cs),
(125,800,o),
(127,798,o),
(130,794,cs),
(140,781,o),
(152,769,o),
(167,761,c),
(176,755,o),
(182,763,o),
(189,771,c),
(283,862,o),
(366,911,o),
(484,911,cs),
(583,911,o),
(671,834,o),
(671,626,cs),
(671,610,o),
(671,594,o),
(671,579,c),
(360,521,o),
(70,397,o),
(70,186,cs,{
name = hr00;
})
);
},
{
closed = 1;
nodes = (
(307,53,o),
(258,85,o),
(257,148,cs),
(254,346,o),
(402,446,o),
(667,502,c),
(640,218,o),
(505,53,o),
(358,53,cs)
);
}
);
width = 978;
},
{
anchors = (
{
name = bottom;
pos = (422,0);
},
{
name = top;
pos = (640,994);
}
);
layerId = "BDB4B313-38B1-4B24-B843-560B185382BD";
shapes = (
{
closed = 1;
nodes = (
(56,111,o),
(147,-20,o),
(423,-20,cs),
(775,-20,o),
(1076,254,o),
(1076,613,cs),
(1076,861,o),
(902,1023,o),
(604,1023,cs),
(421,1023,o),
(240,955,o),
(112,830,cs),
(110,828,o),
(106,824,o),
(106,819,cs),
(106,818,o),
(107,816,o),
(107,815,cs),
(107,799,o),
(140,763,o),
(150,763,cs),
(155,763,o),
(160,766,o),
(165,769,cs),
(279,836,o),
(377,874,o),
(502,874,cs),
(620,874,o),
(751,821,o),
(751,634,cs),
(751,618,o),
(751,602,o),
(750,587,c),
(383,549,o),
(56,428,o),
(56,205,cs)
);
},
{
closed = 1;
nodes = (
(388,61,o),
(363,115,o),
(363,178,cs),
(363,356,o),
(512,460,o),
(745,510,c),
(719,226,o),
(596,61,o),
(473,61,cs)
);
}
);
width = 1151;
}
);
metricLeft = "=|e";
metricRight = o;
unicode = 601;
}
{
color = 1;
glyphname = eopen;
layers = (
{
anchors = (
{
name = bottom;
pos = (398,0);
},
{
name = top;
pos = (556,986);
}
);
layerId = "D92FDD0B-F694-41DD-AE46-0E4F694F0F38";
shapes = (
{
closed = 1;
nodes = (
(583,-17,o),
(768,59,o),
(808,189,cs),
(813,205,o),
(815,221,o),
(815,236,cs),
(815,294,o),
(781,338,o),
(725,338,cs),
(681,338,o),
(643,314,o),
(633,287,c),
(649,137,l),
(620,99,o),
(558,50,o),
(448,50,cs),
(310,50,o),
(243,115,o),
(243,220,cs),
(243,381,o),
(348,484,o),
(542,484,cs),
(598,484,ls),
(619,484,o),
(625,520,o),
(625,539,cs),
(625,553,o),
(620,563,o),
(609,563,cs),
(557,563,ls),
(441,563,o),
(368,632,o),
(368,730,cs),
(368,822,o),
(424,945,o),
(564,945,cs),
(654,945,o),
(676,916,o),
(691,870,c),
(696,830,o),
(698,785,o),
(702,757,cs),
(707,719,o),
(728,702,o),
(758,702,cs),
(830,702,o),
(879,763,o),
(879,819,cs),
(879,935,o),
(705,1012,o),
(552,1012,cs),
(359,1012,o),
(159,927,o),
(159,738,cs),
(159,626,o),
(254,551,o),
(391,528,c),
(199,527,o),
(23,427,o),
(23,235,cs),
(23,67,o),
(201,-17,o),
(429,-17,cs)
);
}
);
width = 904;
},
{
anchors = (
{
name = bottom;
pos = (481,0);
},
{
name = top;
pos = (613,994);
}
);
layerId = "BDB4B313-38B1-4B24-B843-560B185382BD";
shapes = (
{
closed = 1;
nodes = (
(752,-10,o),
(929,105,o),
(964,211,cs),
(968,224,o),
(970,238,o),
(970,252,cs),
(970,315,o),
(930,381,o),
(861,381,cs),
(767,381,o),
(744,348,o),
(730,333,c),
(745,132,l),
(705,100,o),
(626,57,o),
(542,57,cs),
(418,57,o),
(369,115,o),
(369,208,cs),
(369,332,o),
(386,479,o),
(626,479,cs),
(701,479,ls),
(723,479,o),
(725,517,o),
(725,535,cs),
(725,547,o),
(722,557,o),
(711,557,cs),
(650,557,ls),
(521,557,o),
(462,611,o),
(462,707,cs),
(462,789,o),
(494,950,o),
(660,950,cs),
(672,950,o),
(734,962,o),
(765,876,c),
(778,822,o),
(785,778,o),
(796,747,cs),
(814,696,o),
(858,688,o),
(893,688,cs),
(965,688,o),
(1032,759,o),
(1032,831,cs),
(1032,960,o),
(814,1019,o),
(617,1019,cs),
(403,1019,o),
(154,968,o),
(154,742,cs),
(154,625,o),
(234,534,o),
(383,522,c),
(176,521,o),
(-20,433,o),
(-20,236,cs),
(-20,48,o),
(224,-10,o),
(530,-10,cs)
);
}
);
width = 982;
}
);
unicode = 603;
}
{
color = 4;
glyphname = Ismall;
layers = (
{
anchors = (
{
name = bottom;
pos = (329,0);
},
{
name = ogonek;
pos = (382,10);
},
{
name = top;
pos = (471,986);
},
{
name = topleft;
pos = (87,986);
}
);
layerId = "D92FDD0B-F694-41DD-AE46-0E4F694F0F38";
shapes = (
{
closed = 1;
nodes = (
(52,26,o),
(57,0,o),
(77,0,cs),
(582,0,ls),
(605,0,o),
(620,36,o),
(623,51,cs),
(624,56,o),
(624,60,o),
(624,63,cs),
(624,82,o),
(615,85,o),
(592,88,cs),
(536,95,o),
(453,98,o),
(453,169,cs),
(453,174,o),
(453,179,o),
(454,185,cs),
(549,834,ls),
(556,879,o),
(640,893,o),
(705,898,cs),
(731,900,o),
(742,914,o),
(745,935,cs),
(747,950,o),
(743,986,o),
(720,986,cs),
(215,986,ls),
(192,986,o),
(172,950,o),
(172,935,cs),
(172,929,o),
(170,923,o),
(170,919,cs),
(170,903,o),
(179,900,o),
(201,898,cs),
(257,893,o),
(340,888,o),
(340,816,cs),
(340,811,o),
(340,806,o),
(339,801,cs),
(242,152,ls),
(235,108,o),
(153,92,o),
(88,88,cs),
(59,86,o),
(52,69,o),
(52,43,cs,{
name = hr00;
})
);
}
);
width = 798;
},
{
anchors = (
{
name = bottom;
pos = (392,0);
},
{
name = ogonek;
pos = (476,10);
},
{
name = top;
pos = (518,994);
},
{
name = topleft;
pos = (87,994);
}
);
layerId = "BDB4B313-38B1-4B24-B843-560B185382BD";
shapes = (
{
closed = 1;
nodes = (
(35,24,o),
(40,0,o),
(59,0,cs),
(714,0,ls),
(737,0,o),
(755,36,o),
(757,51,cs),
(758,57,o),
(759,62,o),
(759,66,cs),
(759,83,o),
(749,86,o),
(728,88,cs),
(673,93,o),
(579,98,o),
(579,167,cs),
(579,172,o),
(580,178,o),
(581,185,cs),
(679,842,ls),
(686,887,o),
(763,901,o),
(831,906,cs),
(861,908,o),
(872,926,o),
(872,953,cs),
(872,970,o),
(867,994,o),
(848,994,cs),
(203,994,ls),
(180,994,o),
(160,958,o),
(158,943,cs),
(157,937,o),
(156,931,o),
(156,927,cs),
(156,911,o),
(165,908,o),
(187,906,cs),
(243,901,o),
(335,896,o),
(335,827,cs),
(335,821,o),
(334,815,o),
(333,809,cs),
(233,152,ls),
(226,108,o),
(139,92,o),
(74,88,cs),
(44,86,o),
(35,68,o),
(35,41,cs)
);
}
);
width = 923;
}
);
unicode = 618;
}
{
glyphname = apostrophemod;
layers = (
{
layerId = "D92FDD0B-F694-41DD-AE46-0E4F694F0F38";
shapes = (
{
closed = 1;
nodes = (
(235,1092,o),
(407,1288,o),
(430,1446,cs),
(432,1461,o),
(434,1476,o),
(434,1489,cs),
(434,1589,o),
(367,1617,o),
(310,1617,cs),
(231,1617,o),
(158,1552,o),
(158,1472,cs),
(158,1384,o),
(251,1372,o),
(251,1362,cs),
(251,1358,o),
(250,1352,o),
(249,1346,cs),
(242,1293,o),
(201,1182,o),
(119,1105,c),
(111,1093,o),
(106,1083,o),
(106,1074,cs),
(106,1055,o),
(124,1045,o),
(144,1045,cs),
(153,1045,o),
(162,1047,o),
(170,1051,c,{
name = hr00;
})
);
}
);
width = 298;
},
{
layerId = "BDB4B313-38B1-4B24-B843-560B185382BD";
shapes = (
{
closed = 1;
nodes = (
(248,1036,o),
(450,1266,o),
(478,1452,cs),
(481,1470,o),
(482,1486,o),
(482,1502,cs),
(482,1621,o),
(404,1654,o),
(337,1654,cs),
(242,1654,o),
(159,1576,o),
(159,1483,cs),
(159,1380,o),
(267,1365,o),
(268,1354,cs),
(268,1348,o),
(268,1340,o),
(267,1331,cs),
(257,1268,o),
(207,1140,o),
(112,1052,c),
(101,1039,o),
(97,1026,o),
(97,1016,cs),
(97,994,o),
(117,981,o),
(141,981,cs),
(151,981,o),
(163,984,o),
(172,988,c,{
name = hr00;
})
);
}
);
width = 345;
}
);
unicode = 700;
}
{
glyphname = ringhalfleft;
kernLeft = ring;
kernRight = ring;
layers = (
{
anchors = (
{
name = _top;
pos = (-97,994);
},
{
name = top;
pos = (2,1657);
}
);
layerId = "D92FDD0B-F694-41DD-AE46-0E4F694F0F38";
shapes = (
{
closed = 1;
nodes = (
(-62,1247,l),
(-160,1248,o),
(-197,1301,o),
(-197,1368,cs),
(-197,1378,o),
(-197,1389,o),
(-195,1399,cs),
(-182,1481,o),
(-129,1551,o),
(-19,1553,c),
(-3,1657,l),
(-157,1655,o),
(-295,1556,o),
(-318,1400,cs),
(-320,1385,o),
(-321,1371,o),
(-321,1358,cs),
(-321,1225,o),
(-218,1143,o),
(-78,1142,c)
);
}
);
width = 0;
},
{
anchors = (
{
name = _top;
pos = (-101,994);
},
{
name = top;
pos = (-2,1657);
}
);
layerId = "BDB4B313-38B1-4B24-B843-560B185382BD";
shapes = (
{
closed = 1;
nodes = (
(-64,1262,l),
(-151,1263,o),
(-185,1309,o),
(-185,1369,cs),
(-185,1379,o),
(-184,1389,o),
(-182,1399,cs),
(-172,1472,o),
(-125,1535,o),
(-27,1538,c),
(-5,1683,l),
(-174,1680,o),
(-325,1571,o),
(-350,1400,cs),
(-352,1384,o),
(-354,1369,o),
(-354,1354,cs),
(-354,1208,o),
(-241,1117,o),
(-86,1116,c)
);
}
);
width = 0;
}
);
unicode = 703;
}
{
glyphname = macroncomb;
kernLeft = macroncomb;
kernRight = macroncomb;
layers = (
{
anchors = (
{
name = _top;
pos = (148,994);
},
{
name = top;
pos = (188,1266);
}
);
layerId = "D92FDD0B-F694-41DD-AE46-0E4F694F0F38";
shapes = (
{
closed = 1;
nodes = (
(466,1182,l),
(487,1313,l),
(-101,1313,l),
(-122,1182,l)
);
}
);
width = 0;
},
{
anchors = (
{
name = _top;
pos = (148,994);
},
{
name = top;
pos = (191,1282);
}
);
layerId = "BDB4B313-38B1-4B24-B843-560B185382BD";
shapes = (
{
closed = 1;
nodes = (
(471,1182,l),
(494,1333,l),
(-93,1333,l),
(-116,1182,l,{
name = hr00;
})
);
}
);
width = 0;
}
);
unicode = 772;
}
{
color = 6;
glyphname = commaabovecomb;
layers = (
{
anchors = (
{
name = _top;
pos = (226,986);
},
{
name = top;
pos = (334,1710);
}
);
layerId = "D92FDD0B-F694-41DD-AE46-0E4F694F0F38";
shapes = (
{
closed = 1;
nodes = (
(265,1710,o),
(194,1670,o),
(183,1582,cs),
(182,1574,o),
(181,1567,o),
(181,1560,cs),
(181,1474,o),
(268,1483,o),
(269,1473,cs),
(270,1463,o),
(268,1445,o),
(265,1422,cs),
(258,1366,o),
(231,1283,o),
(170,1226,cs),
(151,1208,o),
(143,1195,o),
(143,1183,cs),
(143,1165,o),
(160,1155,o),
(179,1155,cs),
(187,1155,o),
(196,1158,o),
(203,1162,cs),
(264,1197,o),
(417,1380,o),
(439,1526,cs),
(442,1546,o),
(443,1564,o),
(443,1580,cs),
(443,1682,o),
(388,1710,o),
(339,1710,c)
);
}
);
width = 305;
},
{
anchors = (
{
name = _top;
pos = (245,994);
},
{
name = top;
pos = (357,1742);
}
);
layerId = "BDB4B313-38B1-4B24-B843-560B185382BD";
shapes = (
{
closed = 1;
nodes = (
(273,1742,o),
(196,1688,o),
(183,1585,cs,{
name = hr00;
}),
(182,1577,o),
(181,1569,o),
(181,1561,cs),
(181,1488,o),
(240,1454,o),
(293,1454,c),
(293,1436,o),
(292,1419,o),
(289,1402,cs),
(277,1331,o),
(203,1250,o),
(173,1223,cs),
(157,1209,o),
(150,1197,o),
(150,1188,cs),
(150,1170,o),
(170,1160,o),
(190,1160,cs),
(198,1160,o),
(206,1161,o),
(213,1165,cs),
(306,1218,o),
(452,1385,o),
(479,1557,cs),
(482,1576,o),
(483,1593,o),
(483,1608,cs),
(483,1704,o),
(432,1742,o),
(361,1742,cs)
);
}
);
width = 341;
}
);
unicode = 787;
}
{
glyphname = commaaboverightcomb;
layers = (
{
anchors = (
{
name = _top;
pos = (226,986);
},
{
name = top;
pos = (334,1710);
}
);
layerId = "D92FDD0B-F694-41DD-AE46-0E4F694F0F38";
shapes = (
{
closed = 1;
nodes = (
(647,1710,o),
(576,1670,o),
(565,1582,cs),
(564,1574,o),
(563,1567,o),
(563,1560,cs),
(563,1474,o),
(650,1483,o),
(651,1473,cs),
(652,1463,o),
(650,1445,o),
(647,1422,cs),
(640,1366,o),
(613,1283,o),
(552,1226,cs),
(533,1208,o),
(525,1195,o),
(525,1183,cs),
(525,1165,o),
(542,1155,o),
(561,1155,cs),
(569,1155,o),
(578,1158,o),
(585,1162,cs),
(646,1197,o),
(799,1380,o),
(821,1526,cs),
(824,1546,o),
(825,1564,o),
(825,1580,cs),
(825,1682,o),
(770,1710,o),
(721,1710,c)
);
}
);
width = 600;
},
{
anchors = (
{
name = _top;
pos = (245,994);
},
{
name = top;
pos = (357,1742);
}
);
layerId = "BDB4B313-38B1-4B24-B843-560B185382BD";
shapes = (
{
closed = 1;
nodes = (
(707,1742,o),
(630,1688,o),
(617,1585,cs,{
name = hr00;
}),
(616,1577,o),
(615,1569,o),
(615,1561,cs),
(615,1488,o),
(674,1454,o),
(727,1454,c),
(727,1436,o),
(726,1419,o),
(723,1402,cs),
(711,1331,o),
(637,1250,o),
(607,1223,cs),
(591,1209,o),
(584,1197,o),
(584,1188,cs),
(584,1170,o),
(604,1160,o),
(624,1160,cs),
(632,1160,o),
(640,1161,o),
(647,1165,cs),
(740,1218,o),
(886,1385,o),
(913,1557,cs),
(916,1576,o),
(917,1593,o),
(917,1608,cs),
(917,1704,o),
(866,1742,o),
(795,1742,cs)
);
}
);
width = 600;
}
);
unicode = 789;
}
{
glyphname = dotbelowcomb;
kernLeft = dotbelowcomb;
kernRight = dotbelowcomb;
layers = (
{
anchors = (
{
name = _bottom;
pos = (-4,0);
},
{
name = bottom;
pos = (-42,-471);
}
);
layerId = "D92FDD0B-F694-41DD-AE46-0E4F694F0F38";
shapes = (
{
closed = 1;
nodes = (
(6,-401,o),
(69,-326,o),
(69,-235,cs),
(69,-170,o),
(31,-123,o),
(-33,-123,cs),
(-115,-123,o),
(-177,-198,o),
(-177,-288,cs),
(-177,-353,o),
(-140,-401,o),
(-75,-401,cs)
);
}
);
width = 0;
},
{
anchors = (
{
name = _bottom;
pos = (-4,0);
},
{
name = bottom;
pos = (-55,-563);
}
);
layerId = "BDB4B313-38B1-4B24-B843-560B185382BD";
shapes = (
{
closed = 1;
nodes = (
(38,-473,o),
(140,-373,o),
(140,-261,cs),
(140,-169,o),
(71,-106,o),
(-23,-106,cs),
(-140,-106,o),
(-240,-205,o),
(-240,-321,cs),
(-240,-412,o),
(-172,-473,o),
(-78,-473,cs)
);
}
);
width = 0;
}
);
unicode = 803;
}
{
glyphname = cedillacomb;
kernLeft = cedilla;
kernRight = cedilla;
layers = (
{
anchors = (
{
name = _bottom;
pos = (149,0);
}
);
background = {
shapes = (
{
closed = 1;
nodes = (
(218,-476,o),
(347,-388,o),
(347,-269,cs),
(347,-190,o),
(280,-141,o),
(163,-129,c,{
name = hr03;
}),
(224,18,l),
(107,18,l,{
name = hr01;
}),
(41,-191,l),
(115,-191,o),
(181,-219,o),
(181,-272,cs,{
name = hr02;
}),
(181,-332,o),
(128,-363,o),
(35,-363,cs),
(-4,-363,o),
(-38,-358,o),
(-85,-347,cs),
(-111,-340,o),
(-155,-403,o),
(-155,-426,cs),
(-155,-436,o),
(-150,-442,o),
(-139,-446,cs),
(-104,-459,o),
(-45,-476,o),
(64,-476,cs)
);
},
{
closed = 1;
nodes = (
(245,-478,o),
(346,-366,o),
(346,-271,cs),
(346,-194,o),
(281,-139,o),
(162,-130,c,{
name = hr03;
}),
(222,18,l),
(105,18,l,{
name = hr01;
}),
(39,-191,l),
(128,-189,o),
(180,-229,o),
(180,-271,cs),
(180,-325,o),
(120,-364,o),
(48,-364,cs),
(-14,-364,o),
(-51,-350,o),
(-73,-342,cs),
(-84,-338,o),
(-88,-340,o),
(-95,-350,cs),
(-105,-365,o),
(-120,-393,o),
(-134,-412,cs),
(-139,-419,o),
(-140,-429,o),
(-132,-434,cs),
(-98,-455,o),
(-40,-478,o),
(54,-478,cs)
);
}
);
};
layerId = "D92FDD0B-F694-41DD-AE46-0E4F694F0F38";
shapes = (
{
closed = 1;
nodes = (
(245,-488,o),
(346,-371,o),
(346,-271,cs),
(346,-194,o),
(281,-139,o),
(162,-130,c,{
name = hr03;
}),
(222,18,l),
(105,18,l,{
name = hr01;
}),
(39,-191,l),
(128,-189,o),
(180,-229,o),
(180,-271,cs),
(180,-331,o),
(120,-374,o),
(48,-374,cs),
(-14,-374,o),
(-49,-357,o),
(-70,-349,cs),
(-81,-345,o),
(-85,-346,o),
(-93,-356,cs),
(-104,-370,o),
(-120,-397,o),
(-134,-417,cs),
(-139,-424,o),
(-140,-434,o),
(-133,-439,cs),
(-100,-463,o),
(-40,-488,o),
(54,-488,cs)
);
}
);
width = 462;
},
{
anchors = (
{
name = _bottom;
pos = (165,0);
}
);
background = {
shapes = (
{
closed = 1;
nodes = (
(229,-492,o),
(379,-380,o),
(379,-244,cs),
(379,-168,o),
(329,-123,o),
(199,-111,c,{
name = hr03;
}),
(262,18,l),
(105,18,l,{
name = hr01;
}),
(23,-191,l),
(95,-191,o),
(163,-204,o),
(163,-257,cs,{
name = hr02;
}),
(163,-310,o),
(115,-359,o),
(42,-359,cs),
(11,-359,o),
(-32,-354,o),
(-78,-341,cs),
(-103,-334,o),
(-139,-407,o),
(-139,-434,cs),
(-139,-446,o),
(-134,-453,o),
(-123,-457,cs),
(-87,-470,o),
(-39,-492,o),
(70,-492,cs)
);
}
);
};
layerId = "BDB4B313-38B1-4B24-B843-560B185382BD";
shapes = (
{
closed = 1;
nodes = (
(248,-497,o),
(396,-409,o),
(396,-271,cs),
(396,-181,o),
(313,-127,o),
(190,-111,c,{
name = hr03;
}),
(252,19,l),
(95,19,l,{
name = hr01;
}),
(15,-201,l),
(144,-199,o),
(190,-244,o),
(190,-283,cs,{
name = hr02;
}),
(190,-344,o),
(129,-373,o),
(66,-373,cs),
(-4,-373,o),
(-46,-356,o),
(-83,-341,cs),
(-93,-337,o),
(-97,-341,o),
(-102,-349,cs),
(-113,-367,o),
(-137,-404,o),
(-144,-416,cs),
(-148,-425,o),
(-148,-431,o),
(-141,-436,cs),
(-113,-453,o),
(-35,-497,o),
(95,-497,cs)
);
}
);
width = 522;
}
);
unicode = 807;
}
{
color = 10;
glyphname = circumflexbelowcomb;
kernLeft = dotbelowcomb;
kernRight = dotbelowcomb;
layers = (
{
anchors = (
{
name = _bottom;
pos = (10,0);
},
{
name = bottom;
pos = (-60,-471);
}
);
layerId = "D92FDD0B-F694-41DD-AE46-0E4F694F0F38";
shapes = (
{
closed = 1;
nodes = (
(-260,-521,l),
(-20,-310,l),
(189,-521,l),
(302,-521,l),
(86,-192,l),
(67,-159,o),
(45,-132,o),
(-4,-132,cs),
(-52,-132,o),
(-79,-155,o),
(-103,-183,c),
(-378,-521,l)
);
}
);
width = 0;
},
{
anchors = (
{
name = _bottom;
},
{
name = bottom;
pos = (-80,-563);
}
);
layerId = "BDB4B313-38B1-4B24-B843-560B185382BD";
shapes = (
{
closed = 1;
nodes = (
(-269,-522,l),
(-33,-361,l),
(180,-522,l),
(323,-522,l),
(107,-213,ls),
(86,-182,o),
(54,-153,o),
(-15,-153,cs),
(-83,-153,o),
(-118,-177,o),
(-142,-204,cs),
(-417,-522,l,{
name = hr00;
})
);
}
);
width = 0;
}
);
unicode = 813;
}
{
glyphname = brevebelowcomb;
kernLeft = dotbelowcomb;
kernRight = dotbelowcomb;
layers = (
{
anchors = (
{
name = _bottom;
pos = (-6,0);
},
{
name = bottom;
pos = (-77,-471);
}
);
layerId = "D92FDD0B-F694-41DD-AE46-0E4F694F0F38";
shapes = (
{
closed = 1;
nodes = (
(28,-562,o),
(243,-511,o),
(297,-199,c),
(184,-199,l),
(163,-297,o),
(76,-414,o),
(-68,-414,cs),
(-202,-414,o),
(-257,-313,o),
(-257,-220,cs),
(-257,-213,o),
(-257,-206,o),
(-256,-199,c),
(-369,-199,l),
(-373,-227,o),
(-374,-252,o),
(-374,-276,cs),
(-374,-520,o),
(-198,-562,o),
(-90,-562,cs)
);
}
);
width = 0;
},
{
anchors = (
{
name = _bottom;
pos = (-5,0);
},
{
name = bottom;
pos = (-89,-563);
}
);
layerId = "BDB4B313-38B1-4B24-B843-560B185382BD";
shapes = (
{
closed = 1;
nodes = (
(77,-572,o),
(286,-501,o),
(318,-199,c),
(185,-199,l),
(161,-317,o),
(83,-374,o),
(-61,-374,cs),
(-193,-374,o),
(-256,-326,o),
(-256,-226,cs),
(-256,-218,o),
(-256,-209,o),
(-255,-199,c),
(-388,-199,l),
(-395,-237,o),
(-399,-272,o),
(-399,-303,cs),
(-399,-518,o),
(-238,-572,o),
(-91,-572,cs,{
name = hr00;
})
);
}
);
width = 0;
}
);
unicode = 814;
}
{
glyphname = macronbelowcomb;
layers = (
{
anchors = (
{
name = _bottom;
pos = (230,0);
}
);
layerId = "D92FDD0B-F694-41DD-AE46-0E4F694F0F38";
shapes = (
{
closed = 1;
nodes = (
(477,-317,l),
(498,-176,l),
(-90,-176,l),
(-111,-317,l)
);
}
);
width = 608;
},
{
anchors = (
{
name = _bottom;
pos = (228,0);
}
);
layerId = "BDB4B313-38B1-4B24-B843-560B185382BD";
shapes = (
{
closed = 1;
nodes = (
(474,-328,l),
(497,-177,l),
(-90,-177,l),
(-113,-328,l,{
name = hr00;
})
);
}
);
width = 608;
}
);
unicode = 817;
}
{
glyphname = Sigma;
layers = (
{
anchors = (
{
name = bottom;
pos = (569,0);
},
{
name = top;
pos = (816,1419);
}
);
layerId = "D92FDD0B-F694-41DD-AE46-0E4F694F0F38";
shapes = (
{
closed = 1;
nodes = (
(1061,0,l),
(1081,1,o),
(1098,14,o),
(1114,41,c),
(1250,492,l),
(1253,515,o),
(1229,526,o),
(1214,526,cs),
(1193,526,o),
(1179,519,o),
(1172,493,cs),
(1160,450,o),
(1009,167,o),
(921,167,cs),
(217,167,l),
(748,708,ls),
(770,730,o),
(776,758,o),
(776,782,cs),
(776,824,o),
(754,858,o),
(744,875,cs),
(485,1336,l),
(1061,1336,ls),
(1148,1336,o),
(1225,1125,o),
(1225,1080,cs),
(1225,1053,o),
(1236,1046,o),
(1257,1046,cs),
(1272,1046,o),
(1290,1057,o),
(1293,1080,c),
(1313,1378,l),
(1305,1405,o),
(1292,1418,o),
(1272,1419,c),
(250,1419,ls),
(236,1419,o),
(212,1411,o),
(212,1377,cs),
(212,1366,o),
(218,1350,o),
(224,1340,cs),
(587,672,l),
(42,123,ls),
(-7,74,o),
(-15,59,o),
(-15,28,cs),
(-17,9,o),
(-2,0,o),
(14,0,cs)
);
}
);
width = 1326;
},
{
anchors = (
{
name = bottom;
pos = (619,0);
},
{
name = top;
pos = (866,1419);
}
);
layerId = "BDB4B313-38B1-4B24-B843-560B185382BD";
shapes = (
{
closed = 1;
nodes = (
(1131,0,l),
(1151,1,o),
(1167,14,o),
(1182,41,c),
(1352,529,l),
(1354,552,o),
(1309,563,o),
(1294,563,cs),
(1273,563,o),
(1256,554,o),
(1241,530,cs),
(1145,377,o),
(1038,215,o),
(950,215,cs),
(308,215,l),
(817,697,ls),
(838,716,o),
(845,734,o),
(845,752,cs),
(845,762,o),
(842,773,o),
(835,787,cs),
(559,1323,l),
(1096,1323,ls),
(1239,1323,o),
(1253,1173,o),
(1282,1049,cs),
(1288,1023,o),
(1333,1016,o),
(1354,1016,cs),
(1369,1016,o),
(1407,1027,o),
(1410,1050,c),
(1430,1378,ls),
(1432,1405,o),
(1409,1419,o),
(1389,1419,cs),
(256,1419,ls),
(232,1419,o),
(216,1394,o),
(216,1367,cs),
(216,1358,o),
(217,1347,o),
(221,1340,cs),
(581,622,l),
(56,123,ls),
(-9,62,o),
(1,47,o),
(1,29,cs),
(1,11,o),
(11,0,o),
(30,0,cs)
);
}
);
width = 1419;
}
);
unicode = 931;
}
{
glyphname = mu;
layers = (
{
layerId = "D92FDD0B-F694-41DD-AE46-0E4F694F0F38";
shapes = (
{
closed = 1;
nodes = (
(183,-446,o),
(232,-367,o),
(232,-274,cs),
(232,-174,o),
(219,-22,o),
(224,111,c,{
name = hr01;
}),
(272,24,o),
(345,-27,o),
(469,-27,cs),
(574,-27,o),
(698,66,o),
(735,131,c),
(722,39,l,{
name = hr02;
}),
(722,11,o),
(735,-1,o),
(746,-1,cs),
(804,-1,o),
(919,2,o),
(1053,9,cs),
(1072,10,o),
(1083,34,o),
(1083,52,cs),
(1083,70,o),
(1074,78,o),
(1063,83,c),
(1015,96,o),
(930,86,o),
(930,180,cs),
(930,217,o),
(1038,958,o),
(1038,968,cs),
(1038,985,o),
(1029,996,o),
(1005,996,cs),
(742,996,ls),
(721,996,o),
(703,981,o),
(703,952,cs),
(703,934,o),
(712,930,o),
(735,928,cs),
(779,924,o),
(835,918,o),
(835,851,c),
(753,260,l),
(692,190,o),
(619,113,o),
(519,113,cs,{
name = hr03;
}),
(369,113,o),
(345,208,o),
(345,269,c),
(352,318,o),
(440,966,o),
(440,968,cs),
(440,985,o),
(431,996,o),
(407,996,cs),
(144,996,ls),
(123,996,o),
(105,981,o),
(105,952,cs),
(105,934,o),
(114,930,o),
(137,928,cs),
(181,924,o),
(235,918,o),
(235,852,c),
(167,358,l),
(160,311,o),
(6,-273,o),
(6,-338,cs),
(6,-400,o),
(36,-446,o),
(100,-446,cs)
);
}
);
width = 1179;
},
{
layerId = "BDB4B313-38B1-4B24-B843-560B185382BD";
shapes = (
{
closed = 1;
nodes = (
(163,-446,o),
(212,-367,o),
(212,-274,cs),
(212,-177,o),
(204,-22,o),
(204,111,c),
(265,24,o),
(359,-27,o),
(519,-27,cs),
(637,-27,o),
(775,66,o),
(815,131,c),
(802,39,l),
(802,12,o),
(815,-1,o),
(826,-1,cs),
(907,-1,o),
(1072,-1,o),
(1263,9,cs),
(1282,10,o),
(1293,34,o),
(1293,52,cs),
(1293,70,o),
(1284,78,o),
(1273,83,c),
(1225,96,o),
(1140,86,o),
(1140,180,cs),
(1140,217,o),
(1248,958,o),
(1248,968,cs),
(1248,985,o),
(1239,996,o),
(1215,996,cs),
(822,996,ls),
(801,996,o),
(783,981,o),
(783,952,cs),
(783,934,o),
(792,930,o),
(815,928,cs),
(860,924,o),
(915,918,o),
(915,852,c),
(833,260,l),
(763,190,o),
(681,113,o),
(569,113,cs),
(473,113,o),
(455,206,o),
(455,266,cs),
(455,309,o),
(550,945,o),
(550,968,cs),
(550,985,o),
(541,996,o),
(517,996,cs),
(124,996,ls),
(103,996,o),
(85,981,o),
(85,952,cs),
(85,934,o),
(94,930,o),
(117,928,cs),
(161,924,o),
(215,918,o),
(215,852,c),
(147,358,l),
(133,218,o),
(-14,-218,o),
(-14,-338,cs),
(-14,-400,o),
(16,-446,o),
(80,-446,cs)
);
}
);
width = 1372;
}
);
unicode = 956;
}
{
glyphname = pi;
layers = (
{
layerId = "D92FDD0B-F694-41DD-AE46-0E4F694F0F38";
shapes = (
{
closed = 1;
nodes = (
(138,-29,o),
(169,-15,o),
(190,-8,cs),
(350,45,o),
(392,231,o),
(449,462,cs),
(540,833,l),
(832,832,l),
(691,201,ls),
(682,160,o),
(678,125,o),
(678,97,cs),
(678,1,o),
(762,-29,o),
(863,-29,cs),
(972,-29,o),
(1066,19,o),
(1097,41,cs),
(1105,47,o),
(1113,67,o),
(1113,78,cs),
(1113,123,o),
(1089,140,o),
(1078,134,cs),
(1030,107,o),
(971,108,o),
(936,108,cs),
(889,108,o),
(863,148,o),
(863,211,cs),
(863,237,o),
(870,281,o),
(949,832,c),
(1198,832,l),
(1242,994,l),
(389,994,ls),
(190,994,o),
(66,907,o),
(66,763,cs),
(66,750,o),
(82,739,o),
(100,738,cs),
(121,737,o),
(132,743,o),
(136,753,cs),
(157,805,o),
(232,833,o),
(322,833,cs),
(420,833,l),
(359,580,o),
(278,322,o),
(199,172,c,{
name = hr03;
}),
(34,172,ls,{
name = hr01;
}),
(8,172,o),
(-9,136,o),
(-9,95,cs),
(-9,38,o),
(23,-29,o),
(105,-29,cs,{
name = hr02;
})
);
}
);
width = 1236;
},
{
layerId = "BDB4B313-38B1-4B24-B843-560B185382BD";
shapes = (
{
closed = 1;
nodes = (
(291,-29,o),
(356,3,o),
(392,27,cs),
(477,84,o),
(530,217,o),
(565,372,cs),
(670,833,l),
(915,832,l),
(787,279,ls),
(776,232,o),
(771,188,o),
(771,149,cs),
(771,41,o),
(816,-29,o),
(943,-29,cs),
(1111,-29,o),
(1262,38,o),
(1307,61,cs),
(1311,63,o),
(1325,70,o),
(1325,95,cs),
(1325,147,o),
(1289,175,o),
(1280,171,cs),
(1230,149,o),
(1181,128,o),
(1146,128,cs),
(1084,128,o),
(1064,167,o),
(1064,227,cs),
(1064,263,o),
(1051,281,o),
(1125,832,c),
(1338,832,l),
(1382,994,l),
(369,994,ls),
(163,994,o),
(46,905,o),
(46,756,cs),
(46,739,o),
(74,733,o),
(100,733,cs),
(122,733,o),
(143,738,o),
(146,743,cs),
(175,792,o),
(212,833,o),
(302,833,cs),
(467,833,l),
(402,580,o),
(357,354,o),
(224,172,c),
(100,172,ls),
(74,172,o),
(57,136,o),
(57,95,cs),
(57,38,o),
(89,-29,o),
(171,-29,cs)
);
}
);
width = 1351;
}
);
unicode = 960;
}
{
glyphname = "Ii-cy";
layers = (
{
anchors = (
{
name = bottom;
pos = (690,0);
},
{
name = top;
pos = (916,1419);
}
);
layerId = "D92FDD0B-F694-41DD-AE46-0E4F694F0F38";
shapes = (
{
closed = 1;
nodes = (
(1405,0,o),
(1420,25,o),
(1425,42,cs,{
name = hr01;
}),
(1433,68,o),
(1430,85,o),
(1402,88,c,{
name = hr03;
}),
(1341,93,o),
(1244,108,o),
(1253,172,cs),
(1399,1204,ls),
(1400,1209,o),
(1401,1214,o),
(1403,1219,cs),
(1426,1294,o),
(1529,1326,o),
(1587,1331,cs),
(1620,1334,o),
(1634,1342,o),
(1641,1368,cs),
(1644,1383,o),
(1638,1419,o),
(1615,1419,cs),
(1263,1419,l),
(312,314,l),
(300,314,l),
(443,1234,ls),
(444,1238,o),
(445,1242,o),
(446,1245,cs),
(470,1321,o),
(595,1326,o),
(654,1331,cs),
(677,1333,o),
(687,1336,o),
(692,1353,cs),
(701,1381,o),
(693,1419,o),
(669,1419,cs),
(204,1419,ls),
(181,1419,o),
(163,1383,o),
(162,1368,cs),
(159,1347,o),
(165,1334,o),
(190,1331,cs),
(250,1324,o),
(353,1320,o),
(339,1234,cs),
(171,113,ls),
(167,88,o),
(162,78,o),
(153,40,cs),
(140,-16,o),
(175,-30,o),
(203,-30,cs),
(224,-30,o),
(259,-20,o),
(270,-8,c),
(1278,1178,l),
(1295,1178,l,{
name = hr02;
}),
(1142,165,ls),
(1132,99,o),
(993,96,o),
(930,88,cs),
(907,85,o),
(897,82,o),
(891,63,c),
(877,19,o),
(893,0,o),
(911,0,cs),
(1386,0,ls)
);
}
);
width = 1567;
},
{
anchors = (
{
name = bottom;
pos = (578,0);
},
{
name = top;
pos = (732,1419);
}
);
layerId = "BDB4B313-38B1-4B24-B843-560B185382BD";
shapes = (
{
closed = 1;
nodes = (
(1375,0,o),
(1389,23,o),
(1391,33,cs),
(1400,64,o),
(1402,84,o),
(1366,88,c),
(1305,93,o),
(1172,108,o),
(1181,172,cs),
(1320,1204,ls),
(1320,1210,o),
(1321,1216,o),
(1323,1221,cs),
(1344,1295,o),
(1453,1326,o),
(1510,1331,cs),
(1533,1333,o),
(1543,1336,o),
(1548,1353,cs),
(1555,1380,o),
(1544,1419,o),
(1521,1419,cs),
(1029,1419,l),
(113,282,l),
(101,282,l),
(241,1234,ls),
(242,1238,o),
(243,1242,o),
(244,1246,cs),
(265,1321,o),
(412,1326,o),
(469,1331,cs),
(502,1334,o),
(519,1342,o),
(522,1368,cs),
(523,1383,o),
(516,1419,o),
(493,1419,cs),
(-32,1419,ls),
(-51,1419,o),
(-64,1395,o),
(-69,1378,cs),
(-77,1351,o),
(-68,1334,o),
(-42,1331,cs),
(17,1324,o),
(153,1321,o),
(141,1234,cs),
(-16,113,ls),
(-20,88,o),
(-31,77,o),
(-31,40,cs),
(-30,-16,o),
(40,-30,o),
(117,-30,cs),
(138,-30,o),
(237,-20,o),
(249,-8,c),
(1203,1180,l),
(1220,1180,l),
(1080,173,l),
(1058,98,o),
(910,93,o),
(851,88,cs),
(830,86,o),
(817,75,o),
(812,58,cs),
(804,33,o),
(815,0,o),
(838,0,cs),
(1356,0,ls)
);
}
);
width = 1699;
}
);
metricLeft = "=|N";
metricRight = "=|N";
unicode = 1048;
}
{
color = 0;
glyphname = "Pe-cy";
layers = (
{
anchors = (
{
name = bottom;
pos = (765,0);
},
{
name = center;
pos = (865,710);
},
{
name = top;
pos = (972,1419);
},
{
name = topleft;
pos = (150,1419);
}
);
layerId = "D92FDD0B-F694-41DD-AE46-0E4F694F0F38";
shapes = (
{
closed = 1;
nodes = (
(566,0,ls),
(589,0,o),
(600,36,o),
(602,51,cs),
(606,81,o),
(597,85,o),
(570,88,cs),
(513,94,o),
(430,98,o),
(430,171,c),
(593,1267,ls),
(600,1311,o),
(680,1333,o),
(744,1333,cs),
(884,1333,o),
(1025,1333,o),
(1165,1333,cs),
(1223,1333,o),
(1318,1320,o),
(1307,1248,cs),
(1145,152,ls,{
name = hr00;
}),
(1139,108,o),
(1056,92,o),
(991,88,cs),
(962,86,o),
(954,70,o),
(954,47,cs),
(954,31,o),
(965,0,o),
(986,0,cs),
(1491,0,ls),
(1514,0,o),
(1525,36,o),
(1527,51,cs),
(1531,81,o),
(1522,85,o),
(1495,88,cs),
(1438,94,o),
(1354,98,o),
(1354,171,c),
(1516,1267,ls),
(1521,1311,o),
(1605,1326,o),
(1669,1331,cs),
(1695,1334,o),
(1704,1347,o),
(1707,1368,cs),
(1708,1383,o),
(1702,1419,o),
(1679,1419,cs),
(259,1419,ls),
(239,1419,o),
(218,1388,o),
(218,1355,cs),
(218,1337,o),
(227,1333,o),
(250,1331,cs),
(307,1326,o),
(393,1320,o),
(382,1249,cs),
(219,152,ls),
(214,108,o),
(141,92,o),
(76,88,cs),
(47,86,o),
(39,70,o),
(39,47,cs),
(39,31,o),
(50,0,o),
(71,0,cs)
);
}
);
width = 1669;
},
{
anchors = (
{
name = bottom;
pos = (865,0);
},
{
name = center;
pos = (965,710);
},
{
name = top;
pos = (1078,1419);
},
{
name = topleft;
pos = (150,1419);
}
);
layerId = "BDB4B313-38B1-4B24-B843-560B185382BD";
shapes = (
{
closed = 1;
nodes = (
(724,1267,ls),
(731,1311,o),
(814,1326,o),
(877,1323,c),
(995,1323,o),
(1113,1324,o),
(1231,1324,cs),
(1293,1324,o),
(1387,1319,o),
(1377,1253,cs),
(1214,152,ls),
(1207,108,o),
(1123,93,o),
(1058,88,cs),
(1031,86,o),
(1023,72,o),
(1018,51,cs),
(1016,36,o),
(1024,0,o),
(1047,0,cs),
(1692,0,ls),
(1715,0,o),
(1731,23,o),
(1731,51,cs),
(1731,71,o),
(1729,85,o),
(1702,88,cs),
(1639,95,o),
(1546,98,o),
(1546,166,c),
(1709,1267,ls),
(1715,1311,o),
(1787,1325,o),
(1845,1331,cs),
(1875,1334,o),
(1884,1351,o),
(1884,1377,cs),
(1884,1394,o),
(1877,1419,o),
(1858,1419,c),
(268,1419,l),
(245,1419,o),
(225,1394,o),
(225,1377,cs),
(225,1347,o),
(228,1334,o),
(256,1331,cs),
(315,1325,o),
(402,1320,o),
(392,1255,cs),
(229,152,ls),
(222,108,o),
(142,93,o),
(73,88,cs),
(46,85,o),
(33,72,o),
(33,51,cs),
(33,36,o),
(39,0,o),
(62,0,cs),
(687,0,ls),
(710,0,o),
(726,24,o),
(726,51,cs),
(726,71,o),
(724,85,o),
(697,88,cs),
(642,94,o),
(561,98,o),
(561,165,c)
);
}
);
width = 1870;
}
);
unicode = 1055;
}
{
glyphname = quotereversed;
layers = (
{
layerId = "D92FDD0B-F694-41DD-AE46-0E4F694F0F38";
shapes = (
{
closed = 1;
nodes = (
(339,1048,o),
(368,1064,o),
(368,1090,cs),
(368,1100,o),
(364,1111,o),
(356,1127,cs),
(325,1189,o),
(316,1252,o),
(316,1305,cs),
(316,1337,o),
(320,1387,o),
(333,1417,c),
(436,1434,o),
(499,1480,o),
(499,1589,cs),
(499,1642,o),
(466,1681,o),
(400,1681,cs),
(282,1681,o),
(177,1533,o),
(177,1359,cs),
(177,1237,o),
(225,1134,o),
(290,1056,cs,{
name = hr00;
}),
(295,1050,o),
(305,1048,o),
(315,1048,cs)
);
}
);
width = 400;
},
{
layerId = "BDB4B313-38B1-4B24-B843-560B185382BD";
shapes = (
{
closed = 1;
nodes = (
(399,967,o),
(439,990,o),
(439,1024,cs),
(439,1031,o),
(438,1039,o),
(434,1047,cs),
(411,1098,o),
(402,1154,o),
(402,1205,cs),
(402,1252,o),
(415,1339,o),
(434,1383,c),
(516,1419,o),
(620,1442,o),
(620,1585,cs),
(620,1647,o),
(576,1701,o),
(493,1701,cs),
(325,1701,o),
(227,1524,o),
(227,1323,cs),
(227,1163,o),
(287,1012,o),
(335,976,cs),
(344,970,o),
(354,967,o),
(366,967,cs)
);
}
);
width = 550;
}
);
unicode = 8219;
}
{
glyphname = daggerdbl;
layers = (
{
background = {
shapes = (
{
closed = 1;
nodes = (
(510,-28,o),
(563,23,o),
(563,101,cs),
(563,131,o),
(540,337,o),
(539,393,c),
(546,450,l),
(637,760,l),
(632,1083,l),
(641,1139,l),
(663,1215,o),
(749,1414,o),
(749,1463,cs),
(749,1518,o),
(720,1557,o),
(663,1557,cs),
(596,1557,o),
(546,1506,o),
(546,1440,cs),
(546,1398,o),
(563,1196,o),
(566,1139,c),
(559,1083,l),
(469,760,l),
(473,450,l),
(464,393,l),
(419,262,o),
(358,110,o),
(358,65,cs),
(358,11,o),
(386,-28,o),
(445,-28,cs)
);
}
);
};
layerId = "D92FDD0B-F694-41DD-AE46-0E4F694F0F38";
shapes = (
{
closed = 1;
nodes = (
(593,380,o),
(769,322,o),
(813,322,cs),
(872,322,o),
(927,356,o),
(927,428,cs),
(927,483,o),
(883,511,o),
(823,511,cs),
(795,511,o),
(604,460,o),
(546,450,c),
(473,450,l),
(419,459,o),
(239,511,o),
(202,511,cs),
(142,511,o),
(82,472,o),
(82,396,cs),
(82,342,o),
(127,322,o),
(187,322,cs,{
name = hr00;
}),
(213,322,o),
(406,380,o),
(464,393,c),
(539,393,l)
);
},
{
closed = 1;
nodes = (
(687,1073,o),
(864,1022,o),
(892,1022,cs),
(962,1022,o),
(1023,1060,o),
(1023,1137,cs),
(1023,1191,o),
(979,1211,o),
(919,1211,cs),
(891,1211,o),
(698,1152,o),
(641,1139,c),
(566,1139,l),
(511,1151,o),
(335,1211,o),
(309,1211,cs),
(238,1211,o),
(178,1183,o),
(178,1105,cs),
(178,1050,o),
(222,1022,o),
(282,1022,cs),
(308,1022,o),
(502,1073,o),
(559,1083,c),
(632,1083,l)
);
},
{
closed = 1;
nodes = (
(637,760,l),
(632,1083,l),
(641,1139,l),
(655,1188,o),
(749,1414,o),
(749,1463,cs),
(749,1518,o),
(720,1557,o),
(663,1557,cs),
(596,1557,o),
(546,1506,o),
(546,1440,cs),
(546,1398,o),
(565,1187,o),
(566,1139,c),
(559,1083,l),
(469,760,l),
(473,450,l),
(464,393,l),
(446,342,o),
(358,110,o),
(358,65,cs),
(358,11,o),
(386,-28,o),
(445,-28,cs),
(510,-28,o),
(563,23,o),
(563,101,cs),
(563,131,o),
(540,337,o),
(539,393,c),
(546,450,l)
);
}
);
width = 967;
},
{
background = {
shapes = (
{
closed = 1;
nodes = (
(509,-28,o),
(552,24,o),
(561,91,cs),
(565,118,o),
(550,337,o),
(549,393,c),
(556,450,l),
(647,760,l),
(642,1083,l),
(651,1139,l),
(757,1502,o),
(753,1449,o),
(753,1493,cs),
(753,1549,o),
(723,1589,o),
(665,1589,cs),
(589,1589,o),
(545,1523,o),
(545,1443,cs),
(545,1372,o),
(553,1187,o),
(556,1139,c),
(549,1083,l),
(459,760,l),
(463,450,l),
(454,393,l),
(428,317,o),
(354,112,o),
(354,67,cs),
(354,12,o),
(383,-28,o),
(443,-28,cs)
);
},
{
closed = 1;
nodes = (
(228,322,o),
(396,380,o),
(454,393,c),
(549,393,l),
(603,380,o),
(767,322,o),
(796,322,cs),
(872,322,o),
(928,356,o),
(928,430,cs),
(928,486,o),
(883,515,o),
(822,515,cs),
(794,515,o),
(614,460,o),
(556,450,c),
(463,450,l),
(409,459,o),
(258,515,o),
(214,515,cs),
(142,515,o),
(81,475,o),
(81,397,cs),
(81,342,o),
(127,322,o),
(188,322,cs,{
name = hr00;
})
);
},
{
closed = 1;
nodes = (
(309,1022,o),
(492,1073,o),
(549,1083,c),
(642,1083,l),
(697,1073,o),
(862,1022,o),
(891,1022,cs),
(962,1022,o),
(1024,1061,o),
(1024,1139,cs),
(1024,1194,o),
(979,1215,o),
(918,1215,cs),
(890,1215,o),
(708,1152,o),
(651,1139,c),
(556,1139,l),
(501,1151,o),
(337,1215,o),
(310,1215,cs),
(238,1215,o),
(177,1186,o),
(177,1107,cs),
(177,1051,o),
(222,1022,o),
(283,1022,cs)
);
}
);
};
layerId = "BDB4B313-38B1-4B24-B843-560B185382BD";
shapes = (
{
closed = 1;
nodes = (
(603,380,o),
(767,322,o),
(796,322,cs),
(872,322,o),
(928,356,o),
(928,430,cs),
(928,486,o),
(883,515,o),
(822,515,cs),
(794,515,o),
(614,460,o),
(556,450,c),
(463,450,l),
(409,459,o),
(258,515,o),
(214,515,cs),
(142,515,o),
(81,475,o),
(81,397,cs),
(81,342,o),
(127,322,o),
(188,322,cs,{
name = hr00;
}),
(228,322,o),
(396,380,o),
(454,393,c),
(549,393,l)
);
},
{
closed = 1;
nodes = (
(697,1073,o),
(862,1022,o),
(891,1022,cs),
(962,1022,o),
(1024,1061,o),
(1024,1139,cs),
(1024,1194,o),
(979,1215,o),
(918,1215,cs),
(890,1215,o),
(708,1152,o),
(651,1139,c),
(556,1139,l),
(501,1151,o),
(337,1215,o),
(310,1215,cs),
(238,1215,o),
(177,1186,o),
(177,1107,cs),
(177,1051,o),
(222,1022,o),
(283,1022,cs),
(309,1022,o),
(492,1073,o),
(549,1083,c),
(642,1083,l)
);
},
{
closed = 1;
nodes = (
(647,760,l),
(642,1083,l),
(651,1139,l),
(665,1188,o),
(753,1449,o),
(753,1493,cs),
(753,1549,o),
(723,1589,o),
(665,1589,cs),
(589,1589,o),
(545,1523,o),
(545,1443,cs),
(545,1372,o),
(553,1187,o),
(556,1139,c),
(549,1083,l),
(459,760,l),
(463,450,l),
(454,393,l),
(428,317,o),
(354,112,o),
(354,67,cs),
(354,12,o),
(383,-28,o),
(443,-28,cs),
(509,-28,o),
(552,24,o),
(561,91,cs),
(565,118,o),
(550,337,o),
(549,393,c),
(556,450,l)
);
}
);
width = 987;
}
);
unicode = 8225;
}
{
glyphname = perthousand;
layers = (
{
layerId = "D92FDD0B-F694-41DD-AE46-0E4F694F0F38";
shapes = (
{
closed = 1;
nodes = (
(667,711,o),
(823,903,o),
(823,1151,cs),
(823,1336,o),
(716,1449,o),
(533,1449,cs,{
name = hr02;
}),
(294,1449,o),
(142,1245,o),
(142,1001,cs),
(142,821,o),
(247,711,o),
(425,711,cs,{
name = hr01;
})
);
},
{
closed = 1;
nodes = (
(339,788,o),
(298,846,o),
(298,964,cs),
(298,1164,o),
(353,1372,o),
(517,1372,cs),
(615,1372,o),
(657,1312,o),
(657,1190,cs),
(657,990,o),
(603,788,o),
(438,788,cs)
);
},
{
closed = 1;
nodes = (
(516,0,l,{
name = hr00;
}),
(1344,1419,l),
(1197,1419,l),
(371,0,l)
);
},
{
closed = 1;
nodes = (
(1439,-29,o),
(1595,163,o),
(1595,411,cs),
(1595,596,o),
(1488,709,o),
(1305,709,cs),
(1064,709,o),
(914,505,o),
(914,261,cs),
(914,81,o),
(1019,-29,o),
(1197,-29,cs)
);
},
{
closed = 1;
nodes = (
(1111,48,o),
(1070,106,o),
(1070,224,cs),
(1070,424,o),
(1125,632,o),
(1289,632,cs),
(1387,632,o),
(1429,572,o),
(1429,450,cs),
(1429,250,o),
(1375,48,o),
(1210,48,cs)
);
},
{
closed = 1;
nodes = (
(2226,-29,o),
(2382,163,o),
(2382,411,cs),
(2382,596,o),
(2275,709,o),
(2092,709,cs),
(1851,709,o),
(1701,505,o),
(1701,261,cs),
(1701,81,o),
(1806,-29,o),
(1984,-29,cs)
);
},
{
closed = 1;
nodes = (
(1898,48,o),
(1857,106,o),
(1857,224,cs),
(1857,424,o),
(1912,632,o),
(2076,632,cs),
(2174,632,o),
(2216,572,o),
(2216,450,cs),
(2216,250,o),
(2162,48,o),
(1997,48,cs)
);
}
);
width = 2514;
},
{
layerId = "BDB4B313-38B1-4B24-B843-560B185382BD";
shapes = (
{
closed = 1;
nodes = (
(753,711,o),
(928,892,o),
(928,1130,cs),
(928,1328,o),
(793,1449,o),
(566,1449,cs),
(274,1449,o),
(104,1257,o),
(104,1023,cs),
(104,830,o),
(236,711,o),
(458,711,cs)
);
},
{
closed = 1;
nodes = (
(372,798,o),
(331,852,o),
(331,984,cs),
(331,1175,o),
(396,1362,o),
(550,1362,cs),
(648,1362,o),
(690,1306,o),
(690,1170,cs),
(690,1031,o),
(657,798,o),
(471,798,cs)
);
},
{
closed = 1;
nodes = (
(531,0,l),
(1499,1419,l),
(1332,1419,l),
(366,0,l)
);
},
{
closed = 1;
nodes = (
(1596,-28,o),
(1761,153,o),
(1761,391,cs),
(1761,589,o),
(1626,710,o),
(1399,710,cs),
(1107,710,o),
(937,518,o),
(937,284,cs),
(937,91,o),
(1069,-28,o),
(1291,-28,cs)
);
},
{
closed = 1;
nodes = (
(1205,59,o),
(1164,113,o),
(1164,245,cs),
(1164,436,o),
(1229,623,o),
(1383,623,cs),
(1481,623,o),
(1523,567,o),
(1523,431,cs),
(1523,292,o),
(1490,59,o),
(1304,59,cs)
);
},
{
closed = 1;
nodes = (
(2491,-28,o),
(2656,153,o),
(2656,391,cs),
(2656,589,o),
(2521,710,o),
(2294,710,cs),
(2002,710,o),
(1832,518,o),
(1832,284,cs),
(1832,91,o),
(1964,-28,o),
(2186,-28,cs)
);
},
{
closed = 1;
nodes = (
(2100,59,o),
(2059,113,o),
(2059,245,cs),
(2059,436,o),
(2124,623,o),
(2278,623,cs),
(2376,623,o),
(2418,567,o),
(2418,431,cs),
(2418,292,o),
(2385,59,o),
(2199,59,cs)
);
}
);
width = 2697;
}
);
unicode = 8240;
}
{
glyphname = guilsinglleft;
layers = (
{
layerId = "D92FDD0B-F694-41DD-AE46-0E4F694F0F38";
shapes = (
{
closed = 1;
nodes = (
(628,139,l),
(330,499,l),
(723,840,l),
(744,986,l),
(151,569,l),
(134,450,l,{
name = hr00;
}),
(607,15,l)
);
}
);
width = 850;
},
{
layerId = "BDB4B313-38B1-4B24-B843-560B185382BD";
shapes = (
{
closed = 1;
nodes = (
(621,167,l),
(393,497,l),
(696,818,l),
(727,994,l),
(134,567,l),
(117,448,l),
(590,23,l)
);
}
);
width = 811;
}
);
unicode = 8249;
}
{
glyphname = franc;
kernLeft = franc;
kernRight = franc;
layers = (
{
layerId = "D92FDD0B-F694-41DD-AE46-0E4F694F0F38";
shapes = (
{
closed = 1;
nodes = (
(712,287,l),
(726,293,o),
(736,335,o),
(736,360,cs),
(736,376,o),
(728,393,o),
(712,394,c),
(113,394,l),
(99,388,o),
(89,366,o),
(89,341,cs),
(89,325,o),
(97,288,o),
(113,287,c)
);
},
{
pos = (-10,0);
ref = F;
}
);
width = 1227;
},
{
layerId = "BDB4B313-38B1-4B24-B843-560B185382BD";
shapes = (
{
closed = 1;
nodes = (
(848,286,l),
(862,292,o),
(872,334,o),
(872,359,cs),
(872,375,o),
(864,392,o),
(848,393,c),
(159,393,l),
(145,387,o),
(135,365,o),
(135,340,cs),
(135,324,o),
(143,287,o),
(159,286,c)
);
},
{
pos = (6,0);
ref = F;
}
);
width = 1413;
}
);
unicode = 8355;
}
{
glyphname = won;
kernLeft = won;
kernRight = won;
layers = (
{
anchors = (
{
name = bottom;
pos = (909,0);
},
{
name = top;
pos = (1202,1419);
}
);
layerId = "D92FDD0B-F694-41DD-AE46-0E4F694F0F38";
shapes = (
{
closed = 1;
nodes = (
(340,681,l),
(417,-18,l,{
name = hr00;
}),
(540,-18,l),
(899,681,l),
(1147,681,l),
(1230,-18,l),
(1353,-18,l),
(1695,681,l),
(1914,681,l),
(1928,687,o),
(1938,729,o),
(1938,754,cs),
(1938,770,o),
(1930,787,o),
(1914,788,cs),
(1747,788,l),
(1975,1254,l),
(2015,1344,o),
(2087,1326,o),
(2137,1331,cs),
(2165,1334,o),
(2175,1338,o),
(2180,1368,c),
(2181,1383,o),
(2176,1419,o),
(2154,1419,cs),
(1709,1419,ls),
(1689,1419,o),
(1666,1387,o),
(1666,1355,cs),
(1666,1341,o),
(1672,1331,o),
(1693,1331,cs),
(1782,1331,o),
(1838,1319,o),
(1838,1285,cs),
(1838,1279,o),
(1837,1273,o),
(1834,1267,cs),
(1617,788,l),
(1320,788,l),
(1246,1399,l),
(1143,1399,l),
(835,788,l),
(527,788,l),
(483,1261,ls),
(479,1309,o),
(538,1331,o),
(651,1331,cs),
(677,1331,o),
(687,1347,o),
(691,1368,c),
(692,1383,o),
(688,1419,o),
(665,1419,cs),
(150,1419,ls),
(127,1419,o),
(106,1381,o),
(106,1353,cs),
(106,1336,o),
(115,1333,o),
(137,1331,cs),
(185,1326,o),
(266,1343,o),
(277,1254,cs),
(328,788,l),
(153,788,l),
(139,782,o),
(129,760,o),
(129,735,cs),
(129,719,o),
(137,682,o),
(153,681,cs)
);
},
{
closed = 1;
nodes = (
(781,681,l),
(582,286,l),
(573,286,l),
(537,681,l)
);
},
{
closed = 1;
nodes = (
(1090,1053,l),
(1103,1053,l),
(1134,788,l),
(954,788,l)
);
},
{
closed = 1;
nodes = (
(1569,681,l),
(1388,281,l),
(1381,281,l),
(1333,681,l)
);
}
);
width = 1998;
},
{
anchors = (
{
name = bottom;
pos = (985,0);
},
{
name = top;
pos = (1393,1419);
}
);
layerId = "BDB4B313-38B1-4B24-B843-560B185382BD";
shapes = (
{
closed = 1;
nodes = (
(336,681,l),
(416,-18,l),
(669,-18,l),
(1021,681,l),
(1240,681,l),
(1294,-18,l),
(1562,-18,l),
(1943,681,l),
(2135,681,l),
(2149,687,o),
(2159,729,o),
(2159,754,cs),
(2159,770,o),
(2151,787,o),
(2135,788,cs),
(2002,788,l),
(2256,1254,ls),
(2296,1328,o),
(2391,1326,o),
(2442,1331,cs),
(2470,1334,o),
(2486,1341,o),
(2486,1377,cs),
(2486,1394,o),
(2479,1419,o),
(2461,1419,cs),
(1916,1419,ls),
(1896,1419,o),
(1871,1405,o),
(1871,1355,cs),
(1871,1341,o),
(1877,1331,o),
(1898,1331,cs),
(1994,1331,o),
(2090,1307,o),
(2090,1260,cs),
(2090,1255,o),
(2088,1249,o),
(2085,1242,cs),
(1860,788,l),
(1552.005,788,l),
(1493,1399,l),
(1244,1399,l),
(953,788,l),
(654,788,l),
(609,1261,ls),
(604,1309,o),
(692,1331,o),
(803,1331,cs),
(830,1331,o),
(844,1352,o),
(844,1378,cs),
(844,1395,o),
(838,1419,o),
(819,1419,cs),
(119,1419,ls),
(97,1419,o),
(73,1392,o),
(73,1353,cs),
(73,1336,o),
(82,1333,o),
(104,1331,cs),
(152,1326,o),
(263,1343,o),
(270,1254,c),
(323,788,l),
(153,788,l),
(139,782,o),
(129,760,o),
(129,735,cs),
(129,719,o),
(137,682,o),
(153,681,cs)
);
},
{
closed = 1;
nodes = (
(902,681,l),
(716,291,l),
(702,291,l),
(665,681,l)
);
},
{
closed = 1;
nodes = (
(1201,1039,l),
(1212,1039,l),
(1231,788,l),
(1075,788,l)
);
},
{
closed = 1;
nodes = (
(1807,681,l),
(1613,291,l),
(1600,291,l),
(1562,681,l)
);
}
);
width = 2306;
}
);
unicode = 8361;
}
{
color = 1;
glyphname = cedi;
kernLeft = O;
kernRight = C;
layers = (
{
anchors = (
{
name = bottom;
pos = (715,0);
},
{
name = top;
pos = (916,1419);
}
);
layerId = "D92FDD0B-F694-41DD-AE46-0E4F694F0F38";
shapes = (
{
closed = 1;
nodes = (
(607,-214,l),
(610,-229,o),
(651,-241,o),
(676,-241,cs),
(692,-241,o),
(710,-232,o),
(714,-214,c),
(961,1611,l),
(957,1626,o),
(936,1638,o),
(911,1638,cs),
(895,1638,o),
(857,1629,o),
(854,1611,c)
);
},
{
closed = 1;
nodes = (
(968,-30,o),
(1152,80,o),
(1161,108,c),
(1188,375,ls),
(1190,396,o),
(1135,406,o),
(1120,406,cs),
(1098,406,o),
(1090,399,o),
(1080,373,c),
(1031,200,o),
(993,65,o),
(728,65,cs),
(494,65,o),
(378,346,o),
(378,646,cs),
(378,1185,o),
(713,1353,o),
(929,1353,cs),
(1129,1353,o),
(1187,1256,o),
(1184,1039,c),
(1188,1017,o),
(1209,1010,o),
(1227,1010,cs),
(1242,1010,o),
(1289,1020,o),
(1288,1051,c),
(1316,1361,l),
(1254,1392,o),
(1174,1449,o),
(939,1449,cs),
(595,1449,o),
(131,1152,o),
(131,609,cs),
(131,198,o),
(403,-30,o),
(739,-30,cs,{
name = hr00;
})
);
}
);
width = 1315;
},
{
anchors = (
{
name = bottom;
pos = (776,0);
},
{
name = top;
pos = (969,1419);
}
);
layerId = "BDB4B313-38B1-4B24-B843-560B185382BD";
shapes = (
{
closed = 1;
nodes = (
(693,-250,l),
(696,-266,o),
(737,-277,o),
(762,-277,cs),
(778,-277,o),
(796,-268,o),
(800,-250,c),
(1047,1649,l),
(1043,1665,o),
(1022,1676,o),
(997,1676,cs),
(981,1676,o),
(943,1667,o),
(940,1649,c)
);
},
{
closed = 1;
nodes = (
(1034,-27,o),
(1277,70,o),
(1286,98,c),
(1327,375,l),
(1327,396,o),
(1262,406,o),
(1245,406,cs),
(1218,406,o),
(1202,398,o),
(1190,372,cs),
(1090,155,o),
(1014,65,o),
(788,65,cs),
(613,65,o),
(469,252,o),
(469,621,cs),
(469,1115,o),
(718,1353,o),
(959,1353,cs),
(1164,1353,o),
(1272,1263,o),
(1272,1080,cs),
(1272,1042,o),
(1286,1020,o),
(1333,1020,cs),
(1350,1020,o),
(1415,1030,o),
(1416,1061,c),
(1454,1361,l),
(1389,1392,o),
(1241,1449,o),
(976,1449,cs),
(479,1449,o),
(96,1119,o),
(96,629,cs),
(96,261,o),
(289,-27,o),
(774,-27,cs)
);
}
);
width = 1464;
}
);
unicode = 8373;
}
{
glyphname = rupeeIndian;
kernLeft = uni20B9;
kernRight = uni20B9;
layers = (
{
layerId = "D92FDD0B-F694-41DD-AE46-0E4F694F0F38";
shapes = (
{
closed = 1;
nodes = (
(236,1420,l),
(221,1414,o),
(209,1392,o),
(204,1367,cs),
(201,1351,o),
(204,1314,o),
(220,1313,c),
(655,1313,l),
(769,1289,o),
(845,1220,o),
(840,1074,c),
(184,1074,l),
(170,1068,o),
(157,1046,o),
(152,1021,cs),
(149,1005,o),
(153,968,o),
(168,967,c),
(825,967,l),
(773,766,o),
(611,711,o),
(458,711,cs),
(130,711,l),
(115,705,o),
(103,683,o),
(98,658,cs),
(95,642,o),
(98,605,o),
(114,604,c),
(574,604,l),
(744,495,o),
(590,0,o),
(885,0,cs),
(1088,0,ls),
(1110,0,o),
(1127,31,o),
(1129,46,cs),
(1133,76,o),
(1127,86,o),
(1099,89,cs),
(1051,94,o),
(988,119,o),
(956,206,c),
(868,389,o),
(919,628,o),
(658,654,c),
(850,704,o),
(977,806,o),
(1030,967,c),
(1220,967,l),
(1235,973,o),
(1255,1013,o),
(1255,1040,cs),
(1255,1056,o),
(1252,1073,o),
(1236,1074,c),
(1052,1074,l),
(1062,1182,o),
(1031,1259,o),
(970,1313,c),
(1273,1313,l),
(1288,1319,o),
(1308,1365,o),
(1308,1386,cs),
(1308,1402,o),
(1305,1419,o),
(1289,1420,c)
);
}
);
width = 1257;
},
{
layerId = "BDB4B313-38B1-4B24-B843-560B185382BD";
shapes = (
{
closed = 1;
nodes = (
(230,1420,l),
(215,1414,o),
(198,1392,o),
(198,1367,cs),
(198,1351,o),
(198,1314,o),
(214,1313,c),
(607,1313,l),
(706,1286,o),
(742,1208,o),
(733,1080,c),
(175,1080,l),
(160,1074,o),
(143,1052,o),
(143,1027,cs),
(143,1011,o),
(143,974,o),
(159,973,c),
(718,973,l),
(677,773,o),
(577,711,o),
(423,711,cs),
(122,711,l),
(107,705,o),
(90,683,o),
(90,658,cs),
(90,642,o),
(90,605,o),
(106,604,c),
(412,604,l),
(586,554,o),
(546,0,o),
(792,0,cs),
(1078,0,ls),
(1100,0,o),
(1117,31,o),
(1119,46,cs),
(1123,76,o),
(1117,89,o),
(1089,89,cs),
(1013,89,o),
(950,159,o),
(918,246,c),
(830,429,o),
(842,605,o),
(607,635,c),
(808,687,o),
(1026,758,o),
(1091,973,c),
(1284,973,l),
(1299,979,o),
(1319,1021,o),
(1319,1046,cs),
(1319,1062,o),
(1316,1079,o),
(1300,1080,c),
(1111,1080,l),
(1120,1184,o),
(1089,1260,o),
(1025,1313,c),
(1336,1313,l),
(1351,1319,o),
(1371,1362,o),
(1371,1386,cs),
(1371,1402,o),
(1368,1419,o),
(1352,1420,c)
);
}
);
width = 1300;
}
);
unicode = 8377;
}
{
glyphname = literSign;
kernLeft = uni2113;
kernRight = uni2113;
layers = (
{
layerId = "D92FDD0B-F694-41DD-AE46-0E4F694F0F38";
shapes = (
{
closed = 1;
nodes = (
(-21,40,l),
(25,77,o),
(65,109,o),
(110,154,c),
(161,40,o),
(266,-10,o),
(344,-10,cs),
(546,-10,o),
(619,239,o),
(644,395,c),
(579,411,l),
(547,246,o),
(452,109,o),
(361,109,cs),
(315,109,o),
(261,143,o),
(232,255,c),
(514,501,o),
(732,889,o),
(732,1230,cs),
(732,1362,o),
(681,1450,o),
(524,1450,cs),
(291,1450,o),
(74,964,o),
(74,484,cs),
(74,431,o),
(77,337,o),
(82,292,c),
(21,233,o),
(-42,181,o),
(-120,127,c)
);
},
{
closed = 1;
nodes = (
(212,453,ls),
(212,807,o),
(322,1364,o),
(491,1364,cs),
(524,1364,o),
(550,1323,o),
(550,1248,cs),
(550,1008,o),
(472,696,o),
(212,403,c)
);
}
);
width = 662;
},
{
layerId = "BDB4B313-38B1-4B24-B843-560B185382BD";
shapes = (
{
closed = 1;
nodes = (
(53,26,l),
(90,51,o),
(140,93,o),
(179,126,c),
(225,41,o),
(291,-12,o),
(375,-12,cs),
(571,-12,o),
(661,223,o),
(700,403,c),
(611,432,l),
(586,307,o),
(511,178,o),
(419,178,cs),
(382,178,o),
(345,196,o),
(319,263,c),
(573,555,o),
(748,878,o),
(748,1190,cs),
(748,1376,o),
(659,1483,o),
(555,1483,cs),
(314,1483,o),
(95,1059,o),
(95,562,cs),
(95,473,o),
(102,392,o),
(115,321,c),
(61,267,o),
(1,214,o),
(-81,156,c)
);
},
{
closed = 1;
nodes = (
(280,593,l),
(280,1016,o),
(371,1333,o),
(477,1333,cs),
(499,1333,o),
(516,1289,o),
(516,1218,cs),
(516,979,o),
(423,709,o),
(280,517,c)
);
}
);
width = 662;
}
);
unicode = 8467;
}
{
glyphname = servicemark;
layers = (
{
layerId = "D92FDD0B-F694-41DD-AE46-0E4F694F0F38";
shapes = (
{
closed = 1;
nodes = (
(700,748,o),
(812,818,o),
(812,940,cs),
(812,1034,o),
(689,1108,o),
(573,1155,cs),
(473,1196,o),
(391,1238,o),
(391,1298,cs),
(391,1366,o),
(457,1383,o),
(518,1383,cs),
(592,1383,o),
(684,1353,o),
(701,1252,cs),
(702,1246,o),
(732,1242,o),
(745,1242,cs),
(762,1242,o),
(778,1249,o),
(778,1269,cs),
(778,1271,o),
(778,1274,o),
(777,1276,cs),
(753,1324,o),
(762,1401,o),
(762,1413,cs),
(762,1423,o),
(743,1431,o),
(727,1431,cs),
(721,1431,o),
(716,1431,o),
(710,1428,cs),
(698,1422,o),
(695,1415,o),
(674,1415,cs),
(670,1415,o),
(664,1416,o),
(658,1416,cs),
(635,1416,o),
(583,1439,o),
(508,1439,cs),
(393,1439,o),
(249,1390,o),
(249,1261,cs),
(249,1150,o),
(344,1090,o),
(461,1046,cs),
(575,1003,o),
(639,971,o),
(639,909,cs),
(639,847,o),
(589,814,o),
(513,814,cs),
(447,814,o),
(381,829,o),
(336,901,cs),
(302,955,o),
(294,973,o),
(290,987,cs),
(286,1000,o),
(267,1005,o),
(252,1005,cs),
(235,1005,o),
(210,996,o),
(213,976,c),
(218,945,o),
(226,888,o),
(226,832,cs),
(226,819,o),
(225,807,o),
(225,795,cs),
(225,782,o),
(235,773,o),
(251,773,cs),
(264,773,o),
(280,779,o),
(296,793,cs),
(303,799,o),
(309,801,o),
(315,801,cs),
(329,801,o),
(343,789,o),
(368,782,cs),
(396,774,o),
(445,748,o),
(548,748,cs)
);
},
{
closed = 1;
nodes = (
(1261,749,ls),
(1281,749,o),
(1291,764,o),
(1291,777,cs),
(1291,804,o),
(1284,808,o),
(1259,811,cs),
(1215,816,o),
(1158,820,o),
(1158,898,cs),
(1158,1295,l),
(1380,915,l),
(1425,915,l),
(1652,1366,l),
(1651,868,ls),
(1651,829,o),
(1615,815,o),
(1584,811,cs),
(1561,808,o),
(1554,803,o),
(1554,784,cs),
(1554,771,o),
(1564,749,o),
(1585,749,cs),
(1877,749,ls),
(1898,749,o),
(1908,764,o),
(1908,777,cs),
(1908,804,o),
(1901,808,o),
(1876,811,cs),
(1842,815,o),
(1802,820,o),
(1802,898,cs),
(1803,1308,ls),
(1803,1348,o),
(1849,1361,o),
(1879,1366,c),
(1903,1369,o),
(1909,1380,o),
(1909,1399,cs),
(1909,1413,o),
(1899,1427,o),
(1878,1427,cs),
(1586,1427,l),
(1436,1142,l),
(1425,1142,l),
(1252,1427,l,{
name = hr05;
}),
(969,1427,l,{
name = hr03;
}),
(948,1426,o),
(938,1413,o),
(938,1399,cs),
(938,1372,o),
(946,1369,o),
(971,1366,cs),
(1015,1361,o),
(1071,1356,o),
(1071,1279,cs),
(1071,897,ls),
(1071,821,o),
(1020,815,o),
(976,811,c),
(953,808,o),
(947,796,o),
(947,777,cs),
(947,764,o),
(956,749,o),
(977,749,cs)
);
}
);
width = 1969;
},
{
layerId = "BDB4B313-38B1-4B24-B843-560B185382BD";
shapes = (
{
closed = 1;
nodes = (
(875,655,o),
(996,728,o),
(996,868,cs),
(996,977,o),
(862,1066,o),
(729,1119,cs),
(613,1165,o),
(540,1211,o),
(540,1279,cs),
(540,1358,o),
(596,1377,o),
(666,1377,cs),
(751,1377,o),
(857,1343,o),
(876,1226,cs),
(877,1220,o),
(912,1215,o),
(926,1215,cs),
(946,1215,o),
(965,1223,o),
(965,1246,cs),
(965,1248,o),
(965,1252,o),
(964,1254,cs),
(936,1310,o),
(946,1398,o),
(946,1411,cs),
(946,1423,o),
(924,1432,o),
(906,1432,cs),
(899,1432,o),
(893,1432,o),
(887,1429,cs),
(872,1422,o),
(869,1413,o),
(845,1413,cs),
(840,1413,o),
(834,1416,o),
(826,1415,cs),
(800,1412,o),
(740,1442,o),
(655,1441,cs),
(523,1439,o),
(361,1386,o),
(361,1236,cs),
(361,1110,o),
(465,1034,o),
(601,983,cs),
(732,934,o),
(798,904,o),
(798,833,cs),
(798,761,o),
(747,731,o),
(660,731,cs),
(584,731,o),
(508,740,o),
(457,823,cs),
(418,886,o),
(409,906,o),
(404,922,cs),
(399,938,o),
(377,943,o),
(360,943,cs),
(351,943,o),
(323,933,o),
(326,910,c),
(331,874,o),
(340,809,o),
(340,744,cs),
(340,729,o),
(339,716,o),
(339,702,cs),
(339,688,o),
(351,677,o),
(369,677,cs),
(384,677,o),
(393,683,o),
(410,700,cs),
(418,708,o),
(426,709,o),
(432,709,cs),
(449,709,o),
(464,695,o),
(494,687,cs),
(526,679,o),
(582,655,o),
(701,655,cs)
);
},
{
closed = 1;
nodes = (
(1475,666,ls),
(1498,666,o),
(1509,682,o),
(1509,697,cs),
(1509,727,o),
(1501,731,o),
(1473,734,cs),
(1424,739,o),
(1361,745,o),
(1361,831,cs),
(1361,1263,l),
(1607,850,l),
(1657,850,l),
(1888,1351,l),
(1887,798,ls),
(1887,754,o),
(1846,739,o),
(1812,734,cs),
(1786,730,o),
(1779,726,o),
(1779,705,cs),
(1779,690,o),
(1790,666,o),
(1813,666,cs),
(2162,666,ls),
(2185,666,o),
(2196,682,o),
(2196,697,cs),
(2196,727,o),
(2188,731,o),
(2160,734,cs),
(2123,738,o),
(2078,745,o),
(2078,831,cs),
(2079,1287,ls),
(2079,1331,o),
(2120,1346,o),
(2154,1351,cs),
(2180,1355,o),
(2187,1367,o),
(2187,1388,cs),
(2187,1403,o),
(2176,1419,o),
(2153,1419,c),
(1814,1419,l),
(1675,1102,l),
(1663,1102,l),
(1485,1419,l),
(1151,1419,l),
(1128,1418,o),
(1117,1403,o),
(1117,1388,cs),
(1117,1358,o),
(1125,1354,o),
(1153,1351,cs),
(1202,1346,o),
(1254,1340,o),
(1254,1254,cs),
(1254,830,ls),
(1254,746,o),
(1208,740,o),
(1159,734,cs),
(1133,731,o),
(1126,718,o),
(1126,697,cs),
(1126,682,o),
(1137,666,o),
(1160,666,cs)
);
}
);
width = 2312;
}
);
unicode = 8480;
}
{
glyphname = leftArrow;
kernLeft = leftArrow;
kernRight = leftArrow;
layers = (
{
layerId = "D92FDD0B-F694-41DD-AE46-0E4F694F0F38";
shapes = (
{
closed = 1;
nodes = (
(786,242,l),
(435,598,l),
(568,585,l),
(1459,585,l),
(1459,793,l),
(568,793,l),
(435,780,l),
(786,1136,l),
(664,1279,l),
(72,689,l),
(664,99,l)
);
}
);
width = 1487;
},
{
layerId = "BDB4B313-38B1-4B24-B843-560B185382BD";
shapes = (
{
closed = 1;
nodes = (
(785,242,l),
(434,598,l),
(567,585,l),
(1458,585,l),
(1458,793,l),
(567,793,l),
(434,780,l),
(785,1136,l),
(663,1279,l),
(71,689,l),
(663,99,l)
);
}
);
width = 1487;
}
);
unicode = 8592;
}
{
glyphname = rightArrow;
kernLeft = rightArrow;
kernRight = rightArrow;
layers = (
{
layerId = "D92FDD0B-F694-41DD-AE46-0E4F694F0F38";
shapes = (
{
closed = 1;
nodes = (
(1474,689,l),
(882,1279,l),
(760,1136,l),
(1111,780,l),
(978,793,l),
(87,793,l),
(87,585,l),
(978,585,l),
(1111,598,l),
(760,242,l),
(882,99,l)
);
}
);
width = 1487;
},
{
layerId = "BDB4B313-38B1-4B24-B843-560B185382BD";
shapes = (
{
closed = 1;
nodes = (
(1474,689,l),
(882,1279,l),
(760,1136,l),
(1111,780,l),
(978,793,l),
(87,793,l),
(87,585,l),
(978,585,l),
(1111,598,l),
(760,242,l),
(882,99,l)
);
}
);
width = 1487;
}
);
unicode = 8594;
}
{
glyphname = northWestArrow;
kernLeft = northWestArrow;
kernRight = northWestArrow;
layers = (
{
layerId = "D92FDD0B-F694-41DD-AE46-0E4F694F0F38";
shapes = (
{
closed = 1;
nodes = (
(1142,288,l),
(512,919,l),
(409,1004,l),
(909,1006,l),
(923,1194,l),
(87,1196,l),
(89,359,l),
(276,376,l),
(280,875,l),
(364,771,l),
(994,142,l)
);
}
);
width = 1155;
},
{
layerId = "BDB4B313-38B1-4B24-B843-560B185382BD";
shapes = (
{
closed = 1;
nodes = (
(1142,288,l),
(512,919,l),
(409,1004,l),
(909,1006,l),
(923,1194,l),
(87,1196,l),
(89,359,l),
(276,376,l),
(280,875,l),
(364,771,l),
(994,142,l)
);
}
);
width = 1156;
}
);
unicode = 8598;
}
{
glyphname = northEastArrow;
kernLeft = northEastArrow;
kernRight = northEastArrow;
layers = (
{
layerId = "D92FDD0B-F694-41DD-AE46-0E4F694F0F38";
shapes = (
{
closed = 1;
nodes = (
(803,771,l),
(888,874,l),
(890,374,l),
(1078,360,l),
(1080,1196,l),
(243,1194,l),
(260,1007,l),
(759,1003,l),
(655,919,l),
(26,289,l),
(172,141,l)
);
}
);
width = 1154;
},
{
layerId = "BDB4B313-38B1-4B24-B843-560B185382BD";
shapes = (
{
closed = 1;
nodes = (
(803,771,l),
(888,874,l),
(890,374,l),
(1078,360,l),
(1080,1196,l),
(243,1194,l),
(260,1007,l),
(759,1003,l),
(655,919,l),
(26,289,l),
(172,141,l)
);
}
);
width = 1154;
}
);
unicode = 8599;
}
{
glyphname = partialdiff;
layers = (
{
layerId = "D92FDD0B-F694-41DD-AE46-0E4F694F0F38";
shapes = (
{
closed = 1;
nodes = (
(795,-19,o),
(1149,569,o),
(1149,1054,cs),
(1149,1230,o),
(1085,1439,o),
(751,1439,cs,{
name = hr00;
}),
(567,1439,o),
(349,1331,o),
(349,1144,cs),
(349,1103,o),
(386,1084,o),
(415,1084,cs),
(472,1084,o),
(541,1217,o),
(593,1310,c),
(593,1310,o),
(647,1344,o),
(722,1344,cs),
(894,1344,o),
(951,1219,o),
(951,1040,cs),
(951,956,o),
(938,865,o),
(919,768,c),
(893,834,o),
(821,923,o),
(637,923,cs),
(323,923,o),
(49,626,o),
(49,306,cs),
(49,143,o),
(124,-19,o),
(382,-19,cs)
);
},
{
closed = 1;
nodes = (
(259,76,o),
(234,172,o),
(234,248,cs),
(234,490,o),
(419,805,o),
(645,805,cs),
(781,805,o),
(828,752,o),
(893,649,c),
(801,357,o),
(604,76,o),
(393,76,cs)
);
}
);
width = 1180;
},
{
layerId = "BDB4B313-38B1-4B24-B843-560B185382BD";
shapes = (
{
closed = 1;
nodes = (
(930,-19,o),
(1288,486,o),
(1288,963,cs),
(1288,1216,o),
(1150,1459,o),
(801,1459,cs),
(598,1459,o),
(344,1369,o),
(344,1185,cs),
(344,1115,o),
(395,1067,o),
(462,1067,cs),
(521,1067,o),
(666,1271,o),
(726,1362,c),
(739,1363,o),
(752,1364,o),
(767,1364,cs),
(920,1364,o),
(976,1228,o),
(976,1046,cs),
(976,990,o),
(966,882,o),
(955,831,c),
(907,883,o),
(821,933,o),
(682,933,cs),
(361,933,o),
(68,654,o),
(68,342,cs),
(68,169,o),
(176,-19,o),
(497,-19,cs)
);
},
{
closed = 1;
nodes = (
(404,76,o),
(382,181,o),
(382,259,cs),
(382,482,o),
(555,805,o),
(759,805,cs),
(826,805,o),
(888,762,o),
(929,700,c),
(849,347,o),
(697,76,o),
(528,76,cs)
);
}
);
width = 1325;
}
);
unicode = 8706;
}
{
glyphname = minus;
layers = (
{
layerId = "D92FDD0B-F694-41DD-AE46-0E4F694F0F38";
shapes = (
{
closed = 1;
nodes = (
(1114,496,l),
(1132,622,l),
(222,622,l),
(204,496,l,{
name = hr00;
})
);
}
);
width = 1317;
},
{
layerId = "BDB4B313-38B1-4B24-B843-560B185382BD";
shapes = (
{
closed = 1;
nodes = (
(1178,496,l),
(1196,622,l),
(281,622,l),
(263,496,l)
);
}
);
width = 1440;
}
);
unicode = 8722;
}
{
glyphname = divisionslash;
kernLeft = uni2215;
kernRight = uni2215;
layers = (
{
layerId = "D92FDD0B-F694-41DD-AE46-0E4F694F0F38";
shapes = (
{
closed = 1;
nodes = (
(80,-415,l),
(861,1625,l),
(724,1625,l),
(-55,-415,l)
);
}
);
width = 960;
},
{
layerId = "BDB4B313-38B1-4B24-B843-560B185382BD";
shapes = (
{
closed = 1;
nodes = (
(85,-415,l),
(968,1625,l),
(802,1625,l),
(-79,-415,l,{
name = hr00;
})
);
}
);
width = 967;
}
);
unicode = 8725;
}
{
glyphname = notequal;
layers = (
{
layerId = "D92FDD0B-F694-41DD-AE46-0E4F694F0F38";
shapes = (
{
closed = 1;
nodes = (
(459,0,l),
(605,269,l),
(1156,269,l),
(1172,412,l),
(682,412,l),
(836,696,l),
(1191,696,l),
(1206,839,l),
(913,839,l),
(1054,1099,l),
(917,1099,l,{
name = hr00;
}),
(777,839,l),
(279,839,l),
(264,696,l,{
name = hr00;
}),
(700,696,l),
(546,412,l),
(245,412,l),
(229,269,l),
(469,269,l),
(324,0,l)
);
}
);
width = 1317;
},
{
layerId = "BDB4B313-38B1-4B24-B843-560B185382BD";
shapes = (
{
closed = 1;
nodes = (
(582,0,l),
(716.005,272,l),
(1257,272,l),
(1270,418,l),
(788,418,l),
(927,700,l),
(1295,700,l),
(1307,846,l),
(999,846,l),
(1153,1159,l),
(996,1159,l),
(842,846,l),
(337,846,l),
(325,700,l),
(771,700,l),
(632,418,l),
(300,418,l),
(287,272,l),
(561,272,l),
(427,0,l)
);
}
);
width = 1440;
}
);
unicode = 8800;
}
{
glyphname = greaterequal;
layers = (
{
layerId = "D92FDD0B-F694-41DD-AE46-0E4F694F0F38";
shapes = (
{
closed = 1;
nodes = (
(1142,585,l),
(1153,704,l),
(269,1091,l,{
name = hr00;
}),
(256,945,l),
(1000,644,l),
(203,344,l),
(191,200,l)
);
},
{
closed = 1;
nodes = (
(1090,0,l),
(1101,126,l),
(174,126,l),
(163,0,l)
);
}
);
width = 1317;
},
{
layerId = "BDB4B313-38B1-4B24-B843-560B185382BD";
shapes = (
{
closed = 1;
nodes = (
(1232,697,l),
(1251,816,l),
(388,1251,l),
(364,1079,l),
(1056,769,l),
(268,441,l),
(245,260,l)
);
},
{
closed = 1;
nodes = (
(1137,0,l),
(1149,146,l),
(245,146,l),
(232,0,l)
);
}
);
width = 1440;
}
);
unicode = 8805;
}
{
glyphname = lozenge;
layers = (
{
layerId = "D92FDD0B-F694-41DD-AE46-0E4F694F0F38";
shapes = (
{
closed = 1;
nodes = (
(586,1157,l),
(102,568,l),
(586,-20,l),
(1070,568,l)
);
},
{
closed = 1;
nodes = (
(868,568,l),
(586,217,l),
(308,568,l),
(586,917,l)
);
}
);
width = 1150;
},
{
layerId = "BDB4B313-38B1-4B24-B843-560B185382BD";
shapes = (
{
closed = 1;
nodes = (
(749,1206,l),
(214,592,l),
(749,-20,l),
(1284,592,l)
);
},
{
closed = 1;
nodes = (
(1074,592,l),
(749,227,l),
(428,592,l),
(749,956,l)
);
}
);
width = 1470;
}
);
unicode = 9674;
}
{
glyphname = "rightanglebracket-math";
layers = (
{
layerId = "D92FDD0B-F694-41DD-AE46-0E4F694F0F38";
shapes = (
{
closed = 1;
nodes = (
(156,1539,l),
(395,714,l),
(-86,-82,l),
(46,-82,l),
(539,717,l),
(297,1539,l)
);
}
);
width = 600;
},
{
layerId = "BDB4B313-38B1-4B24-B843-560B185382BD";
shapes = (
{
closed = 1;
nodes = (
(156,1539,l),
(395,714,l),
(-86,-82,l),
(76,-82,l),
(569,717,l),
(327,1539,l)
);
}
);
width = 600;
}
);
unicode = 10217;
}
{
glyphname = saltillo;
layers = (
{
anchors = (
{
name = bottom;
pos = (66,0);
},
{
name = top;
pos = (316,1535);
}
);
layerId = "D92FDD0B-F694-41DD-AE46-0E4F694F0F38";
shapes = (
{
closed = 1;
nodes = (
(197,403,l),
(427,1536,l),
(200,1536,l),
(66,403,l)
);
}
);
width = 401;
},
{
anchors = (
{
name = bottom;
pos = (86,0);
},
{
name = top;
pos = (306,1535);
}
);
layerId = "BDB4B313-38B1-4B24-B843-560B185382BD";
shapes = (
{
closed = 1;
nodes = (
(233,403,l),
(443,1536,l),
(166,1536,l),
(52,403,l)
);
}
);
width = 428;
}
);
unicode = 42892;
}
{
glyphname = fi;
layers = (
{
anchors = (
{
name = caret_1;
pos = (507,0);
}
);
layerId = "D92FDD0B-F694-41DD-AE46-0E4F694F0F38";
shapes = (
{
closed = 1;
nodes = (
(124,-442,o),
(266,-198,o),
(305,56,cs),
(432,892,l,{
name = hr01;
}),
(727,892,l),
(770,890,o),
(817,878,o),
(817,813,cs),
(817,802,o),
(815,791,o),
(813,778,c),
(715,142,o),
(711,118,o),
(711,85,cs),
(711,47,o),
(727,-13,o),
(825,-13,cs),
(878,-13,o),
(953,1,o),
(1051,34,cs),
(1069,40,o),
(1076,61,o),
(1076,76,cs),
(1076,79,o),
(1076,82,o),
(1075,85,cs),
(1068,106,o),
(1064,114,o),
(1051,114,cs),
(1047,114,o),
(1042,113,o),
(1037,112,cs),
(1018,108,o),
(993,103,o),
(970,103,cs),
(939,103,o),
(912,114,o),
(912,157,cs),
(912,163,o),
(912,169,o),
(913,175,c),
(912,175,l),
(1034,957,l,{
name = hr02;
}),
(1037,989,o),
(1022,997,o),
(1011,997,cs),
(989,997,o),
(894,994,o),
(827,994,cs,{
name = hr03;
}),
(446,994,l),
(456,1053,ls),
(509,1363,o),
(680,1486,o),
(821,1486,cs),
(840,1486,o),
(858,1484,o),
(875,1480,c),
(983,1283,l),
(1053,1281,o),
(1102,1346,o),
(1102,1423,cs),
(1102,1501,o),
(1013,1573,o),
(848,1573,cs),
(544,1573,o),
(325,1377,o),
(263,1043,c),
(252,994,l),
(93,984,l),
(75,977,o),
(59,962,o),
(59,927,cs),
(59,911,o),
(63,893,o),
(75,892,c),
(239,892,l),
(108,20,ls),
(64,-272,o),
(-3,-340,o),
(-77,-344,c),
(-166,-190,l),
(-202,-190,o),
(-281,-225,o),
(-281,-305,cs),
(-281,-372,o),
(-242,-442,o),
(-116,-442,cs)
);
}
);
width = 1195;
},
{
anchors = (
{
name = caret_1;
pos = (642,0);
}
);
background = {
shapes = (
{
closed = 1;
nodes = (
(584,0,ls),
(607,0,o),
(622,26,o),
(624,41,cs),
(628,71,o),
(621,75,o),
(594,78,c),
(529,83,o),
(493,89,o),
(506,175,cs),
(612,885,l),
(838,885,ls),
(970,885,o),
(1000,864,o),
(987,778,cs),
(891,142,ls),
(884,98,o),
(836,83,o),
(787,78,cs),
(760,75,o),
(751,62,o),
(748,41,cs),
(746,26,o),
(753,0,o),
(776,0,cs),
(1311,0,ls),
(1333,0,o),
(1349,26,o),
(1351,41,cs),
(1355,71,o),
(1348,75,o),
(1321,78,cs),
(1272,83,o),
(1200,89,o),
(1213,175,cs),
(1330,957,ls),
(1335,989,o),
(1317,997,o),
(1306,997,cs),
(1244,997,o),
(1156,992,o),
(967,992,cs,{
name = hr02;
}),
(628,992,l),
(641,1077,ls),
(689,1391,o),
(872,1478,o),
(991,1478,cs),
(1024,1478,o),
(1032,1473,o),
(1046,1468,c),
(1172,1228,l),
(1280,1226,o),
(1347,1270,o),
(1363,1377,cs),
(1377,1471,o),
(1317,1573,o),
(1033,1573,cs),
(582,1573,o),
(361,1315,o),
(320,1045,cs),
(312,992,l),
(157,975,l,{
name = hr03;
}),
(142,969,o),
(130,954,o),
(125,929,cs),
(122,913,o),
(126,886,o),
(142,885,c),
(296,885,l),
(185,142,ls),
(178,98,o),
(109,83,o),
(60,78,cs),
(33,75,o),
(24,62,o),
(21,41,cs,{
name = hr01;
}),
(19,26,o),
(26,0,o),
(49,0,cs)
);
}
);
};
layerId = "BDB4B313-38B1-4B24-B843-560B185382BD";
shapes = (
{
closed = 1;
nodes = (
(217,-442,o),
(425,-200,o),
(459,56,cs),
(571,892,l),
(802,892,l),
(845,890,o),
(922,878,o),
(922,813,cs),
(922,802,o),
(920,791,o),
(918,778,cs),
(820,142,o),
(816,118,o),
(816,85,cs),
(816,47,o),
(832,-13,o),
(930,-13,cs),
(983,-13,o),
(1182,1,o),
(1280,34,cs),
(1298,40,o),
(1305,61,o),
(1305,76,cs),
(1305,79,o),
(1305,82,o),
(1304,85,cs),
(1297,106,o),
(1293,114,o),
(1280,114,cs),
(1276,114,o),
(1271,113,o),
(1266,112,cs),
(1247,108,o),
(1222,103,o),
(1199,103,cs),
(1168,103,o),
(1141,114,o),
(1141,157,cs),
(1141,163,o),
(1141,169,o),
(1142,175,c),
(1141,175,l),
(1263,957,l,{
name = hr02;
}),
(1266,989,o),
(1251,997,o),
(1240,997,cs),
(1218,997,o),
(969,994,o),
(902,994,cs,{
name = hr03;
}),
(584,994,l),
(599,1107,ls),
(634,1368,o),
(789,1470,o),
(886,1470,cs),
(912,1470,o),
(927,1464,o),
(940,1453,c),
(1045,1237,l),
(1201,1237,o),
(1234,1297,o),
(1234,1379,cs),
(1234,1470,o),
(1142,1573,o),
(912,1573,cs),
(541,1573,o),
(329,1330,o),
(288,1075,cs),
(275,994,l),
(141,984,l),
(127,978,o),
(116,966,o),
(111,941,cs),
(108,925,o),
(113,893,o),
(129,892,c),
(263,892,l),
(147,20,ls),
(108,-273,o),
(20,-340,o),
(-58,-344,c),
(-178,-140,l),
(-271,-140,o),
(-322,-205,o),
(-322,-284,cs),
(-322,-352,o),
(-279,-442,o),
(-97,-442,cs)
);
}
);
width = 1437;
}
);
unicode = 64257;
}
{
glyphname = bracketleft.case;
layers = (
{
layerId = "D92FDD0B-F694-41DD-AE46-0E4F694F0F38";
shapes = (
{
closed = 1;
nodes = (
(521,-184,l),
(535,-87,l),
(286,-87,l),
(539,1582,l),
(788,1582,l),
(801,1678,l),
(357,1678,l),
(78,-184,l,{
name = hr00;
})
);
}
);
width = 768;
},
{
layerId = "BDB4B313-38B1-4B24-B843-560B185382BD";
shapes = (
{
closed = 1;
nodes = (
(671,-184,l),
(685,-87,l),
(436,-87,l),
(690,1582,l),
(939,1582,l),
(952,1678,l),
(398,1678,l),
(118,-184,l)
);
}
);
width = 915;
}
);
}
{
glyphname = bracketright.case;
layers = (
{
layerId = "D92FDD0B-F694-41DD-AE46-0E4F694F0F38";
shapes = (
{
closed = 1;
nodes = (
(305,1678,l,{
name = hr02;
}),
(291,1582,l),
(540,1582,l),
(285,-87,l),
(36,-87,l),
(23,-184,l),
(467,-184,l),
(748,1678,l,{
name = hr01;
})
);
}
);
width = 768;
},
{
layerId = "BDB4B313-38B1-4B24-B843-560B185382BD";
shapes = (
{
closed = 1;
nodes = (
(300,1678,l),
(286,1582,l),
(535,1582,l),
(285,-87,l),
(36,-87,l),
(23,-184,l),
(574,-184,l),
(853,1678,l)
);
}
);
width = 915;
}
);
}
{
glyphname = brevecomb_acutecomb.case;
kernLeft = brevecomb;
kernRight = brevecomb;
layers = (
{
anchors = (
{
name = _top;
pos = (151,994);
},
{
name = top;
pos = (235,1553);
}
);
layerId = "D92FDD0B-F694-41DD-AE46-0E4F694F0F38";
shapes = (
{
closed = 1;
nodes = (
(205,1504,l),
(365,1626,o),
(496,1693,o),
(523,1717,cs),
(540,1732,o),
(554,1757,o),
(553,1785,cs),
(552,1807,o),
(542,1829,o),
(521,1851,cs),
(498,1876,o),
(471,1884,o),
(449,1882,cs),
(426,1880,o),
(404,1872,o),
(390,1858,cs),
(365,1833,o),
(306,1716,o),
(151,1559,c)
);
},
{
closed = 1;
nodes = (
(319,1155,o),
(482,1214,o),
(509,1473,c),
(403,1473,l),
(383,1359,o),
(335,1297,o),
(199,1297,cs),
(72,1297,o),
(18,1349,o),
(18,1455,cs),
(18,1461,o),
(18,1467,o),
(19,1473,c),
(-87,1473,l),
(-90,1451,o),
(-91,1430,o),
(-91,1411,cs),
(-91,1216,o),
(66,1155,o),
(188,1155,cs)
);
}
);
width = 0;
},
{
anchors = (
{
name = _top;
pos = (149,994);
},
{
name = top;
pos = (237,1553);
}
);
layerId = "BDB4B313-38B1-4B24-B843-560B185382BD";
shapes = (
{
closed = 1;
nodes = (
(194,1429,l),
(353,1541,o),
(483,1603,o),
(507,1628,cs),
(523,1644,o),
(537,1674,o),
(535,1708,cs),
(533,1733,o),
(525,1758,o),
(505,1780,cs),
(480,1808,o),
(446,1818,o),
(415,1816,cs),
(391,1814,o),
(369,1808,o),
(357,1795,cs),
(334,1770,o),
(270,1642,o),
(143,1482,c,{
name = hr00;
})
);
},
{
closed = 1;
nodes = (
(335,1140,o),
(531,1207,o),
(557,1461,c),
(432,1461,l),
(409,1347,o),
(340,1316,o),
(204,1316,cs),
(78,1316,o),
(17,1346,o),
(17,1437,cs),
(17,1445,o),
(17,1453,o),
(18,1461,c),
(-107,1461,l),
(-113,1431,o),
(-116,1404,o),
(-116,1379,cs),
(-116,1192,o),
(38,1140,o),
(177,1140,cs,{
name = hr00;
})
);
}
);
width = 0;
}
);
}
{
glyphname = brevecomb_gravecomb.case;
kernLeft = brevecomb;
kernRight = brevecomb;
layers = (
{
anchors = (
{
name = _top;
pos = (153,994);
},
{
name = top;
pos = (236,1549);
}
);
layerId = "D92FDD0B-F694-41DD-AE46-0E4F694F0F38";
shapes = (
{
closed = 1;
nodes = (
(319,1559,l),
(190,1716,o),
(121,1845,o),
(96,1870,cs),
(79,1887,o),
(54,1901,o),
(26,1898,cs),
(4,1896,o),
(-18,1887,o),
(-39,1864,cs),
(-62,1838,o),
(-70,1813,o),
(-69,1791,cs),
(-68,1768,o),
(-56,1747,o),
(-42,1733,cs),
(-16,1707,o),
(105,1653,o),
(266,1504,c)
);
},
{
closed = 1;
nodes = (
(319,1155,o),
(482,1214,o),
(509,1473,c),
(403,1473,l),
(383,1359,o),
(335,1297,o),
(199,1297,cs),
(72,1297,o),
(18,1349,o),
(18,1455,cs),
(18,1461,o),
(18,1467,o),
(19,1473,c),
(-87,1473,l),
(-90,1451,o),
(-91,1430,o),
(-91,1411,cs),
(-91,1216,o),
(66,1155,o),
(188,1155,cs)
);
}
);
width = 0;
},
{
anchors = (
{
name = _top;
pos = (151,994);
},
{
name = top;
pos = (234,1553);
}
);
layerId = "BDB4B313-38B1-4B24-B843-560B185382BD";
shapes = (
{
closed = 1;
nodes = (
(311,1488,l),
(204,1650,o),
(145,1782,o),
(123,1807,cs),
(108,1824,o),
(77,1838,o),
(44,1838,cs),
(18,1838,o),
(-7,1830,o),
(-29,1810,cs),
(-58,1784,o),
(-69,1752,o),
(-69,1722,cs),
(-69,1698,o),
(-63,1676,o),
(-50,1663,cs),
(-26,1639,o),
(100,1570,o),
(255,1438,c,{
name = hr00;
})
);
},
{
closed = 1;
nodes = (
(335,1140,o),
(531,1207,o),
(557,1461,c),
(432,1461,l),
(409,1347,o),
(340,1316,o),
(204,1316,cs),
(78,1316,o),
(17,1346,o),
(17,1437,cs),
(17,1445,o),
(17,1453,o),
(18,1461,c),
(-107,1461,l),
(-113,1431,o),
(-116,1404,o),
(-116,1379,cs),
(-116,1192,o),
(38,1140,o),
(177,1140,cs,{
name = hr00;
})
);
}
);
width = 0;
}
);
}
{
glyphname = brevecomb_gravecomb;
kernLeft = brevecomb;
kernRight = brevecomb;
layers = (
{
anchors = (
{
name = _top;
pos = (74,994);
},
{
name = top;
pos = (158,1553);
}
);
layerId = "D92FDD0B-F694-41DD-AE46-0E4F694F0F38";
shapes = (
{
closed = 1;
nodes = (
(214,1184,o),
(417,1233,o),
(463,1502,c),
(357,1502,l),
(337,1408,o),
(260,1326,o),
(124,1326,cs),
(-3,1326,o),
(-58,1398,o),
(-58,1484,cs),
(-58,1490,o),
(-58,1496,o),
(-57,1502,c),
(-163,1502,l),
(-166,1480,o),
(-167,1460,o),
(-167,1441,cs),
(-167,1225,o),
(1,1184,o),
(103,1184,cs)
);
},
{
closed = 1;
nodes = (
(210,1534,l),
(114,1702,o),
(66,1832,o),
(46,1860,cs),
(31,1881,o),
(5,1900,o),
(-27,1900,cs),
(-71,1900,o),
(-119,1861,o),
(-116,1809,cs),
(-115,1791,o),
(-107,1774,o),
(-98,1761,cs),
(-80,1734,o),
(26,1661,o),
(155,1494,c)
);
}
);
width = 0;
},
{
anchors = (
{
name = _top;
pos = (72,994);
},
{
name = top;
pos = (155,1553);
}
);
layerId = "BDB4B313-38B1-4B24-B843-560B185382BD";
shapes = (
{
closed = 1;
nodes = (
(257,1180,o),
(453,1247,o),
(479,1501,c),
(354,1501,l),
(331,1387,o),
(263,1356,o),
(127,1356,cs),
(1,1356,o),
(-61,1387,o),
(-61,1479,cs),
(-61,1486,o),
(-61,1493,o),
(-60,1501,c),
(-185,1501,l),
(-191,1471,o),
(-194,1444,o),
(-194,1419,cs),
(-194,1232,o),
(-40,1180,o),
(99,1180,cs,{
name = hr00;
})
);
},
{
closed = 1;
nodes = (
(210,1530,l),
(141,1710,o),
(91,1839,o),
(75,1868,cs),
(61,1893,o),
(32,1916,o),
(-11,1916,cs),
(-68,1916,o),
(-111,1876,o),
(-111,1811,cs),
(-111,1794,o),
(-105,1779,o),
(-93,1763,cs),
(-59,1718,o),
(19,1659,o),
(148,1495,c,{
name = hr00;
})
);
}
);
width = 0;
}
);
}
{
glyphname = brevecomb_hookabovecomb.case;
kernLeft = brevecomb;
kernRight = brevecomb;
layers = (
{
anchors = (
{
name = _top;
pos = (136,994);
},
{
name = top;
pos = (219,1549);
}
);
background = {
shapes = (
{
closed = 1;
nodes = (
(276,1174,o),
(479,1223,o),
(525,1492,c),
(419,1492,l),
(399,1398,o),
(322,1316,o),
(186,1316,cs),
(59,1316,o),
(4,1388,o),
(4,1474,cs),
(4,1480,o),
(4,1486,o),
(5,1492,c),
(-101,1492,l),
(-104,1470,o),
(-105,1450,o),
(-105,1431,cs),
(-105,1215,o),
(63,1174,o),
(165,1174,cs)
);
},
{
closed = 1;
nodes = (
(274,1537,l),
(273,1546,o),
(272,1555,o),
(272,1563,cs),
(272,1590,o),
(285,1624,o),
(306,1640,cs),
(383,1699,o),
(462,1717,o),
(462,1846,cs),
(462,1920,o),
(376,1968,o),
(287,1968,cs),
(225,1968,o),
(179,1956,o),
(143,1939,cs),
(115,1926,o),
(98,1891,o),
(98,1860,cs),
(98,1844,o),
(105,1833,o),
(120,1833,cs),
(130,1833,o),
(172,1853,o),
(226,1853,cs),
(281,1853,o),
(323,1828,o),
(312,1783,c),
(307,1750,o),
(167,1706,o),
(167,1600,cs),
(167,1576,o),
(175,1558,o),
(180,1537,c)
);
}
);
};
layerId = "D92FDD0B-F694-41DD-AE46-0E4F694F0F38";
shapes = (
{
closed = 1;
nodes = (
(265,1510,l),
(262,1521,o),
(260,1528,o),
(260,1546,cs),
(260,1571,o),
(273,1598,o),
(337,1635,cs),
(417,1681,o),
(453,1720,o),
(453,1799,cs),
(453,1872,o),
(395,1934,o),
(272,1934,cs),
(218,1934,o),
(161,1915,o),
(123,1896,cs),
(115,1892,o),
(106,1887,o),
(102,1872,cs),
(98,1856,o),
(96,1835,o),
(93,1812,cs),
(92,1805,o),
(97,1800,o),
(103,1800,cs),
(119,1800,o),
(159,1825,o),
(217,1825,cs),
(276,1825,o),
(306,1803,o),
(306,1773,cs),
(306,1700,o),
(162,1683,o),
(162,1567,cs),
(162,1542,o),
(168,1529,o),
(178,1510,c)
);
},
{
closed = 1;
nodes = (
(319,1155,o),
(482,1214,o),
(509,1473,c),
(403,1473,l),
(383,1359,o),
(335,1297,o),
(199,1297,cs),
(72,1297,o),
(18,1349,o),
(18,1455,cs),
(18,1461,o),
(18,1467,o),
(19,1473,c),
(-87,1473,l),
(-90,1451,o),
(-91,1430,o),
(-91,1411,cs),
(-91,1216,o),
(66,1155,o),
(188,1155,cs)
);
}
);
width = 0;
},
{
anchors = (
{
name = _top;
pos = (147,994);
},
{
name = top;
pos = (230,1549);
}
);
background = {
shapes = (
{
closed = 1;
nodes = (
(333,1180,o),
(529,1247,o),
(555,1501,c),
(430,1501,l),
(407,1387,o),
(339,1366,o),
(203,1366,cs),
(77,1366,o),
(15,1387,o),
(15,1477,cs),
(15,1485,o),
(15,1493,o),
(16,1501,c),
(-109,1501,l),
(-115,1471,o),
(-118,1444,o),
(-118,1419,cs),
(-118,1232,o),
(36,1180,o),
(175,1180,cs,{
name = hr00;
})
);
},
{
closed = 1;
nodes = (
(286,1550,l),
(285,1557,o),
(285,1564,o),
(285,1570,cs),
(285,1634,o),
(308,1653,o),
(357,1686,cs),
(423,1731,o),
(490,1771,o),
(490,1864,cs),
(490,1928,o),
(423,1982,o),
(263,1982,cs),
(200,1982,o),
(144,1969,o),
(100,1945,cs),
(74,1931,o),
(33,1902,o),
(33,1834,cs),
(33,1812,o),
(38,1797,o),
(53,1797,cs),
(85,1797,o),
(112,1849,o),
(199,1849,cs),
(244,1849,o),
(268,1834,o),
(268,1796,cs),
(268,1740,o),
(166,1721,o),
(166,1614,cs),
(166,1586,o),
(177,1561,o),
(182,1550,c)
);
}
);
};
layerId = "BDB4B313-38B1-4B24-B843-560B185382BD";
shapes = (
{
closed = 1;
nodes = (
(289,1533,l),
(288,1545,o),
(284,1554,o),
(284,1571,cs),
(284,1598,o),
(304,1621,o),
(367,1653,cs),
(434,1688,o),
(485,1727,o),
(485,1803,cs),
(485,1869,o),
(409,1941,o),
(282,1941,cs),
(196,1941,o),
(122,1912,o),
(83,1890,cs),
(74,1885,o),
(71,1879,o),
(70,1868,cs),
(68,1847,o),
(65,1817,o),
(62,1794,cs),
(61,1785,o),
(65,1781,o),
(72,1781,cs),
(86,1781,o),
(136,1815,o),
(203,1815,cs),
(263,1815,o),
(291,1791,o),
(291,1759,cs),
(291,1690,o),
(168,1689,o),
(164,1597,cs),
(163,1573,o),
(169,1556,o),
(179,1533,c)
);
},
{
closed = 1;
nodes = (
(335,1140,o),
(531,1207,o),
(557,1461,c),
(432,1461,l),
(409,1347,o),
(340,1316,o),
(204,1316,cs),
(78,1316,o),
(17,1346,o),
(17,1437,cs),
(17,1445,o),
(17,1453,o),
(18,1461,c),
(-107,1461,l),
(-113,1431,o),
(-116,1404,o),
(-116,1379,cs),
(-116,1192,o),
(38,1140,o),
(177,1140,cs,{
name = hr00;
})
);
}
);
width = 0;
}
);
}
{
glyphname = brevecomb_hookabovecomb;
kernLeft = brevecomb;
kernRight = brevecomb;
layers = (
{
anchors = (
{
name = _top;
pos = (74,994);
},
{
name = top;
pos = (158,1553);
}
);
background = {
shapes = (
{
closed = 1;
nodes = (
(205,1547,l),
(204,1556,o),
(203,1565,o),
(203,1573,cs),
(203,1600,o),
(216,1634,o),
(237,1650,cs),
(314,1709,o),
(393,1727,o),
(393,1856,cs),
(393,1930,o),
(307,1978,o),
(218,1978,cs),
(156,1978,o),
(110,1966,o),
(74,1949,cs),
(46,1936,o),
(29,1901,o),
(29,1870,cs),
(29,1854,o),
(36,1843,o),
(51,1843,cs),
(61,1843,o),
(103,1863,o),
(157,1863,cs),
(212,1863,o),
(254,1838,o),
(243,1793,c),
(238,1760,o),
(98,1716,o),
(98,1610,cs),
(98,1586,o),
(106,1568,o),
(111,1547,c)
);
},
{
closed = 1;
nodes = (
(653,1543,l),
(652,1553,o),
(650,1561,o),
(650,1574,cs),
(650,1602,o),
(657,1631,o),
(710,1665,cs),
(801,1724,o),
(849,1763,o),
(850,1838,cs),
(851,1915,o),
(786,1974,o),
(669,1974,cs),
(615,1974,o),
(570,1961,o),
(537,1947,cs),
(509,1935,o),
(488,1899,o),
(488,1869,cs),
(488,1851,o),
(495,1839,o),
(510,1839,cs),
(521,1839,o),
(558,1863,o),
(614,1863,cs),
(673,1863,o),
(703,1840,o),
(703,1810,cs),
(703,1733,o),
(551,1721,o),
(551,1602,cs),
(551,1580,o),
(556,1564,o),
(566,1543,c)
);
}
);
};
layerId = "D92FDD0B-F694-41DD-AE46-0E4F694F0F38";
shapes = (
{
closed = 1;
nodes = (
(214,1184,o),
(417,1233,o),
(463,1502,c),
(357,1502,l),
(337,1408,o),
(260,1326,o),
(124,1326,cs),
(-3,1326,o),
(-58,1398,o),
(-58,1484,cs),
(-58,1490,o),
(-58,1496,o),
(-57,1502,c),
(-163,1502,l),
(-166,1480,o),
(-167,1460,o),
(-167,1441,cs),
(-167,1225,o),
(1,1184,o),
(103,1184,cs)
);
},
{
closed = 1;
nodes = (
(193,1496,l),
(190,1507,o),
(188,1514,o),
(188,1532,cs),
(188,1557,o),
(201,1584,o),
(265,1621,cs),
(345,1668,o),
(381,1706,o),
(381,1785,cs),
(381,1858,o),
(323,1920,o),
(200,1920,cs),
(146,1920,o),
(89,1901,o),
(51,1882,cs),
(43,1878,o),
(34,1873,o),
(30,1858,cs),
(26,1842,o),
(24,1821,o),
(21,1798,cs),
(20,1791,o),
(25,1786,o),
(31,1786,cs),
(47,1786,o),
(87,1811,o),
(145,1811,cs),
(204,1811,o),
(234,1789,o),
(234,1759,cs),
(234,1686,o),
(90,1669,o),
(90,1553,cs),
(90,1528,o),
(96,1515,o),
(106,1496,c)
);
}
);
width = 0;
},
{
anchors = (
{
name = _top;
pos = (72,994);
},
{
name = top;
pos = (155,1553);
}
);
background = {
shapes = (
{
closed = 1;
nodes = (
(214,1550,l),
(213,1557,o),
(213,1564,o),
(213,1570,cs),
(213,1634,o),
(236,1653,o),
(285,1686,cs),
(351,1731,o),
(418,1771,o),
(418,1864,cs),
(418,1928,o),
(351,1982,o),
(191,1982,cs),
(128,1982,o),
(72,1969,o),
(28,1945,cs),
(2,1931,o),
(-39,1902,o),
(-39,1834,cs),
(-39,1812,o),
(-34,1797,o),
(-19,1797,cs),
(13,1797,o),
(40,1849,o),
(127,1849,cs),
(172,1849,o),
(196,1834,o),
(196,1796,cs),
(196,1740,o),
(94,1721,o),
(94,1614,cs),
(94,1586,o),
(105,1561,o),
(110,1550,c)
);
},
{
closed = 1;
nodes = (
(1315,1574,l),
(1313,1583,o),
(1311,1590,o),
(1312,1610,cs),
(1317,1702,o),
(1512,1687,o),
(1512,1837,cs),
(1512,1915,o),
(1437,1970,o),
(1302,1970,cs),
(1228,1970,o),
(1174,1947,o),
(1144,1934,cs),
(1109,1919,o),
(1081,1880,o),
(1081,1838,cs),
(1081,1818,o),
(1089,1805,o),
(1104,1804,cs),
(1115,1803,o),
(1159,1838,o),
(1229,1838,cs),
(1282,1838,o),
(1314,1817,o),
(1314,1786,cs),
(1314,1723,o),
(1190,1716,o),
(1190,1635,cs),
(1190,1615,o),
(1198,1597,o),
(1205,1574,c)
);
},
{
closed = 1;
nodes = (
(827,1552,l),
(826,1561,o),
(823,1568,o),
(823,1589,cs),
(823,1682,o),
(1023,1687,o),
(1023,1838,cs),
(1023,1926,o),
(948,1981,o),
(813,1981,cs),
(739,1981,o),
(685,1960,o),
(656,1948,cs),
(621,1934,o),
(592,1894,o),
(592,1850,cs),
(592,1829,o),
(600,1817,o),
(615,1816,cs),
(626,1815,o),
(669,1848,o),
(728,1848,cs),
(791,1848,o),
(823,1824,o),
(824,1790,cs),
(826,1716,o),
(701,1711,o),
(701,1620,cs),
(701,1594,o),
(710,1576,o),
(718,1552,c)
);
},
{
closed = 1;
nodes = (
(617,1526,l),
(615,1537,o),
(611,1546,o),
(611,1562,cs),
(611,1588,o),
(617,1625,o),
(694,1664,cs),
(788,1712,o),
(832,1753,o),
(836,1830,cs),
(840,1903,o),
(774,1978,o),
(639,1978,cs),
(556,1978,o),
(487,1951,o),
(457,1934,cs),
(445,1927,o),
(438,1920,o),
(434,1904,cs),
(430,1888,o),
(427,1858,o),
(424,1835,cs),
(423,1827,o),
(427,1823,o),
(434,1823,cs),
(447,1823,o),
(497,1849,o),
(558,1849,cs),
(620,1849,o),
(647,1829,o),
(647,1798,cs),
(647,1735,o),
(500,1711,o),
(495,1587,cs),
(494,1564,o),
(500,1548,o),
(510,1526,c)
);
}
);
};
layerId = "BDB4B313-38B1-4B24-B843-560B185382BD";
shapes = (
{
closed = 1;
nodes = (
(257,1180,o),
(453,1247,o),
(479,1501,c),
(354,1501,l),
(331,1387,o),
(263,1356,o),
(127,1356,cs),
(1,1356,o),
(-61,1387,o),
(-61,1479,cs),
(-61,1486,o),
(-61,1493,o),
(-60,1501,c),
(-185,1501,l),
(-191,1471,o),
(-194,1444,o),
(-194,1419,cs),
(-194,1232,o),
(-40,1180,o),
(99,1180,cs,{
name = hr00;
})
);
},
{
closed = 1;
nodes = (
(211,1524,l),
(210,1536,o),
(206,1545,o),
(206,1562,cs),
(206,1589,o),
(226,1612,o),
(289,1644,cs),
(357,1679,o),
(407,1718,o),
(407,1794,cs),
(407,1860,o),
(331,1932,o),
(204,1932,cs),
(118,1932,o),
(43,1905,o),
(5,1881,cs),
(-4,1876,o),
(-7,1870,o),
(-8,1859,cs),
(-11,1838,o),
(-13,1808,o),
(-16,1785,cs),
(-17,1776,o),
(-13,1772,o),
(-6,1772,cs),
(8,1772,o),
(58,1806,o),
(125,1806,cs),
(185,1806,o),
(213,1782,o),
(213,1750,cs),
(213,1681,o),
(90,1680,o),
(86,1588,cs),
(85,1564,o),
(91,1547,o),
(101,1524,c)
);
}
);
width = 0;
}
);
}
{
glyphname = breveinvertedcomb.case;
kernLeft = brevecomb;
kernRight = brevecomb;
layers = (
{
anchors = (
{
name = _top;
pos = (149,994);
},
{
name = top;
pos = (6,1547);
}
);
layerId = "D92FDD0B-F694-41DD-AE46-0E4F694F0F38";
shapes = (
{
closed = 1;
nodes = (
(108,1507,o),
(-108,1456,o),
(-161,1144,c),
(-48,1144,l),
(-28,1242,o),
(60,1359,o),
(204,1359,cs),
(339,1359,o),
(393,1257,o),
(393,1163,cs),
(393,1157,o),
(393,1150,o),
(392,1144,c),
(505,1144,l),
(508,1171,o),
(510,1196,o),
(510,1219,cs),
(510,1464,o),
(334,1507,o),
(226,1507,cs)
);
}
);
width = 0;
},
{
anchors = (
{
name = _top;
pos = (149,994);
},
{
name = top;
pos = (-22,1547);
}
);
layerId = "BDB4B313-38B1-4B24-B843-560B185382BD";
shapes = (
{
closed = 1;
nodes = (
(60,1520,o),
(-149,1449,o),
(-181,1147,c),
(-48,1147,l),
(-24,1265,o),
(54,1322,o),
(198,1322,cs),
(330,1322,o),
(393,1274,o),
(393,1174,cs),
(393,1166,o),
(393,1157,o),
(392,1147,c),
(525,1147,l),
(532,1185,o),
(536,1220,o),
(536,1251,cs),
(536,1466,o),
(375,1520,o),
(228,1520,cs,{
name = hr00;
})
);
}
);
width = 0;
}
);
}
{
glyphname = caroncomb.alt;
layers = (
{
background = {
shapes = (
{
closed = 1;
nodes = (
(362,1085,o),
(478,1276,o),
(511,1477,cs,{
name = hr02;
}),
(514,1495,o),
(515,1512,o),
(515,1528,cs),
(515,1617,o),
(473,1676,o),
(404,1676,cs),
(321,1676,o),
(275,1616,o),
(264,1538,cs),
(262,1526,o),
(262,1516,o),
(262,1506,cs),
(262,1414,o),
(326,1403,o),
(327,1392,c),
(328,1348,o),
(317,1205,o),
(252,1112,cs),
(237,1091,o),
(231,1074,o),
(231,1061,cs),
(231,1040,o),
(247,1030,o),
(266,1030,cs),
(278,1030,o),
(290,1034,o),
(300,1041,cs,{
name = hr01;
})
);
},
{
closed = 1;
nodes = (
(362,1085,o),
(478,1276,o),
(511,1477,cs,{
name = hr02;
}),
(514,1495,o),
(515,1512,o),
(515,1528,cs),
(515,1617,o),
(473,1676,o),
(404,1676,cs),
(321,1676,o),
(275,1616,o),
(264,1538,cs),
(262,1526,o),
(262,1516,o),
(262,1506,cs),
(262,1414,o),
(326,1403,o),
(327,1392,c),
(328,1348,o),
(317,1205,o),
(252,1112,cs),
(237,1091,o),
(231,1074,o),
(231,1061,cs),
(231,1040,o),
(247,1030,o),
(266,1030,cs),
(278,1030,o),
(290,1034,o),
(300,1041,cs,{
name = hr01;
})
);
},
{
closed = 1;
nodes = (
(371,1128,o),
(457,1249,o),
(457,1404,cs),
(457,1481,o),
(411,1575,o),
(319,1575,cs),
(261,1575,o),
(212,1524,o),
(212,1470,cs),
(212,1435,o),
(224,1406,o),
(255,1380,cs),
(296,1346,o),
(312,1313,o),
(311,1260,cs),
(310,1207,o),
(289,1150,o),
(236,1066,c),
(291,1026,l)
);
},
{
closed = 1;
nodes = (
(356,1140,o),
(459,1261,o),
(483,1416,cs),
(495,1493,o),
(462,1587,o),
(370,1587,cs),
(312,1587,o),
(256,1536,o),
(248,1482,cs),
(243,1447,o),
(250,1418,o),
(277,1392,cs),
(313,1358,o),
(324,1325,o),
(315,1272,cs),
(306,1219,o),
(277,1162,o),
(211,1078,c),
(260,1038,l)
);
}
);
};
layerId = "D92FDD0B-F694-41DD-AE46-0E4F694F0F38";
shapes = (
{
closed = 1;
nodes = (
(362,1147,o),
(485,1297,o),
(485,1447,cs),
(485,1516,o),
(450,1587,o),
(370,1587,cs),
(301,1587,o),
(247,1533,o),
(247,1471,cs),
(247,1375,o),
(318,1390,o),
(318,1304,cs),
(318,1230,o),
(271,1154,o),
(211,1078,c),
(260,1038,l)
);
}
);
width = 1024;
},
{
background = {
shapes = (
{
closed = 1;
nodes = (
(384,1085,o),
(536,1235,o),
(564,1477,cs),
(565,1490,o),
(566,1501,o),
(566,1513,cs),
(566,1631,o),
(487.998,1676,o),
(414,1676,cs),
(331,1676,o),
(275,1616,o),
(264,1538,cs),
(262,1526,o),
(262,1516,o),
(262,1506,cs),
(262,1414,o),
(326,1403,o),
(327,1392,c),
(328,1348,o),
(329,1205,o),
(254,1112,cs),
(240,1094,o),
(234,1080,o),
(234,1068,cs),
(234,1043,o),
(260,1031,o),
(286,1031,cs),
(299,1031,o),
(313,1034,o),
(322,1041,cs)
);
},
{
closed = 1;
nodes = (
(384,1085,o),
(536,1235,o),
(564,1477,cs),
(565,1490,o),
(566,1501,o),
(566,1513,cs),
(566,1631,o),
(487.998,1676,o),
(414,1676,cs),
(331,1676,o),
(275,1616,o),
(264,1538,cs),
(262,1526,o),
(262,1516,o),
(262,1506,cs),
(262,1414,o),
(326,1403,o),
(327,1392,c),
(328,1348,o),
(329,1205,o),
(254,1112,cs),
(240,1094,o),
(234,1080,o),
(234,1068,cs),
(234,1043,o),
(260,1031,o),
(286,1031,cs),
(299,1031,o),
(313,1034,o),
(322,1041,cs)
);
},
{
closed = 1;
nodes = (
(380,1124,o),
(511,1269,o),
(534,1417,cs),
(547,1512,o),
(501,1587,o),
(413,1587,cs),
(336,1587,o),
(276,1525,o),
(266,1455,cs),
(261,1421,o),
(271,1394,o),
(291,1370,cs),
(319,1334,o),
(332,1308,o),
(327,1273,cs),
(319,1223,o),
(292,1164,o),
(212,1081,c),
(263,1029,l)
);
},
{
closed = 1;
nodes = (
(380,1144,o),
(511,1289,o),
(534,1437,cs),
(549,1532,o),
(501,1607,o),
(413,1607,cs),
(336,1607,o),
(276,1545,o),
(266,1475,cs),
(261,1441,o),
(271,1414,o),
(291,1390,cs),
(320,1355,o),
(332,1328,o),
(327,1293,cs),
(320,1243,o),
(292,1184,o),
(212,1101,c),
(263,1049,l)
);
},
{
closed = 1;
nodes = (
(390,1152,o),
(537,1321,o),
(537,1455,cs),
(537,1549,o),
(485,1607,o),
(399,1607,cs),
(328,1607,o),
(265,1545,o),
(265,1477,cs),
(265,1392,o),
(328,1376,o),
(328,1308,cs),
(328,1242,o),
(281,1172,o),
(212,1101,c),
(263,1049,l)
);
}
);
};
layerId = "BDB4B313-38B1-4B24-B843-560B185382BD";
shapes = (
{
closed = 1;
nodes = (
(390,1152,o),
(537,1321,o),
(537,1455,cs),
(537,1549,o),
(485,1607,o),
(399,1607,cs),
(328,1607,o),
(265,1545,o),
(265,1477,cs),
(265,1392,o),
(330,1376,o),
(330,1308,cs),
(330,1242,o),
(282,1172,o),
(212,1101,c),
(263,1049,l)
);
}
);
width = 1024;
}
);
}
{
glyphname = cedillacomb.case;
kernLeft = cedilla;
kernRight = cedilla;
layers = (
{
anchors = (
{
name = _bottom;
pos = (145,0);
}
);
background = {
shapes = (
{
closed = 1;
nodes = (
(214,-486,o),
(343,-388,o),
(343,-269,cs),
(343,-190,o),
(276,-141,o),
(159,-129,c,{
name = hr03;
}),
(220,18,l),
(103,18,l,{
name = hr01;
}),
(37,-191,l),
(111,-191,o),
(177,-219,o),
(177,-272,cs,{
name = hr02;
}),
(177,-332,o),
(124,-373,o),
(31,-373,cs),
(-8,-373,o),
(-32,-368,o),
(-79,-357,cs),
(-105,-351,o),
(-139,-413,o),
(-139,-436,cs),
(-139,-446,o),
(-134,-452,o),
(-123,-456,cs),
(-88,-469,o),
(-39,-486,o),
(60,-486,cs)
);
},
{
closed = 1;
nodes = (
(829,-488,o),
(928,-387,o),
(942,-292,cs),
(955,-206,o),
(890,-134,o),
(759,-121,c,{
name = hr03;
}),
(816,18,l),
(699,18,l,{
name = hr01;
}),
(636,-182,l),
(742,-183,o),
(784,-232,o),
(777,-281,cs,{
name = hr02;
}),
(769,-339,o),
(713,-374,o),
(646,-374,cs),
(584,-374,o),
(549,-357,o),
(528,-349,cs),
(518,-345,o),
(512,-346,o),
(505,-356,cs),
(495,-371,o),
(477,-396,o),
(464,-417,cs),
(459,-425,o),
(457,-433,o),
(465,-439,cs),
(498,-463,o),
(558,-488,o),
(643,-488,cs)
);
}
);
};
layerId = "D92FDD0B-F694-41DD-AE46-0E4F694F0F38";
shapes = (
{
closed = 1;
nodes = (
(245,-488,o),
(346,-371,o),
(346,-271,cs),
(346,-194,o),
(281,-139,o),
(162,-130,c,{
name = hr03;
}),
(222,18,l),
(105,18,l,{
name = hr01;
}),
(39,-191,l),
(128,-189,o),
(180,-229,o),
(180,-271,cs),
(180,-331,o),
(120,-374,o),
(48,-374,cs),
(-14,-374,o),
(-49,-357,o),
(-70,-349,cs),
(-81,-345,o),
(-85,-346,o),
(-93,-356,cs),
(-104,-370,o),
(-120,-397,o),
(-134,-417,cs),
(-139,-424,o),
(-140,-434,o),
(-133,-439,cs),
(-100,-463,o),
(-40,-488,o),
(54,-488,cs)
);
}
);
width = 462;
},
{
anchors = (
{
name = _bottom;
pos = (179,0);
}
);
background = {
shapes = (
{
closed = 1;
nodes = (
(-333,-492,o),
(-183,-380,o),
(-183,-244,cs),
(-183,-168,o),
(-233,-123,o),
(-363,-111,c,{
name = hr03;
}),
(-300,18,l),
(-457,18,l,{
name = hr01;
}),
(-539,-191,l),
(-467,-191,o),
(-399,-204,o),
(-399,-257,cs,{
name = hr02;
}),
(-399,-310,o),
(-447,-359,o),
(-520,-359,cs),
(-551,-359,o),
(-594,-354,o),
(-640,-341,cs),
(-665,-334,o),
(-701,-407,o),
(-701,-434,cs),
(-701,-446,o),
(-696,-453,o),
(-685,-457,cs),
(-649,-470,o),
(-601,-492,o),
(-492,-492,cs)
);
},
{
closed = 1;
nodes = (
(-333,-492,o),
(-183,-380,o),
(-183,-244,cs),
(-183,-168,o),
(-233,-123,o),
(-363,-111,c,{
name = hr03;
}),
(-300,18,l),
(-457,18,l,{
name = hr01;
}),
(-539,-191,l),
(-467,-191,o),
(-399,-204,o),
(-399,-257,cs,{
name = hr02;
}),
(-399,-310,o),
(-447,-359,o),
(-520,-359,cs),
(-551,-359,o),
(-594,-354,o),
(-640,-341,cs),
(-665,-334,o),
(-701,-407,o),
(-701,-434,cs),
(-701,-446,o),
(-696,-453,o),
(-685,-457,cs),
(-649,-470,o),
(-601,-492,o),
(-492,-492,cs)
);
},
{
closed = 1;
nodes = (
(267,-523,o),
(417,-435,o),
(417,-299,cs),
(417,-223,o),
(328,-143,o),
(198,-131,c,{
name = hr03;
}),
(261,18,l),
(104,18,l,{
name = hr01;
}),
(22,-211,l),
(94,-211,o),
(162,-232,o),
(162,-285,cs,{
name = hr02;
}),
(162,-341,o),
(114,-366,o),
(41,-366,cs),
(10,-366,o),
(-33,-361,o),
(-79,-350,cs),
(-104,-344,o),
(-140,-425,o),
(-140,-448,cs),
(-140,-458,o),
(-135,-464,o),
(-124,-468,cs),
(-89,-481,o),
(-23,-523,o),
(118,-523,cs)
);
},
{
closed = 1;
nodes = (
(-307,-497,o),
(-189,-410,o),
(-170,-286,cs),
(-154,-183,o),
(-228,-107,o),
(-377,-99,c,{
name = hr03;
}),
(-326,19,l),
(-473,19,l,{
name = hr01;
}),
(-539,-191,l),
(-417,-189,o),
(-367,-234,o),
(-374,-282,cs,{
name = hr02;
}),
(-382,-334,o),
(-435,-373,o),
(-513,-373,cs),
(-568,-373,o),
(-610,-356,o),
(-647,-341,cs),
(-657,-337,o),
(-661,-341,o),
(-666,-349,cs),
(-677,-367,o),
(-701,-404,o),
(-708,-416,cs),
(-713,-425,o),
(-713,-431,o),
(-705,-436,cs),
(-677,-453,o),
(-599,-497,o),
(-486,-497,cs)
);
},
{
closed = 1;
nodes = (
(257,-497,o),
(405,-409,o),
(405,-271,cs),
(405,-181,o),
(322,-127,o),
(199,-111,c,{
name = hr03;
}),
(261,19,l),
(104,19,l,{
name = hr01;
}),
(24,-201,l),
(153,-199,o),
(199,-244,o),
(199,-283,cs,{
name = hr02;
}),
(199,-344,o),
(138,-373,o),
(75,-373,cs),
(5,-373,o),
(-37,-356,o),
(-74,-341,cs),
(-84,-337,o),
(-88,-341,o),
(-93,-349,cs),
(-104,-367,o),
(-128,-404,o),
(-135,-416,cs),
(-139,-425,o),
(-139,-431,o),
(-132,-436,cs),
(-104,-453,o),
(-26,-497,o),
(104,-497,cs)
);
}
);
};
layerId = "BDB4B313-38B1-4B24-B843-560B185382BD";
shapes = (
{
closed = 1;
nodes = (
(257,-517,o),
(405,-425,o),
(405,-293,cs),
(405,-197,o),
(339,-148,o),
(199,-121,c,{
name = hr03;
}),
(261,19,l),
(104,19,l,{
name = hr01;
}),
(24,-211,l),
(146,-209,o),
(189,-254,o),
(189,-293,cs,{
name = hr02;
}),
(189,-351,o),
(133,-379,o),
(75,-379,cs),
(5,-379,o),
(-37,-363,o),
(-74,-348,cs),
(-84,-344,o),
(-88,-348,o),
(-93,-356,cs),
(-104,-377,o),
(-128,-424,o),
(-135,-436,cs),
(-139,-445,o),
(-139,-451,o),
(-132,-456,cs),
(-104,-473,o),
(-26,-517,o),
(104,-517,cs)
);
}
);
width = 522;
}
);
}
{
glyphname = circumflexcomb_acutecomb.case;
layers = (
{
anchors = (
{
name = _top;
pos = (150,994);
},
{
name = top;
pos = (233,1549);
}
);
layerId = "D92FDD0B-F694-41DD-AE46-0E4F694F0F38";
shapes = (
{
closed = 1;
nodes = (
(630,1440,o),
(755,1502,o),
(785,1546,cs),
(802,1571,o),
(826,1595,o),
(826,1628,cs),
(826,1643,o),
(822,1658,o),
(811,1673,cs),
(796,1693,o),
(776,1700,o),
(757,1700,cs),
(730,1700,o),
(704,1668,o),
(684,1650,cs),
(656,1624,o),
(562,1494,o),
(457,1384,c),
(495,1334,l)
);
},
{
closed = 1;
nodes = (
(-58,1100,l),
(198,1291,l),
(391,1100,l),
(504,1100,l),
(311,1409,l),
(294,1442,o),
(274,1469,o),
(225,1469,cs),
(177,1469,o),
(149,1446,o),
(122,1418,c),
(-176,1100,l)
);
}
);
width = 0;
},
{
anchors = (
{
name = _top;
pos = (149,994);
},
{
name = top;
pos = (221,1475);
}
);
layerId = "BDB4B313-38B1-4B24-B843-560B185382BD";
shapes = (
{
closed = 1;
nodes = (
(619,1434,o),
(766,1511,o),
(798,1543,cs),
(820,1565,o),
(835,1580,o),
(835,1622,cs),
(835,1645,o),
(830,1659,o),
(818,1678,cs),
(803,1702,o),
(779,1711,o),
(753,1711,cs),
(721,1711,o),
(687,1695,o),
(666,1675,cs),
(635,1646,o),
(540,1533,o),
(426,1414,c),
(466,1356,l,{
name = hr00;
})
);
},
{
closed = 1;
nodes = (
(-21,1140,l),
(198,1281,l),
(368,1140,l),
(511,1140,l),
(347,1429,ls),
(328,1463,o),
(298,1489,o),
(229,1489,cs),
(161,1489,o),
(123,1466,o),
(98,1438,cs),
(-169,1140,l,{
name = hr00;
})
);
}
);
width = 0;
}
);
}
{
glyphname = circumflexcomb_hookabovecomb;
kernLeft = circumflexcomb;
kernRight = circumflexcomb;
layers = (
{
anchors = (
{
name = _top;
pos = (150,994);
},
{
name = top;
pos = (233,1551);
}
);
background = {
shapes = (
{
closed = 1;
nodes = (
(918,1430,l),
(917,1437,o),
(916,1444,o),
(916,1451,cs),
(916,1472,o),
(929,1500,o),
(950,1512,cs),
(1028,1557,o),
(1106,1574,o),
(1106,1690,cs),
(1106,1764,o),
(1020,1812,o),
(931,1812,cs),
(869,1812,o),
(823,1800,o),
(787,1783,cs),
(759,1770,o),
(742,1735,o),
(742,1704,cs),
(742,1688,o),
(749,1677,o),
(764,1677,cs),
(774,1677,o),
(816,1697,o),
(870,1697,cs),
(925,1697,o),
(967,1672,o),
(956,1627,c),
(951,1601,o),
(811,1565,o),
(811,1480,cs),
(811,1461,o),
(819,1447,o),
(824,1430,c)
);
},
{
closed = 1;
nodes = (
(915,1423,l),
(914,1433,o),
(912,1439,o),
(912,1450,cs),
(912,1550,o),
(1102,1532,o),
(1102,1682,cs),
(1102,1747,o),
(1043,1810,o),
(921,1810,cs),
(867,1810,o),
(822,1797,o),
(789,1783,cs),
(761,1771,o),
(740,1735,o),
(740,1705,cs),
(740,1687,o),
(747,1675,o),
(762,1675,cs),
(773,1675,o),
(806,1701,o),
(866,1700,cs),
(925,1699,o),
(955,1676,o),
(955,1646,cs),
(955,1580,o),
(813,1574,o),
(813,1478,cs),
(813,1458,o),
(818,1443,o),
(828,1423,c)
);
},
{
closed = 1;
nodes = (
(515,1423,l),
(514,1433,o),
(512,1439,o),
(512,1450,cs),
(512,1550,o),
(702,1532,o),
(702,1682,cs),
(702,1747,o),
(643,1810,o),
(521,1810,cs),
(467,1810,o),
(422,1797,o),
(389,1783,cs),
(361,1771,o),
(340,1735,o),
(340,1705,cs),
(340,1687,o),
(347,1675,o),
(362,1675,cs),
(373,1675,o),
(406,1701,o),
(470,1700,cs),
(525,1699,o),
(555,1676,o),
(555,1646,cs),
(555,1580,o),
(413,1574,o),
(413,1478,cs),
(413,1458,o),
(418,1443,o),
(428,1423,c)
);
}
);
};
layerId = "D92FDD0B-F694-41DD-AE46-0E4F694F0F38";
shapes = (
{
closed = 1;
nodes = (
(-50,1140,l),
(202,1341,l),
(399,1140,l),
(512,1140,l),
(311,1429,ls),
(290,1460,o),
(273,1489,o),
(224,1489,cs),
(176,1489,o),
(149,1465,o),
(122,1438,cs),
(-168,1140,l)
);
},
{
closed = 1;
nodes = (
(525,1421,l),
(522,1431,o),
(520,1438,o),
(520,1455,cs),
(520,1477,o),
(533,1500,o),
(597,1533,cs),
(677,1574,o),
(713,1608,o),
(713,1677,cs),
(713,1750,o),
(655,1812,o),
(532,1812,cs),
(478,1812,o),
(420,1795,o),
(383,1774,cs),
(375,1770,o),
(366,1765,o),
(362,1750,cs),
(358,1734,o),
(355,1713,o),
(353,1690,cs),
(352,1683,o),
(357,1678,o),
(363,1678,cs),
(379,1678,o),
(419,1703,o),
(477,1703,cs),
(536,1703,o),
(566,1681,o),
(566,1648,cs),
(566,1577,o),
(422,1581,o),
(422,1474,cs),
(422,1452,o),
(428,1439,o),
(438,1421,c)
);
}
);
width = 0;
},
{
anchors = (
{
name = _top;
pos = (149,994);
},
{
name = top;
pos = (233,1551);
}
);
background = {
shapes = (
{
closed = 1;
nodes = (
(1081,1424,l),
(1080,1429,o),
(1080,1435,o),
(1080,1439,cs),
(1080,1488,o),
(1103,1503,o),
(1152,1528,cs),
(1223,1564,o),
(1285,1598,o),
(1285,1691,cs),
(1285,1755,o),
(1218,1809,o),
(1058,1809,cs),
(995,1809,o),
(939,1796,o),
(895,1772,cs),
(869,1758,o),
(828,1729,o),
(828,1661,cs),
(828,1639,o),
(833,1624,o),
(848,1624,cs),
(880,1624,o),
(907,1676,o),
(994,1676,cs),
(1039,1676,o),
(1063,1661,o),
(1063,1623,cs),
(1063,1567,o),
(961,1580,o),
(961,1473,cs),
(961,1452,o),
(972,1432,o),
(977,1424,c)
);
},
{
closed = 1;
nodes = (
(583,1420,l),
(581,1429,o),
(579,1436,o),
(580,1456,cs),
(585,1548,o),
(780,1533,o),
(780,1683,cs),
(780,1761,o),
(705,1816,o),
(570,1816,cs),
(496,1816,o),
(442,1793,o),
(412,1780,cs),
(377,1765,o),
(349,1726,o),
(349,1684,cs),
(349,1664,o),
(357,1651,o),
(372,1650,cs),
(383,1649,o),
(427,1684,o),
(497,1684,cs),
(550,1684,o),
(582,1663,o),
(582,1632,cs),
(582,1569,o),
(458,1562,o),
(458,1481,cs),
(458,1461,o),
(466,1443,o),
(473,1420,c)
);
}
);
};
layerId = "BDB4B313-38B1-4B24-B843-560B185382BD";
shapes = (
{
closed = 1;
nodes = (
(-38,1152,l),
(196,1322,l),
(384,1152,l),
(519,1152,l),
(336,1461,ls),
(318,1491,o),
(290,1517,o),
(226,1517,cs),
(162,1517,o),
(127,1496,o),
(103,1469,cs),
(-177,1152,l,{
name = hr00;
})
);
},
{
closed = 1;
nodes = (
(579,1422,l),
(578,1433,o),
(575,1442,o),
(575,1458,cs),
(575,1484,o),
(592,1505,o),
(654,1537,cs),
(721,1572,o),
(770,1608,o),
(770,1681,cs),
(770,1745,o),
(696,1814,o),
(573,1814,cs),
(490,1814,o),
(421,1787,o),
(391,1770,cs),
(379,1763,o),
(372,1756,o),
(368,1740,cs),
(365,1724,o),
(364,1695,o),
(361,1672,cs),
(360,1664,o),
(364,1660,o),
(371,1660,cs),
(384,1660,o),
(432,1685,o),
(497,1685,cs),
(554,1685,o),
(581,1665,o),
(581,1634,cs),
(582,1569,o),
(463,1572,o),
(459,1483,cs),
(458,1460,o),
(464,1444,o),
(474,1422,c)
);
}
);
width = 0;
}
);
}
{
glyphname = commaaccentcomb.loclMAH;
layers = (
{
anchors = (
{
name = _bottom;
pos = (149,0);
}
);
layerId = "D92FDD0B-F694-41DD-AE46-0E4F694F0F38";
shapes = (
{
closed = 1;
nodes = (
(245,-488,o),
(346,-371,o),
(346,-271,cs),
(346,-194,o),
(281,-139,o),
(162,-130,c,{
name = hr03;
}),
(222,18,l),
(105,18,l,{
name = hr01;
}),
(39,-191,l),
(128,-189,o),
(180,-229,o),
(180,-271,cs),
(180,-331,o),
(120,-374,o),
(48,-374,cs),
(-14,-374,o),
(-49,-357,o),
(-70,-349,cs),
(-81,-345,o),
(-85,-346,o),
(-93,-356,cs),
(-104,-370,o),
(-120,-397,o),
(-134,-417,cs),
(-139,-424,o),
(-140,-434,o),
(-133,-439,cs),
(-100,-463,o),
(-40,-488,o),
(54,-488,cs)
);
}
);
width = 462;
},
{
anchors = (
{
name = _bottom;
pos = (165,0);
}
);
layerId = "BDB4B313-38B1-4B24-B843-560B185382BD";
shapes = (
{
closed = 1;
nodes = (
(248,-497,o),
(396,-409,o),
(396,-271,cs),
(396,-181,o),
(313,-127,o),
(190,-111,c,{
name = hr03;
}),
(252,19,l),
(95,19,l,{
name = hr01;
}),
(15,-201,l),
(144,-199,o),
(190,-244,o),
(190,-283,cs,{
name = hr02;
}),
(190,-344,o),
(129,-373,o),
(66,-373,cs),
(-4,-373,o),
(-46,-356,o),
(-83,-341,cs),
(-93,-337,o),
(-97,-341,o),
(-102,-349,cs),
(-113,-367,o),
(-137,-404,o),
(-144,-416,cs),
(-148,-425,o),
(-148,-431,o),
(-141,-436,cs),
(-113,-453,o),
(-35,-497,o),
(95,-497,cs)
);
}
);
width = 522;
}
);
}
{
glyphname = dblgravecomb.case;
kernLeft = hungarumlautcomb;
kernRight = hungarumlautcomb;
layers = (
{
anchors = (
{
name = _top;
pos = (149,994);
},
{
name = top;
pos = (0,1613);
}
);
layerId = "D92FDD0B-F694-41DD-AE46-0E4F694F0F38";
shapes = (
{
closed = 1;
nodes = (
(66,1149,l),
(-43,1364,o),
(-95,1529,o),
(-116,1564,cs),
(-132,1591,o),
(-160,1613,o),
(-196,1613,cs),
(-215,1613,o),
(-236,1607,o),
(-259,1591,cs),
(-295,1566,o),
(-309,1538,o),
(-309,1508,cs),
(-309,1486,o),
(-301,1465,o),
(-290,1447,cs),
(-268,1412,o),
(-137,1313,o),
(-6,1101,c)
);
},
{
closed = 1;
nodes = (
(430,1149,l),
(321,1364,o),
(288,1530,o),
(267,1564,cs),
(251,1590,o),
(223,1613,o),
(187,1613,cs),
(168,1613,o),
(147,1607,o),
(125,1591,cs),
(91,1567,o),
(78,1539,o),
(78,1510,cs),
(78,1487,o),
(86,1465,o),
(97,1447,cs),
(118,1412,o),
(227,1313,o),
(358,1101,c)
);
}
);
width = 0;
},
{
anchors = (
{
name = _top;
pos = (149,994);
},
{
name = top;
pos = (-2,1606);
}
);
layerId = "BDB4B313-38B1-4B24-B843-560B185382BD";
shapes = (
{
closed = 1;
nodes = (
(43,1149,l),
(-66,1364,o),
(-101,1529,o),
(-120,1564,c),
(-136,1588,o),
(-163,1606,o),
(-197,1606,cs),
(-218,1606,o),
(-243,1599,o),
(-269,1581,cs),
(-309,1553,o),
(-327,1514,o),
(-327,1480,cs),
(-327,1460,o),
(-322,1442,o),
(-313,1427,c),
(-292,1392,o),
(-183,1293,o),
(-51,1081,c,{
name = hr00;
})
);
},
{
closed = 1;
nodes = (
(477,1149,l),
(368,1364,o),
(335,1530,o),
(314,1564,cs),
(299,1589,o),
(271,1606,o),
(237,1606,cs),
(216,1606,o),
(191,1599,o),
(165,1581,cs),
(124,1552,o),
(108,1513,o),
(108,1478,cs),
(108,1459,o),
(113,1441,o),
(121,1427,cs),
(141,1392,o),
(251,1293,o),
(383,1081,c)
);
}
);
width = 0;
}
);
}
{
glyphname = dotaccentcomb.case;
kernLeft = dotaccent.cap;
kernRight = dotaccent.cap;
layers = (
{
anchors = (
{
name = _top;
pos = (149,994);
},
{
name = top;
pos = (196,1306);
}
);
layerId = "D92FDD0B-F694-41DD-AE46-0E4F694F0F38";
shapes = (
{
closed = 1;
nodes = (
(249,1121,o),
(312,1196,o),
(312,1287,cs),
(312,1352,o),
(274,1399,o),
(210,1399,cs),
(128,1399,o),
(66,1324,o),
(66,1234,cs),
(66,1169,o),
(103,1121,o),
(168,1121,cs)
);
}
);
width = 0;
},
{
anchors = (
{
name = _top;
pos = (149,994);
},
{
name = top;
pos = (205,1368);
}
);
layerId = "BDB4B313-38B1-4B24-B843-560B185382BD";
shapes = (
{
closed = 1;
nodes = (
(285,1127,o),
(386,1223,o),
(386,1339,cs),
(386,1431,o),
(317,1494,o),
(223,1494,cs),
(107,1494,o),
(6,1401,o),
(6,1279,cs),
(6,1188,o),
(74,1127,o),
(168,1127,cs)
);
}
);
width = 600;
}
);
}
{
glyphname = dotbelowcomb.case;
kernLeft = dotbelowcomb;
kernRight = dotbelowcomb;
layers = (
{
anchors = (
{
name = _bottom;
},
{
name = bottom;
pos = (-77,-471);
}
);
layerId = "D92FDD0B-F694-41DD-AE46-0E4F694F0F38";
shapes = (
{
closed = 1;
nodes = (
(9,-402,o),
(72,-327,o),
(72,-236,cs),
(72,-171,o),
(34,-124,o),
(-30,-124,cs),
(-112,-124,o),
(-174,-199,o),
(-174,-289,cs),
(-174,-354,o),
(-137,-402,o),
(-72,-402,cs)
);
}
);
width = 0;
},
{
anchors = (
{
name = _bottom;
},
{
name = bottom;
pos = (-89,-563);
}
);
layerId = "BDB4B313-38B1-4B24-B843-560B185382BD";
shapes = (
{
closed = 1;
nodes = (
(44,-478,o),
(145,-382,o),
(145,-266,cs),
(145,-174,o),
(76,-111,o),
(-18,-111,cs),
(-134,-111,o),
(-235,-204,o),
(-235,-326,cs),
(-235,-417,o),
(-167,-478,o),
(-73,-478,cs)
);
}
);
width = 0;
}
);
}
{
glyphname = eight.dnom;
layers = (
{
layerId = "D92FDD0B-F694-41DD-AE46-0E4F694F0F38";
shapes = (
{
closed = 1;
nodes = (
(679,-15,o),
(868,75,o),
(868,283,cs),
(868,407,o),
(777,459,o),
(651,522,c),
(773,567,o),
(902,660,o),
(902,784,cs),
(902,896,o),
(793,981,o),
(579,981,cs),
(373,981,o),
(207,887,o),
(207,698,cs),
(207,606,o),
(253,540,o),
(338,489,c),
(198,449,o),
(74,359,o),
(74,218,cs),
(74,81,o),
(215,-15,o),
(446,-15,cs)
);
},
{
closed = 1;
nodes = (
(441,622,o),
(390,681,o),
(390,746,cs),
(390,863,o),
(465,918,o),
(585,918,cs),
(691,918,o),
(730,857,o),
(730,787,cs),
(730,702,o),
(671,593,o),
(589,551,c)
);
},
{
closed = 1;
nodes = (
(335,49,o),
(256,134,o),
(256,233,cs),
(256,323,o),
(306,413,o),
(390,456,c),
(569,369,o),
(688,298,o),
(688,225,cs),
(688,96,o),
(585,49,o),
(448,49,cs)
);
}
);
width = 1024;
},
{
layerId = "BDB4B313-38B1-4B24-B843-560B185382BD";
shapes = (
{
closed = 1;
nodes = (
(745,-15,o),
(987,104,o),
(987,295,cs),
(987,436,o),
(870,497,o),
(739,560,c),
(863,591,o),
(990,674,o),
(990,796,cs,{
name = hr02;
}),
(990,915,o),
(854,990,o),
(633,990,cs),
(369,990,o),
(202,868,o),
(202,708,cs),
(202,612,o),
(268,536,o),
(354,476,c),
(217,455,o),
(89,358,o),
(89,226,cs),
(89,70,o),
(241,-15,o),
(517,-15,cs)
);
},
{
closed = 1;
nodes = (
(513,658,o),
(445,720,o),
(445,790,cs),
(445,894,o),
(518,925,o),
(626,925,cs),
(728,925,o),
(777,865,o),
(777,796,cs),
(777,718,o),
(746,625,o),
(672,590,c)
);
},
{
closed = 1;
nodes = (
(410,49,o),
(315,126,o),
(315,241,cs),
(315,316,o),
(344,402,o),
(403,446,c),
(517,361,o),
(736,314,o),
(736,212,cs),
(736,107,o),
(640,49,o),
(517,49,cs)
);
}
);
width = 1130;
}
);
metricWidth = zero.dnom;
}
{
glyphname = eight.tf;
layers = (
{
layerId = "D92FDD0B-F694-41DD-AE46-0E4F694F0F38";
shapes = (
{
closed = 1;
nodes = (
(884,-30,o),
(1128,135,o),
(1128,416,cs),
(1128,577,o),
(1013,667,o),
(885,747,c),
(1048,828,o),
(1185,970,o),
(1185,1156,cs),
(1185,1301,o),
(1080,1450,o),
(808,1450,cs),
(533,1450,o),
(311,1277,o),
(311,1044,cs),
(311,915,o),
(383,819,o),
(481,741,c),
(279,673,o),
(126,518,o),
(126,310,cs),
(126,140,o),
(288,-30,o),
(573,-30,cs)
);
},
{
closed = 1;
nodes = (
(576,903,o),
(513,980,o),
(513,1077,cs),
(513,1236,o),
(605,1355,o),
(790,1355,cs),
(942,1355,o),
(997,1244,o),
(997,1156,cs),
(997,1015,o),
(932,856,o),
(802,790,c)
);
},
{
closed = 1;
nodes = (
(395,65,o),
(315,226,o),
(315,315,cs),
(315,471,o),
(398,629,o),
(559,690,c),
(587,675,o),
(633,647,o),
(662,632,cs),
(780,569,o),
(920,500,o),
(920,351,cs),
(920,176,o),
(782,65,o),
(590,65,cs)
);
}
);
userData = {
RMXScaler = {
monoWidth = 1306;
};
};
width = 1306;
},
{
layerId = "BDB4B313-38B1-4B24-B843-560B185382BD";
shapes = (
{
closed = 1;
nodes = (
(905,-29,o),
(1171,140,o),
(1184,426,cs),
(1193,618,o),
(1053,714,o),
(898,802,c),
(1066,860,o),
(1233,984,o),
(1233,1163,cs),
(1233,1331,o),
(1100,1446,o),
(805,1446,cs),
(514,1446,o),
(263,1299,o),
(263,1043,cs),
(263,907,o),
(326,811,o),
(432,726,c),
(240,676,o),
(73,524,o),
(73,313,cs),
(73,100,o),
(267,-29,o),
(595,-29,cs)
);
},
{
closed = 1;
nodes = (
(615,954,o),
(537,1020,o),
(537,1120,cs),
(537,1261,o),
(638,1351,o),
(787,1351,cs),
(920,1351,o),
(991,1255,o),
(991,1127,cs),
(991,984,o),
(875,888,o),
(816,849,c)
);
},
{
closed = 1;
nodes = (
(439,65,o),
(348,219,o),
(348,361,cs),
(348,513,o),
(421,612,o),
(496,685,c),
(550,650,o),
(606,612,o),
(661,580,cs),
(766,519,o),
(890,457,o),
(890,332,cs),
(890,180,o),
(774,65,o),
(612,65,cs)
);
}
);
userData = {
RMXScaler = {
monoWidth = 1306;
};
};
width = 1306;
}
);
userData = {
RMXScaler = {
source = eight;
};
};
}
{
glyphname = eight.tosf;
layers = (
{
layerId = "D92FDD0B-F694-41DD-AE46-0E4F694F0F38";
shapes = (
{
closed = 1;
nodes = (
(920,-30,o),
(1144,140,o),
(1144,418,cs),
(1144,577,o),
(1001,676,o),
(878,754,c),
(1051,842,o),
(1214,966,o),
(1214,1158,cs),
(1214,1322,o),
(1080,1450,o),
(817,1450,cs),
(520,1450,o),
(323,1293,o),
(323,1060,cs),
(323,932,o),
(406,817,o),
(525,742,c),
(331,670,o),
(129,545,o),
(129,330,cs),
(129,141,o),
(295,-30,o),
(592,-30,cs)
);
},
{
closed = 1;
nodes = (
(589,906,o),
(537,998,o),
(537,1095,cs),
(537,1246,o),
(622,1360,o),
(799,1360,cs),
(944,1360,o),
(1016,1265,o),
(1016,1158,cs),
(1016,1012,o),
(928,869,o),
(803,799,c)
);
},
{
closed = 1;
nodes = (
(402,65,o),
(330,207,o),
(330,316,cs),
(330,503,o),
(453,629,o),
(594,689,c),
(781,589,o),
(920,516,o),
(924,353,cs),
(924,178,o),
(816,65,o),
(609,65,cs)
);
}
);
userData = {
RMXScaler = {
keepStroke = 90;
monoWidth = 1280;
useSpacing = 60;
};
};
width = 1306;
},
{
layerId = "BDB4B313-38B1-4B24-B843-560B185382BD";
shapes = (
{
closed = 1;
nodes = (
(910,-28,o),
(1207,124,o),
(1207,422,cs),
(1207,614,o),
(1063,713,o),
(901,802,c),
(1069,856,o),
(1234,949,o),
(1234,1139,cs),
(1234,1308,o),
(1098,1448,o),
(795,1448,cs),
(507,1448,o),
(247,1304,o),
(247,1046,cs),
(247,904,o),
(336,814,o),
(440,732,c),
(251,684,o),
(75,561,o),
(75,345,cs),
(75,131,o),
(274,-28,o),
(600,-28,cs)
);
},
{
closed = 1;
nodes = (
(613,950,o),
(528,1027,o),
(528,1128,cs),
(528,1274,o),
(627,1353,o),
(778,1353,cs),
(916,1353,o),
(969,1271,o),
(969,1169,cs),
(969,1050,o),
(913,909,o),
(815,848,c)
);
},
{
closed = 1;
nodes = (
(455,66,o),
(353,199,o),
(353,365,cs),
(353,503,o),
(423,619,o),
(507,688,c),
(770,549,o),
(915,482,o),
(915,330,cs),
(915,163,o),
(798,66,o),
(626,66,cs)
);
}
);
userData = {
RMXScaler = {
keepStroke = 80;
monoWidth = 1436;
useSpacing = 60;
};
};
width = 1306;
}
);
userData = {
RMXScaler = {
source = eight;
};
};
}
{
glyphname = emdash.case;
layers = (
{
layerId = "D92FDD0B-F694-41DD-AE46-0E4F694F0F38";
shapes = (
{
closed = 1;
nodes = (
(1645,670,l),
(1663,796,l),
(127,796,l),
(109,670,l,{
name = hr00;
})
);
}
);
width = 1755;
},
{
layerId = "BDB4B313-38B1-4B24-B843-560B185382BD";
shapes = (
{
closed = 1;
nodes = (
(1790,670,l),
(1808,796,l),
(127,796,l),
(109,670,l)
);
}
);
width = 1900;
}
);
}
{
glyphname = figuredash.case;
layers = (
{
layerId = "D92FDD0B-F694-41DD-AE46-0E4F694F0F38";
shapes = (
{
closed = 1;
nodes = (
(1147,670,l),
(1165,796,l),
(127,796,l),
(109,670,l,{
name = hr00;
})
);
}
);
width = 1257;
},
{
layerId = "BDB4B313-38B1-4B24-B843-560B185382BD";
shapes = (
{
closed = 1;
nodes = (
(1326,670,l),
(1344,796,l),
(127,796,l),
(109,670,l,{
name = hr00;
})
);
}
);
width = 1436;
}
);
}
{
glyphname = five.tosf;
layers = (
{
layerId = "D92FDD0B-F694-41DD-AE46-0E4F694F0F38";
shapes = (
{
closed = 1;
nodes = (
(844,-392,o),
(1121,-96,o),
(1121,267,cs),
(1121,490,o),
(961,628,o),
(690,628,cs),
(616,628,o),
(496,604,o),
(409,565,c),
(516,1021,l),
(1173,1021,l),
(1208,1190,l),
(410,1190,l),
(227,413,l),
(299,380,l),
(380,477,o),
(541,516,o),
(655,516,cs),
(793,516,o),
(897,428,o),
(897,250,cs),
(897,-19,o),
(711,-298,o),
(460,-298,cs),
(407,-298,o),
(304,-275,o),
(267,-230,c),
(341,0,l),
(339,48,o),
(273,57,o),
(220,57,cs),
(135,57,o),
(44,-11,o),
(44,-131,cs),
(44,-282,o),
(295,-392,o),
(472,-392,cs)
);
}
);
userData = {
RMXScaler = {
keepStroke = 90;
monoWidth = 1280;
useSpacing = 60;
};
};
width = 1306;
},
{
layerId = "BDB4B313-38B1-4B24-B843-560B185382BD";
shapes = (
{
closed = 1;
nodes = (
(843,-392,o),
(1179,-147,o),
(1179,233,cs),
(1179,464,o),
(1019,608,o),
(707,608,cs),
(569,608,o),
(414,558,o),
(314,500,c),
(456,909,l),
(1204,909,l),
(1261,1188,l),
(372,1188,l),
(140,373,l),
(211,340,l),
(305,426,o),
(444,486,o),
(576,486,cs),
(746,486,o),
(829,400,o),
(829,235,cs),
(829,-57,o),
(701,-297,o),
(422,-297,cs),
(337,-297,o),
(249,-252,o),
(188,-197,c),
(287,46,l),
(281,79,o),
(239,117,o),
(154,117,cs),
(54,117,o),
(-47,18,o),
(-47,-91,cs),
(-47,-271,o),
(177,-392,o),
(464,-392,cs)
);
}
);
userData = {
RMXScaler = {
keepStroke = 80;
monoWidth = 1436;
useSpacing = 60;
};
};
width = 1306;
}
);
userData = {
RMXScaler = {
source = five;
};
};
}
{
glyphname = gravecomb.case;
kernLeft = gravecomb;
kernRight = gravecomb;
layers = (
{
anchors = (
{
name = _top;
pos = (118,994);
},
{
name = top;
pos = (164,1567);
}
);
layerId = "D92FDD0B-F694-41DD-AE46-0E4F694F0F38";
shapes = (
{
closed = 1;
nodes = (
(291,1159,l),
(155,1348,o),
(84,1501,o),
(57,1531,cs),
(39,1551,o),
(10,1567,o),
(-23,1567,cs),
(-47,1567,o),
(-74,1557,o),
(-100,1534,cs),
(-130,1508,o),
(-140,1479,o),
(-140,1453,cs),
(-140,1427,o),
(-128,1403,o),
(-112,1386,cs),
(-84,1357,o),
(50,1284,o),
(226,1101,c)
);
}
);
width = 0;
},
{
anchors = (
{
name = _top;
pos = (193,994);
},
{
name = top;
pos = (242,1587);
}
);
layerId = "BDB4B313-38B1-4B24-B843-560B185382BD";
shapes = (
{
closed = 1;
nodes = (
(373,1179,l),
(247,1368,o),
(182,1521,o),
(155,1551,cs),
(137,1571,o),
(101,1587,o),
(63,1587,cs),
(33,1587,o),
(3,1577,o),
(-23,1554,cs),
(-57,1524,o),
(-69,1482,o),
(-69,1447,cs),
(-69,1421,o),
(-61,1397,o),
(-47,1383,cs),
(-19,1355,o),
(127,1274,o),
(308,1121,c,{
name = hr00;
})
);
}
);
width = 0;
}
);
}
{
glyphname = guilsinglleft.case;
layers = (
{
layerId = "D92FDD0B-F694-41DD-AE46-0E4F694F0F38";
shapes = (
{
closed = 1;
nodes = (
(598,328,l),
(300,688,l),
(693,1029,l),
(714,1175,l),
(121,758,l),
(104,639,l,{
name = hr00;
}),
(577,204,l)
);
}
);
width = 850;
},
{
guides = (
{
pos = (796,729);
}
);
layerId = "BDB4B313-38B1-4B24-B843-560B185382BD";
shapes = (
{
closed = 1;
nodes = (
(623,378,l),
(395,708,l),
(698,1029,l),
(729,1205,l),
(136,778,l),
(119,659,l),
(592,234,l)
);
}
);
width = 811;
}
);
}
{
glyphname = hyphen.case;
layers = (
{
guides = (
{
pos = (172,730);
}
);
layerId = "D92FDD0B-F694-41DD-AE46-0E4F694F0F38";
shapes = (
{
closed = 1;
nodes = (
(682,670,l),
(700,796,l),
(153,796,l),
(135,670,l,{
name = hr00;
})
);
}
);
width = 766;
},
{
guides = (
{
pos = (172,729);
}
);
layerId = "BDB4B313-38B1-4B24-B843-560B185382BD";
shapes = (
{
closed = 1;
nodes = (
(692,670,l),
(711,806,l),
(154,806,l),
(135,670,l)
);
}
);
width = 776;
}
);
}
{
glyphname = macronbelowcomb.case;
layers = (
{
anchors = (
{
name = _bottom;
}
);
layerId = "D92FDD0B-F694-41DD-AE46-0E4F694F0F38";
shapes = (
{
closed = 1;
nodes = (
(223,-278,l),
(245,-130,l),
(-342,-130,l),
(-364,-278,l,{
name = hr00;
})
);
}
);
width = 0;
},
{
anchors = (
{
name = _bottom;
pos = (-2,0);
}
);
layerId = "BDB4B313-38B1-4B24-B843-560B185382BD";
shapes = (
{
closed = 1;
nodes = (
(212,-278,l),
(235,-127,l),
(-352,-127,l),
(-375,-278,l,{
name = hr00;
})
);
}
);
width = 0;
}
);
}
{
glyphname = oSlash_part.;
layers = (
{
anchors = (
{
name = _center;
pos = (514,536);
}
);
layerId = "D92FDD0B-F694-41DD-AE46-0E4F694F0F38";
shapes = (
{
closed = 1;
nodes = (
(870,1098,o),
(833,1139,o),
(805,1139,cs),
(797,1139,o),
(790,1137,o),
(785,1130,c),
(154,-14,l),
(151,-38,o),
(185,-71,o),
(219,-71,cs),
(226,-71,o),
(233,-69,o),
(236,-64,cs),
(868,1080,l)
);
}
);
width = 1200;
},
{
anchors = (
{
name = _center;
pos = (525,563);
}
);
layerId = "BDB4B313-38B1-4B24-B843-560B185382BD";
shapes = (
{
closed = 1;
nodes = (
(891,1128,o),
(854,1169,o),
(826,1169,cs),
(818,1169,o),
(811,1167,o),
(806,1160,c),
(154,-14,l),
(151,-38,o),
(185,-71,o),
(219,-71,cs),
(226,-71,o),
(233,-69,o),
(236,-64,cs),
(889,1110,l)
);
}
);
width = 1200;
},
{
anchors = (
{
name = _center;
pos = (467,728);
}
);
associatedMasterId = "D92FDD0B-F694-41DD-AE46-0E4F694F0F38";
layerId = "BF6BC6F6-4B2A-4E9B-9E28-8B62B2F12FD9";
name = "Bold Italic";
shapes = (
{
closed = 1;
nodes = (
(180,128,l),
(301,320,l),
(308,351,l),
(760,1081,l),
(807,1119,l),
(937,1326,l),
(755,1326,l),
(644,1148,l),
(639,1113,l),
(197,400,l),
(148,366,l),
(-2,128,l)
);
}
);
width = 1200;
}
);
}
{
glyphname = one.dnom;
layers = (
{
layerId = "D92FDD0B-F694-41DD-AE46-0E4F694F0F38";
shapes = (
{
closed = 1;
nodes = (
(805,0,ls),
(821,0,o),
(829,35,o),
(829,49,cs),
(829,64,o),
(828,77,o),
(807,78,cs),
(759,80,o),
(578,87,o),
(588,143,cs),
(729,958,l),
(611,958,l),
(509,866,o),
(297,845,o),
(240,841,cs),
(212,839,o),
(202,819,o),
(198,798,cs),
(192,766,o),
(214,713,o),
(234,713,cs),
(318,713,o),
(447,758,o),
(518,814,c),
(396,122,ls),
(391,93,o),
(194,83,o),
(139,78,c),
(119,77,o),
(108,49,o),
(108,34,cs),
(108,24,o),
(109,0,o),
(127,0,cs)
);
}
);
width = 1024;
},
{
background = {
shapes = (
{
closed = 1;
nodes = (
(523,0,ls),
(538,0,o),
(549,17,o),
(551,28,cs),
(554,47,o),
(548,50,o),
(529,51,cs),
(487,53,o),
(404,59,o),
(412,115,cs),
(535,938,l),
(357,938,l),
(288,890,o),
(167,822,o),
(123,820,cs),
(104,819,o),
(96,802,o),
(93,782,cs),
(91,772,o),
(99,762,o),
(114,762,cs),
(142,762,o),
(204,767,o),
(243,774,c),
(142,94,ls),
(138,65,o),
(59,55,o),
(12,51,c),
(-5,50,o),
(-12,42,o),
(-14,28,cs,{
name = hr00;
}),
(-16,17,o),
(-9,0,o),
(6,0,cs)
);
}
);
};
layerId = "BDB4B313-38B1-4B24-B843-560B185382BD";
shapes = (
{
closed = 1;
nodes = (
(938,0,ls),
(954,0,o),
(964,24,o),
(967,36,cs),
(974,65,o),
(968,82,o),
(948,83,cs),
(791,91,o),
(683,109,o),
(688,142,cs),
(823,968,l),
(636,968,l),
(541,876,o),
(279,847,o),
(225,845,cs),
(199,844,o),
(190,823,o),
(187,802,cs),
(182,770,o),
(202,711,o),
(220,711,cs),
(323,711,o),
(471,766,o),
(520,802,c),
(409,140,ls),
(401,92,o),
(192,89,o),
(140,83,c),
(121,82,o),
(114,64,o),
(111,50,cs),
(109,39,o),
(113,0,o),
(130,0,cs)
);
}
);
width = 1130;
}
);
metricWidth = zero.dnom;
}
{
glyphname = one.lf;
kernLeft = one.lf;
kernRight = one.lf;
layers = (
{
layerId = "D92FDD0B-F694-41DD-AE46-0E4F694F0F38";
shapes = (
{
closed = 1;
nodes = (
(694,0,ls),
(715,0,o),
(735,24,o),
(735,54,cs),
(735,72,o),
(726,76,o),
(704,78,cs),
(647,83,o),
(495,89,o),
(495,164,cs),
(495,168,o),
(495,171,o),
(496,175,cs),
(683,1419,l),
(579,1419,l),
(476,1346,o),
(280,1281,o),
(196,1272,cs),
(167,1269,o),
(164,1245,o),
(164,1215,cs),
(164,1200,o),
(169,1139,o),
(192,1139,cs),
(257,1139,o),
(391,1188,o),
(460,1246,c),
(294,142,ls),
(288,98,o),
(134,83,o),
(70,78,c),
(43,75,o),
(31,51,o),
(31,30,cs),
(31,15,o),
(36,0,o),
(59,0,cs)
);
}
);
width = 880;
},
{
layerId = "BDB4B313-38B1-4B24-B843-560B185382BD";
shapes = (
{
closed = 1;
nodes = (
(807,0,ls),
(828,0,o),
(851,29,o),
(851,60,cs),
(851,78,o),
(842,87,o),
(820,89,cs),
(762,94,o),
(631,100,o),
(631,175,cs),
(631,179,o),
(631,182,o),
(632,186,cs),
(816,1420,l),
(645,1420,l),
(542,1347,o),
(305,1267,o),
(244,1263,cs),
(208,1260,o),
(199,1236,o),
(199,1199,cs),
(199,1166,o),
(208,1086,o),
(242,1086,cs),
(305,1086,o),
(390,1131,o),
(454,1188,c),
(300,153,ls),
(293,109,o),
(170,94,o),
(106,89,c),
(79,86,o),
(67,73,o),
(67,52,cs,{
name = hr00;
}),
(67,37,o),
(69,0,o),
(92,0,cs)
);
}
);
width = 1004;
}
);
}
{
glyphname = one.tosf;
layers = (
{
layerId = "D92FDD0B-F694-41DD-AE46-0E4F694F0F38";
shapes = (
{
closed = 1;
nodes = (
(1054,0,ls),
(1083,0,o),
(1113,13,o),
(1113,63,cs),
(1113,85,o),
(1100,87,o),
(1064,90,cs),
(980,97,o),
(761,99,o),
(772,172,cs),
(924,1188,l),
(793,1188,l),
(698,1110,o),
(486,1063,o),
(377,1063,cs),
(332,1063,o),
(316,1032,o),
(316,998,cs),
(316,974,o),
(337,897,o),
(366,897,cs),
(445,897,o),
(614,961,o),
(705,1012,c),
(578,172,ls),
(570,116,o),
(361,96,o),
(259,90,c),
(218,87,o),
(206,71,o),
(206,48,cs),
(206,31,o),
(218,0,o),
(248,0,cs)
);
}
);
userData = {
RMXScaler = {
keepStroke = 90;
monoWidth = 1280;
useSpacing = 60;
};
};
width = 1306;
},
{
background = {
shapes = (
{
closed = 0;
nodes = (
(377,1063,ls),
(332,1063,o),
(316,1032,o),
(316,998,cs),
(316,974,o),
(337,897,o),
(366,897,cs)
);
}
);
};
layerId = "BDB4B313-38B1-4B24-B843-560B185382BD";
shapes = (
{
closed = 1;
nodes = (
(1117,0,ls),
(1147,0,o),
(1178,24,o),
(1178,72,cs),
(1178,92,o),
(1164,95,o),
(1128,98,cs),
(1048,105,o),
(832,107,o),
(832,186,c),
(993,1188,l),
(813,1188,l),
(660,1113,o),
(442,1063,o),
(307,1063,cs),
(264,1063,o),
(246,1042,o),
(246,998,cs),
(246,968,o),
(262,897,o),
(296,897,cs),
(384,897,o),
(566,941,o),
(641,993,c),
(506,162,ls),
(499,118,o),
(284,104,o),
(187,98,c),
(147,95,o),
(135,81,o),
(132,61,cs,{
name = hr00;
}),
(130,46,o),
(140,0,o),
(174,0,cs)
);
}
);
userData = {
RMXScaler = {
keepStroke = 80;
monoWidth = 1436;
useSpacing = 60;
};
};
width = 1306;
}
);
userData = {
RMXScaler = {
source = one;
};
};
}
{
glyphname = seven.dnom;
layers = (
{
layerId = "D92FDD0B-F694-41DD-AE46-0E4F694F0F38";
shapes = (
{
closed = 1;
nodes = (
(476,0,l),
(975,922,l),
(944,958,l),
(228,958,l),
(134,642,l),
(131,626,o),
(154,618,o),
(165,618,cs),
(182,618,o),
(202,623,o),
(208,642,cs),
(221,684,o),
(268,789,o),
(362,789,c),
(782,789,l),
(271,0,l)
);
}
);
width = 1024;
},
{
layerId = "BDB4B313-38B1-4B24-B843-560B185382BD";
shapes = (
{
closed = 1;
nodes = (
(631,-1,l),
(1059,941,l),
(1034,968,l),
(247,968,l),
(170,621,l),
(168,605,o),
(196,597,o),
(206,597,cs),
(221,597,o),
(245,604,o),
(251,619,cs),
(290,716,o),
(315,775,o),
(401,775,c),
(868,775,l),
(350,0,l,{
name = hr00;
})
);
}
);
width = 1130;
}
);
metricWidth = zero.dnom;
}
{
glyphname = six.tf;
layers = (
{
layerId = "D92FDD0B-F694-41DD-AE46-0E4F694F0F38";
shapes = (
{
closed = 1;
nodes = (
(932,-29,o),
(1176,225,o),
(1176,568,cs),
(1176,778,o),
(1069,934,o),
(773,934,cs),
(627,934,o),
(483,863,o),
(413,798,c),
(513,1057,o),
(680,1252,o),
(1155,1348,c),
(1168,1440,l),
(512,1389,o),
(135,967,o),
(135,478,cs),
(135,203,o),
(290,-29,o),
(584,-29,cs)
);
},
{
closed = 1;
nodes = (
(394,66,o),
(334,218,o),
(334,388,cs),
(334,475,o),
(351,570,o),
(384,670,c),
(466,746,o),
(594,816,o),
(746,816,cs),
(902,816,o),
(960,717,o),
(960,565,cs),
(960,281,o),
(853,66,o),
(593,66,cs)
);
}
);
userData = {
RMXScaler = {
monoWidth = 1306;
};
};
width = 1306;
},
{
layerId = "BDB4B313-38B1-4B24-B843-560B185382BD";
shapes = (
{
closed = 1;
nodes = (
(926,-29,o),
(1218,239,o),
(1218,598,cs),
(1218,812,o),
(1098,964,o),
(829,964,cs),
(697,964,o),
(590,920,o),
(510,868,c),
(583,1111,o),
(731,1305,o),
(1099,1374,c),
(1112,1466,l),
(519,1470,o),
(105,1052,o),
(105,519,cs),
(105,211,o),
(266,-29,o),
(558,-29,cs)
);
},
{
closed = 1;
nodes = (
(466,66,o),
(422,217,o),
(422,377,cs),
(422,535,o),
(450,640,o),
(482,766,c),
(537,811,o),
(606,846,o),
(685,846,cs),
(807,846,o),
(862,759,o),
(862,605,cs),
(862,344,o),
(774,66,o),
(569,66,cs)
);
}
);
userData = {
RMXScaler = {
monoWidth = 1306;
};
};
width = 1306;
}
);
userData = {
RMXScaler = {
source = six;
};
};
}
{
glyphname = six.tosf;
layers = (
{
layerId = "D92FDD0B-F694-41DD-AE46-0E4F694F0F38";
shapes = (
{
closed = 1;
nodes = (
(915,-29,o),
(1158,232,o),
(1158,573,cs),
(1158,781,o),
(1045,934,o),
(766,934,cs),
(596,934,o),
(497,864,o),
(426,798,c),
(521,1052,o),
(718,1341,o),
(1173,1438,c),
(1185,1530,l),
(627,1452,o),
(137,964,o),
(137,435,cs),
(137,191,o),
(290,-29,o),
(574,-29,cs)
);
},
{
closed = 1;
nodes = (
(400,66,o),
(334,166,o),
(334,334,cs),
(334,417,o),
(360,574,o),
(386,670,c),
(459,742,o),
(588,816,o),
(732,816,cs),
(878,816,o),
(942,720,o),
(942,571,cs),
(942,292,o),
(833,66,o),
(584,66,cs)
);
}
);
userData = {
RMXScaler = {
keepStroke = 90;
monoWidth = 1280;
useSpacing = 60;
};
};
width = 1306;
},
{
layerId = "BDB4B313-38B1-4B24-B843-560B185382BD";
shapes = (
{
closed = 1;
nodes = (
(954,-29,o),
(1230,231,o),
(1230,594,cs),
(1230,810,o),
(1105,964,o),
(827,964,cs),
(679,964,o),
(575,917,o),
(499,867,c),
(574,1106,o),
(736,1389,o),
(1127,1458,c),
(1139,1550,l),
(576,1513,o),
(90,1042,o),
(90,476,cs),
(90,202,o),
(264,-29,o),
(590,-29,cs)
);
},
{
closed = 1;
nodes = (
(462,66,o),
(419,193,o),
(419,389,cs),
(419,506,o),
(442,645,o),
(471,766,c),
(527,810,o),
(605,846,o),
(697,846,cs),
(828,846,o),
(886,755,o),
(886,597,cs),
(886,327,o),
(793,66,o),
(579,66,cs)
);
}
);
userData = {
RMXScaler = {
keepStroke = 80;
monoWidth = 1436;
useSpacing = 60;
};
};
width = 1306;
}
);
userData = {
RMXScaler = {
source = six;
};
};
}
{
glyphname = slash.case;
layers = (
{
layerId = "D92FDD0B-F694-41DD-AE46-0E4F694F0F38";
shapes = (
{
closed = 1;
nodes = (
(157,-315,l),
(938,1725,l),
(801,1725,l),
(22,-315,l)
);
}
);
width = 960;
},
{
layerId = "BDB4B313-38B1-4B24-B843-560B185382BD";
shapes = (
{
closed = 1;
nodes = (
(127,-315,l),
(1010,1725,l),
(844,1725,l),
(-37,-315,l,{
name = hr00;
})
);
}
);
width = 966;
}
);
}
{
glyphname = three.dnom;
layers = (
{
layerId = "D92FDD0B-F694-41DD-AE46-0E4F694F0F38";
shapes = (
{
closed = 1;
nodes = (
(625,-21,o),
(859,97,o),
(859,317,cs),
(859,454,o),
(719,509,o),
(571,510,c),
(724,535,o),
(879,621,o),
(879,777,cs),
(879,905,o),
(753,981,o),
(558,981,cs),
(387,981,o),
(175,897,o),
(175,757,cs),
(175,709,o),
(222,684,o),
(262,684,cs),
(295,684,o),
(318,703,o),
(334,738,cs),
(347,767,o),
(361,806,o),
(379,844,c),
(411,888,o),
(440,916,o),
(527,916,cs),
(642,916,o),
(668,834,o),
(668,768,cs),
(668,634,o),
(549,544,o),
(418,544,cs),
(366,544,l),
(357,544,o),
(347,512,o),
(347,487,cs),
(347,475,o),
(349,468,o),
(354,468,c),
(411,468,ls),
(506,468,o),
(641,450,o),
(641,307,cs),
(641,150,o),
(536,43,o),
(370,43,cs),
(244,43,o),
(206,109,o),
(198,128,c),
(260,263,l),
(271,297,o),
(228,321,o),
(187,321,cs),
(136,321,o),
(57,264,o),
(57,174,cs),
(57,46,o),
(226,-21,o),
(374,-21,cs)
);
}
);
width = 1024;
},
{
layerId = "BDB4B313-38B1-4B24-B843-560B185382BD";
shapes = (
{
closed = 1;
nodes = (
(719,-16,o),
(979,88,o),
(979,319,cs),
(979,439,o),
(827,506,o),
(675,507,c),
(845,527,o),
(978,631,o),
(978,789,cs),
(978,914,o),
(796,990,o),
(602,990,cs),
(417,990,o),
(163,923,o),
(163,761,cs),
(163,726,o),
(203,679,o),
(258,679,cs),
(295,679,o),
(329,692,o),
(354,733,cs),
(373,765,o),
(391,808,o),
(417,853,c),
(459,923,o),
(523,924,o),
(549,924,cs),
(658,924,o),
(699,850,o),
(699,787,cs),
(699,639,o),
(612,542,o),
(457,542,cs),
(402,542,ls),
(373,542,o),
(371,519,o),
(371,480,cs),
(371,469,o),
(378,466,o),
(391,466,cs),
(467,466,ls),
(585,466,o),
(652,451,o),
(652,332,cs),
(652,166,o),
(566,48,o),
(401,48,cs),
(264,48,o),
(232,127,o),
(236,102,c),
(317,302,l),
(304,312,o),
(291,337,o),
(216,337,cs),
(143,337,o),
(86,270,o),
(86,189,cs),
(86,80,o),
(234,-16,o),
(427,-16,cs)
);
}
);
width = 1130;
}
);
metricWidth = zero.dnom;
}
{
glyphname = three.tf;
layers = (
{
layerId = "D92FDD0B-F694-41DD-AE46-0E4F694F0F38";
shapes = (
{
closed = 1;
nodes = (
(894,-28,o),
(1184,157,o),
(1184,458,cs),
(1184,680,o),
(958,760,o),
(786,762,c),
(997,807,o),
(1217,911,o),
(1217,1140,cs),
(1217,1333,o),
(1060,1447,o),
(808,1447,cs),
(599,1447,o),
(287,1301,o),
(287,1117,cs),
(287,1035,o),
(383,1016,o),
(415,1016,cs),
(463,1016,o),
(484,1054,o),
(495,1091,cs),
(508,1136,o),
(524,1190,o),
(543,1244,c),
(567,1287,o),
(589,1351,o),
(785,1351,cs),
(965,1351,o),
(1003,1230,o),
(1003,1130,cs),
(1003,948,o),
(803,811,o),
(626,811,cs),
(555,811,l),
(524,811,o),
(513,777,o),
(513,726,cs),
(513,711,o),
(518,696,o),
(538,696,c),
(604,696,ls),
(698,696,o),
(997,668,o),
(997,432,cs),
(997,200,o),
(815,67,o),
(566,67,cs),
(394,67,o),
(331,140,o),
(302,200,c),
(380,383,l),
(380,429,o),
(322,456,o),
(291,456,cs),
(199,456,o),
(123,364,o),
(123,260,cs),
(123,53,o),
(396,-28,o),
(571,-28,cs)
);
}
);
userData = {
RMXScaler = {
monoWidth = 1306;
};
};
width = 1306;
},
{
layerId = "BDB4B313-38B1-4B24-B843-560B185382BD";
shapes = (
{
closed = 1;
nodes = (
(864,-21,o),
(1197,122,o),
(1197,454,cs),
(1197,645,o),
(1044,755,o),
(807,758,c),
(1033,791,o),
(1219,934,o),
(1219,1151,cs),
(1219,1338,o),
(1050,1447,o),
(757,1447,cs),
(518,1447,o),
(202,1324,o),
(202,1118,cs),
(202,1047,o),
(264,997,o),
(325,997,cs),
(370,997,o),
(414,1020,o),
(442,1077,cs),
(462,1119,o),
(486,1182,o),
(514,1244,c),
(566,1326,o),
(623,1350,o),
(699,1350,cs),
(852,1350,o),
(890,1241,o),
(890,1147,cs),
(890,938,o),
(756,807,o),
(554,807,cs),
(481,807,ls),
(452,807,o),
(446,752,o),
(446,720,cs),
(446,697,o),
(454,694,o),
(464,694,cs),
(556,694,ls),
(698,694,o),
(837,672,o),
(837,471,cs),
(837,239,o),
(717,79,o),
(490,79,cs),
(312,79,o),
(262,174,o),
(260,174,c),
(359,417,l),
(354,450,o),
(321,488,o),
(238,488,cs),
(141,488,o),
(47,365,o),
(47,257,cs),
(47,80,o),
(253,-21,o),
(485,-21,cs)
);
}
);
userData = {
RMXScaler = {
monoWidth = 1306;
};
};
width = 1306;
}
);
userData = {
RMXScaler = {
source = three;
};
};
}
{
glyphname = two.tosf;
layers = (
{
layerId = "D92FDD0B-F694-41DD-AE46-0E4F694F0F38";
shapes = (
{
closed = 1;
nodes = (
(1028,0,l),
(1063,165,l),
(432,165,l),
(704,327,o),
(1136,616,o),
(1136,910,cs),
(1136,1101,o),
(973,1206,o),
(721,1206,cs),
(503,1206,o),
(308,1082,o),
(250,960,cs),
(239,935,o),
(227,903,o),
(227,875,cs),
(227,794,o),
(310,775,o),
(342,775,cs),
(381,775,o),
(409,809,o),
(420,847,cs),
(434,894,o),
(446,939,o),
(468,1003,c),
(505,1046,o),
(526,1110,o),
(691,1110,cs),
(873,1110,o),
(927,992,o),
(927,895,cs),
(927,595,o),
(470,268,o),
(145,85,c),
(119,59,o),
(110,33,o),
(110,0,c)
);
}
);
userData = {
RMXScaler = {
keepStroke = 90;
monoWidth = 1280;
useSpacing = 60;
};
};
width = 1306;
},
{
layerId = "BDB4B313-38B1-4B24-B843-560B185382BD";
shapes = (
{
closed = 1;
nodes = (
(1109,0,l),
(1153,220,l),
(445,220,l),
(742,366,o),
(1199,557,o),
(1199,885,cs),
(1199,1093,o),
(1027,1206,o),
(727,1206,cs),
(492,1206,o),
(290,1093,o),
(212,973,cs),
(181,925,o),
(168,885,o),
(168,851,cs),
(168,768,o),
(247,731,o),
(314,731,cs),
(385,731,o),
(410,782,o),
(428,823,c),
(458,883,o),
(488,943,o),
(519,1003,c),
(544,1047,o),
(599,1110,o),
(706,1110,cs),
(825,1110,o),
(858,1002,o),
(858,907,cs),
(858,550,o),
(423,367,o),
(103,137,cs),
(78,119,o),
(46,82,o),
(46,0,c,{
name = hr00;
})
);
}
);
userData = {
RMXScaler = {
keepStroke = 80;
monoWidth = 1436;
useSpacing = 60;
};
};
width = 1306;
}
);
userData = {
RMXScaler = {
source = two;
};
};
}
{
glyphname = zero.dnom;
layers = (
{
layerId = "D92FDD0B-F694-41DD-AE46-0E4F694F0F38";
shapes = (
{
closed = 1;
nodes = (
(757,-15,o),
(940,285,o),
(940,613,cs),
(940,846,o),
(815,981,o),
(593,981,cs),
(257,981,o),
(74,691,o),
(74,359,cs),
(74,126,o),
(199,-15,o),
(428,-15,cs)
);
},
{
closed = 1;
nodes = (
(336,49,o),
(278,149,o),
(278,319,cs),
(278,556,o),
(377,916,o),
(577,916,cs),
(679,916,o),
(733,820,o),
(733,654,cs),
(733,416,o),
(636,49,o),
(441,49,cs)
);
}
);
width = 1024;
},
{
layerId = "BDB4B313-38B1-4B24-B843-560B185382BD";
shapes = (
{
closed = 1;
nodes = (
(826,-15,o),
(1036,233,o),
(1036,586,cs),
(1036,825,o),
(895,981,o),
(642,981,cs),
(316,981,o),
(93,753,o),
(93,403,cs),
(93,170,o),
(236,-15,o),
(490,-15,cs)
);
},
{
closed = 1;
nodes = (
(401,49,o),
(368,179,o),
(368,334,cs),
(368,630,o),
(458,916,o),
(626,916,cs),
(728,916,o),
(761,816,o),
(761,657,cs),
(761,367,o),
(673,49,o),
(502,49,cs)
);
}
);
width = 1130;
}
);
}
{
glyphname = zero.tosf;
layers = (
{
anchors = (
{
name = center;
pos = (666,589);
}
);
layerId = "D92FDD0B-F694-41DD-AE46-0E4F694F0F38";
shapes = (
{
closed = 1;
nodes = (
(956,-28,o),
(1167,331,o),
(1167,741,cs),
(1167,1031,o),
(1027,1205,o),
(764,1205,cs),
(385,1205,o),
(164,838,o),
(164,431,cs),
(164,144,o),
(308,-28,o),
(573,-28,cs)
);
},
{
closed = 1;
nodes = (
(422,66,o),
(360,157,o),
(360,340,cs),
(360,724,o),
(469,1111,o),
(748,1111,cs),
(905,1111,o),
(969,1022,o),
(969,833,cs),
(969,447,o),
(863,66,o),
(583,66,cs)
);
}
);
userData = {
RMXScaler = {
keepStroke = 90;
monoWidth = 1280;
useSpacing = 60;
};
};
width = 1306;
},
{
anchors = (
{
name = center;
pos = (666,589);
}
);
layerId = "BDB4B313-38B1-4B24-B843-560B185382BD";
shapes = (
{
closed = 1;
nodes = (
(1018,-28,o),
(1271,297,o),
(1271,712,cs),
(1271,1019,o),
(1107,1206,o),
(764,1206,cs),
(330,1206,o),
(62,874,o),
(62,460,cs),
(62,156,o),
(233,-28,o),
(573,-28,cs)
);
},
{
closed = 1;
nodes = (
(440,68,o),
(403,204,o),
(403,334,cs),
(403,704,o),
(471,1110,o),
(740,1110,cs),
(891,1110,o),
(927,1020,o),
(927,838,cs),
(927,487,o),
(861,68,o),
(592,68,cs)
);
}
);
userData = {
RMXScaler = {
keepStroke = 80;
monoWidth = 1436;
useSpacing = 60;
};
};
width = 1306;
}
);
userData = {
RMXScaler = {
source = zero;
};
};
}
